<svg width="1550" height="741" viewBox="0 0 1550 741" fill="none" xmlns="http://www.w3.org/2000/svg">
<path d="M160.22 3V103" stroke="#C6A77D" stroke-width="6" stroke-linecap="square"/>
<path opacity="0.5" d="M106.72 34C305.053 53.5 672.249 115.577 705.22 259C725.22 346 731.252 463.259 869.72 540C1077.22 655 1348.22 559.167 1549.72 573.5" stroke="url(#paint0_linear_731_82)" stroke-width="5"/>
<path opacity="0.5" d="M105.72 56.5C304.053 76 672.249 138.577 705.22 282C725.22 369 731.252 486.259 869.72 563C1077.22 678 1348.22 582.167 1549.72 596.5" stroke="url(#paint1_linear_731_82)" stroke-width="5"/>
<path opacity="0.5" d="M107.22 72C305.553 91.5 669.249 153.577 702.22 297C722.22 384 728.252 501.259 866.72 578C1074.22 693 1345.22 597.167 1546.72 611.5" stroke="url(#paint2_linear_731_82)" stroke-width="5"/>
<path d="M100.354 251.091C101.246 250.724 102.439 251.049 103.354 251.518C103.64 251.664 103.519 252.357 103.718 252.488C104.106 252.744 104.45 252.395 104.836 252.703C104.964 252.808 104.843 253.904 104.976 253.989C105.707 254.449 106.375 254.15 107.107 254.36C110.714 255.393 114.236 255.694 117.867 256.078C119.063 256.204 120.543 257.149 121.761 256.678C121.903 256.622 121.787 255.667 121.812 255.587C122.204 254.366 122.121 256.304 122.409 256.552C123.552 257.531 124.79 257.581 125.848 257.178C126.298 257.004 125.783 255.116 126.274 256.17C126.308 256.241 126.225 257.261 126.353 257.366C126.643 257.601 127.174 257.403 127.396 257.476C127.824 257.624 127.894 257.611 128.294 257.611C128.841 257.618 129.507 258.104 130.086 257.855C130.209 257.799 130.011 256.762 130.206 256.578C130.4 256.395 130.931 256.467 131.117 256.707C131.303 256.947 131.252 257.769 131.29 257.956C131.598 259.533 132.142 257.318 132.219 257.262C133.624 256.292 134.893 257.504 136.239 257.459C137.261 257.422 138.341 256.975 139.315 257.002C140.476 257.037 141.476 257.571 142.598 257.439C142.717 257.427 142.539 256.205 142.684 256.187C144.221 255.997 145.756 256.083 147.316 256.863C147.473 256.942 147.308 258.024 147.466 258.168C148.435 259.023 149.991 261.101 150.405 256.398C151.048 256.561 151.828 256.726 152.428 257.653C152.815 258.25 152.494 259.433 152.93 258.919C153.029 258.804 152.864 257.782 153.014 257.687C153.646 257.292 154.36 257.604 154.98 257.053C155.106 256.939 155.042 256.02 155.073 255.853C155.34 254.502 155.922 256.704 156.039 256.862C156.929 258.037 157.536 257.545 158.331 257.549C158.515 257.551 158.259 256.322 158.435 256.279C159.349 256.073 160.305 256.15 161.222 256.67C161.426 256.789 161.274 257.848 161.374 257.958C161.811 258.433 161.842 256.442 162.26 256.859C162.348 256.944 162.328 257.847 162.347 257.945C162.639 259.491 162.782 257.284 162.843 257.233C163.615 256.544 164.193 258.827 164.948 258.477C165.038 258.433 164.796 257.3 165.052 257.245C166.757 256.877 168.581 257.134 170.307 257.993C170.575 258.126 170.413 258.988 170.433 259.093C170.755 260.734 170.861 258.518 170.945 258.433C171.605 257.812 172.297 259.646 172.676 256.999C175.58 257.823 178.396 256.256 181.321 258.526C181.358 258.552 181.327 259.643 181.4 259.691C182.29 260.275 182.071 258.588 182.583 256.501C182.712 255.977 183.231 258.461 183.275 258.643C183.439 259.314 183.341 260.938 183.393 261.067C183.82 262.081 183.589 256.727 184.121 256.709C184.138 256.717 184.099 257.705 184.146 257.802C184.295 258.105 184.42 257.709 184.566 258.044C184.901 258.82 185.093 261.419 185.521 259.89C185.575 259.691 185.388 256.656 185.868 256.785C186.059 256.839 186.896 256.76 187.137 256.95C187.378 257.139 187.247 258.124 187.265 258.165C187.938 259.44 187.715 259.984 188.091 261.891C188.467 263.791 188.238 259.239 188.351 258.727C188.465 258.216 188.962 259.27 189.087 259.638C189.212 260.006 189.09 260.632 189.197 260.839C189.911 262.192 189.422 258.57 189.621 257.84C190.089 256.112 190.6 259.477 191.088 259.793C191.22 259.878 191.091 259.112 191.203 259.037C191.65 258.748 191.957 259.793 192.446 258.811C192.525 258.651 192.881 256.607 193.199 258.089C193.244 258.303 193.161 259.148 193.361 259.33C193.66 259.604 194.188 259.772 194.491 259.481C194.715 259.266 194.408 257.887 194.711 258.309C194.846 258.497 194.633 259.316 194.884 259.602C195.133 259.888 195.748 259.834 195.981 259.798C196.214 259.762 196.053 258.714 196.07 258.643C196.172 258.233 196.604 257.712 196.644 257.712C198.639 257.522 200.538 259.238 202.467 258.59C202.618 258.541 202.482 257.435 202.505 257.416C203.013 256.935 202.692 259.897 203.088 260.873C202.966 258.624 203.194 259.024 203.555 258.766C203.728 258.64 203.605 257.771 203.618 257.681C203.84 256.349 204.077 258.054 204.135 258.402C204.349 259.683 204.492 258.157 204.637 259.014C204.782 259.864 204.548 261.138 204.901 261.111C204.975 260.302 204.648 258.204 204.905 257.854C205.877 256.532 207.818 258.125 208.637 258.272C209.454 258.418 209.712 258.261 210.194 258.538C211.066 259.038 210.704 257.485 211.212 256.753C211.722 256.022 211.583 259.874 211.685 260.698C211.786 261.522 211.842 260.669 211.949 261.12C212.056 261.571 211.872 262.14 212.097 262.303C212.321 262.467 212.875 260.979 212.925 260.112C213.033 258.276 212.703 256.363 213.304 257.02C213.339 257.059 213.262 258.073 213.393 258.172C214.431 258.918 215.486 258.934 216.521 259.591C216.663 259.683 216.574 260.811 216.657 260.877C217.524 261.57 217.163 259.684 217.56 257.563C217.543 260.369 217.853 262.076 218.494 262.073C218.88 262.072 218.775 260.85 218.998 259.979C219.064 259.717 219.363 260.549 219.395 259.971C219.499 258.084 219.177 255.985 219.864 256.804C219.894 256.843 219.833 257.876 219.936 257.935C220.596 258.323 220.612 256.352 221.305 256.092C221.847 255.888 222.86 257.058 223.491 257.234C223.576 260.386 224.143 259.646 224.315 257.466C224.724 257.542 225.158 257.406 225.559 257.694C225.697 257.792 225.636 258.707 225.657 258.805C225.965 260.344 226.076 258.224 226.161 258.139C227.084 257.304 227.907 258.882 228.763 257.288C228.793 257.23 228.778 255.04 229.069 256.631C229.088 256.74 228.82 257.746 229.248 257.809C229.677 257.873 230.516 259.022 231.076 257.989C231.211 257.741 231.518 255.952 231.851 257.332C231.896 257.519 231.873 258.148 231.94 258.496C232.155 259.604 232.185 257.388 232.455 259.261C232.726 261.134 233.211 262.528 233.767 261.213C233.785 261.174 233.871 259.416 234.06 259.438C234.36 259.475 234.797 259.827 235.109 259.806C235.258 259.795 235.129 258.709 235.154 258.688C236.141 258.047 236.887 258.995 237.978 259.383C238.178 259.456 238.7 257.954 239.119 259.116C239.579 260.388 239.313 265.748 240.239 264.444C240.613 263.923 240.895 257.124 241.704 260.617C243.034 259.704 244.345 261.464 245.667 260.178C245.727 260.121 245.861 258.222 246.006 258.243C246.221 258.278 246.366 259.16 246.52 259.213C247.167 259.46 247.729 258.685 248.348 258.783C248.584 258.819 248.53 259.736 248.811 259.779C249.091 259.82 249.24 258.61 249.636 259.18C249.935 259.615 250.297 262.068 250.684 262.343C250.623 259.914 250.885 259.956 251.328 259.3C251.413 259.173 251.291 258.331 251.33 258.227C251.488 257.786 251.668 258.482 251.815 258.002C251.851 257.887 251.828 257.058 251.856 256.917C252.092 255.687 252.603 257.538 252.691 257.861C253.027 259.085 253.133 258.002 253.376 258.481C253.62 258.96 253.297 259.578 253.573 259.864C254.144 260.457 254.85 260.301 255.412 260.321C255.637 260.325 255.45 259.222 255.481 259.197C255.935 258.902 256.44 260.065 256.628 257.851C257.126 263.544 256.89 257.29 257.587 258.411C257.642 258.501 257.792 261.196 257.604 261.598C257.417 262 257.087 261.166 256.828 261.792C256.767 261.939 256.469 264.478 256.422 264.632C256.057 265.841 255.875 261.813 255.847 261.592C255.531 259.211 255.155 261.948 255.04 262.14C254.512 263.019 254.023 262.467 253.579 263.096C253.288 263.504 253.34 266.144 253.099 266.071C252.299 265.828 251.909 262.154 251.262 265.371C251.123 266.057 251.371 268.937 250.728 266.686C250.687 266.544 250.197 264.482 249.992 265.802C249.966 265.969 249.993 266.809 249.955 266.881C249.696 267.347 249.493 266.682 249.206 267.013C248.919 267.343 248.576 267.832 248.228 267.557C248.018 267.393 247.706 265.835 247.597 265.454C247.286 264.358 247.046 266.179 246.833 264.846C246.618 263.507 246.892 261.454 246.412 260.599C246.464 262.784 246.495 265.028 246.536 267.226C245.541 267.18 244.542 266.504 243.549 266.631C243.426 266.649 243.588 267.819 243.457 267.869C242.905 268.073 242.391 267.251 241.822 267.602C241.382 267.879 240.929 269.138 240.469 269.465C240.105 266.974 239.436 267.845 238.924 267.632C238.744 267.559 238.735 266.891 238.603 266.677C238.103 265.886 238.394 268.088 238.274 268.44C237.762 269.941 237.559 264.942 236.904 265.086C236.869 265.092 236.525 267.771 236.472 267.938C236.132 269.032 236.381 267.013 236.141 266.823C235.704 266.476 235.387 265.849 234.911 266.645C234.772 266.881 234.474 268.553 234.151 267.277C234.108 267.11 234.101 266.228 234.07 266.178C233.5 265.334 233.572 268.103 233.29 269.05C233.009 269.997 232.47 268.101 232.356 267.553C232.056 266.137 232.532 266.938 232.542 266.798C232.652 265.129 232.312 265.427 232.04 265.294C231.917 262.581 231.549 262.756 231.759 265.168C231.783 265.432 231.983 265.172 232.04 265.294C231.888 267.965 231.488 268.318 230.957 265.844C230.709 264.684 230.867 263.318 230.238 263.836C229.952 264.069 230.123 265.935 229.881 266.452C229.327 267.633 228.506 265.913 227.906 266.207C227.688 266.314 227.935 267.33 227.787 267.438C227.396 267.728 227.018 266.971 226.628 267.377C226.593 267.415 226.715 268.483 226.591 268.501C225.647 268.655 224.8 267.994 223.809 268.006C223.33 268.012 222.494 268.629 221.994 268.526C221.129 268.353 220.025 266.829 219.303 267.23C218.832 267.487 218.97 268.555 218.788 269.291C218.436 270.718 217.657 268.206 217.55 267.816C217.547 267.803 217.951 267.538 217.714 266.995C217.551 265.853 217.555 267.811 217.55 267.816C217.481 267.565 216.651 267.347 216.494 267.557C216.408 267.672 216.489 268.685 216.444 268.725C215.373 269.668 214.279 269.96 213.149 269.52C213.129 269.5 213.123 268.364 213.076 268.331C212.414 267.847 212.044 269.248 211.537 270.089C211.03 270.93 210.599 270.667 210.223 268.728C209.829 268.986 209.226 268.142 208.878 267.63C208.53 267.117 208.552 269.328 208.524 269.373C207.657 270.799 207.092 269.551 206.141 269.384C205.689 269.3 204.808 269.648 204.33 269.905C203.952 270.112 203.704 269.601 203.36 269.943C203.314 269.989 203.393 270.971 203.379 271.009C203.021 272.199 203.136 269.788 203.041 269.361C202.697 267.808 202.488 266.982 202.005 267.732C201.893 267.904 201.661 271.378 201.454 271.587C201.186 271.852 201.252 270.608 200.971 270.917C200.947 270.943 200.976 271.708 200.797 271.68C199.962 271.559 199.044 271.142 198.184 271.245C198.066 271.257 198.255 272.466 198.086 272.503C197.292 272.671 196.415 272.654 195.619 272.109C195.423 271.971 195.517 271.117 195.468 270.866C195.165 269.346 194.872 271.577 194.814 271.621C193.422 272.733 192.27 270.757 190.848 271.759C190.771 271.818 190.236 274.216 189.901 272.184C189.879 272.048 189.545 269.969 189.352 271.404C189.34 271.493 189.541 272.563 189.245 272.463C188.95 272.363 188.503 273.095 188.064 271.926C187.926 271.558 187.561 269.484 187.233 271.157C187.212 271.273 186.744 275.046 186.454 272.462C186.407 272.037 186.358 269.294 185.949 270.714C185.871 270.989 186.047 271.596 185.831 271.985C185.5 272.584 185.015 271.864 184.624 273.099C184.556 273.317 184.296 275.188 183.997 273.783C183.95 273.563 183.997 272.646 183.859 272.548C183.203 272.076 182.55 272.709 181.879 272.096C181.642 271.881 181.714 270.398 181.461 270.009C181.208 269.62 180.712 269.254 180.481 269.938C180.25 270.622 180.599 272.971 180.227 273.172C178.614 274.042 176.947 272.709 175.304 272.558C175.061 272.535 175.288 273.372 174.931 273.4C173.614 273.503 171.362 274.365 170.162 272.608C169.2 271.2 170.32 270.071 169.601 269.509C169.255 269.24 168.974 271.993 168.895 272.082C168.125 272.983 167.533 271.786 166.827 272.181C166.681 272.263 166.861 273.37 166.736 273.427C166.312 273.633 165.843 273.151 165.435 273.255C165.251 273.304 165.312 274.151 165.14 274.091C164.728 273.957 164.358 273.611 163.937 272.828C163.898 272.757 164.109 271.693 163.807 271.664C163.318 271.618 162.69 270.852 162.155 271.68C161.996 271.929 162.05 273.869 161.651 272.54C161.567 272.263 161.59 269.931 161.237 271.956C161.177 272.293 160.562 275.029 160.165 273.29C160.06 272.832 159.77 270.933 159.579 271.239C159.554 271.288 159.694 272.326 159.532 272.433C158.959 272.791 158.344 272.699 157.754 273.044C157.597 273.138 157.869 274.209 157.633 274.315C156.985 274.607 156.157 274.358 155.505 274.041C155.264 273.922 155.4 273.024 155.38 272.927C155.054 271.355 154.956 273.494 154.868 273.621C154.32 274.384 153.854 273.395 153.335 273.676C153.192 273.751 153.327 274.766 153.3 274.857C153.028 275.753 153.195 273.919 152.998 273.723C152.449 273.17 151.858 273.27 151.324 273.417C151.127 273.472 151.386 274.645 151.21 274.681C150.166 274.917 149.071 274.838 148.026 274.219C147.829 274.101 147.922 273.189 147.875 272.982C147.553 271.539 147.208 273.532 147.121 273.723C146.722 274.598 146.532 273.8 146.162 273.961C144.351 274.765 142.071 274.303 140.33 274.028C138.061 273.675 136.284 272.865 134.14 273.156C134.004 273.174 134.179 274.378 134.062 274.408C132.55 274.747 131.038 274.321 129.524 274.718C129.4 274.748 129.616 275.888 129.417 275.975C129.011 276.162 128.487 276.116 128.06 275.763C127.851 275.593 128.093 274.602 127.884 274.451C127.396 274.097 126.883 274.032 126.4 274.23C126.194 274.317 126.545 275.479 126.275 275.501C124.436 275.675 122.633 275.933 120.724 274.473C120.593 274.373 120.407 271.995 120.15 272.461C120.15 273.122 120.175 273.899 120.188 274.606C117.518 275.07 114.838 274.327 112.145 274.283C112.031 274.281 112.266 275.536 112.047 275.54C110.775 275.561 109.552 275.948 108.214 274.735C108.081 274.616 108.078 272.395 107.709 272.742C107.644 272.805 107.08 273.119 106.947 273.606C106.93 273.679 107.066 274.712 106.883 274.748C105.816 274.938 104.685 274.737 103.596 274.137C103.42 274.038 103.569 272.929 103.444 272.849C102.553 272.291 101.63 273.159 100.765 272.183C100.187 271.526 100.334 269.612 99.9791 267.744C99.9289 267.481 99.5821 267.45 99.5303 266.358C99.3991 263.613 99.4731 260.601 99.3135 257.675C99.2794 257.045 98.8377 257.739 99.0644 256.207C99.0804 256.104 99.4002 255.588 99.4668 255.068C99.5132 254.709 99.375 253.602 99.4782 253.141C99.5814 252.68 99.7393 253.607 99.9172 253.064C100.095 252.513 99.9701 251.252 100.354 251.091ZM207.312 265.34C206.971 264.288 207.047 268.176 207.35 267.236C207.365 267.186 207.329 265.391 207.312 265.34ZM244.456 263.572C244.002 261.87 243.805 264.399 244.129 265.714C244.454 267.028 244.595 264.088 244.456 263.572ZM248.582 262.191C248.07 260.854 248.168 266.367 248.636 265.238C248.663 265.174 248.611 262.269 248.582 262.191ZM101.338 267.167C101.332 267.116 101.082 267.073 101.077 267.124C100.984 268.363 101.483 268.447 101.338 267.167ZM252.671 260.7C252.502 259.959 252.107 260.833 252.317 261.754C252.487 262.496 252.883 261.622 252.671 260.7ZM191.16 261.69C191.153 261.632 190.973 261.585 190.987 261.913C191.032 262.967 191.271 262.661 191.16 261.69ZM259.692 260.419C258.648 260.244 257.878 255.711 259.024 256.189C259.231 256.276 258.628 257.655 258.901 258.057C259.401 258.79 259.628 255.922 260.162 257.438C260.259 257.716 259.752 260.439 259.691 260.425C259.691 260.423 259.692 260.421 259.692 260.419ZM206.99 260.677C206.982 260.626 206.734 260.585 206.73 260.636C206.634 261.874 207.134 261.958 206.99 260.677ZM180.694 259.609C180.677 259.5 180.102 259.416 180.086 259.517C179.85 261.544 181.014 261.721 180.694 259.609ZM223.504 257.318C223.734 256.068 224.051 255.912 224.314 257.464C224.044 257.39 223.775 257.386 223.504 257.318Z" fill="#C6A77D"/>
<path d="M105.354 283.091C106.246 282.724 107.439 283.049 108.354 283.518C108.64 283.664 108.519 284.357 108.718 284.488C109.106 284.744 109.45 284.395 109.836 284.703C109.964 284.808 109.843 285.904 109.976 285.989C110.707 286.449 111.375 286.15 112.107 286.36C115.714 287.393 119.236 287.694 122.867 288.078C124.063 288.204 125.543 289.149 126.761 288.678C126.903 288.622 126.787 287.667 126.812 287.587C127.204 286.366 127.121 288.304 127.409 288.552C128.552 289.531 129.79 289.581 130.848 289.178C131.298 289.004 130.783 287.116 131.274 288.17C131.308 288.241 131.225 289.261 131.353 289.366C131.643 289.601 132.174 289.403 132.396 289.476C132.824 289.624 132.894 289.611 133.294 289.611C133.841 289.618 134.507 290.104 135.086 289.855C135.209 289.799 135.011 288.762 135.206 288.578C135.4 288.395 135.931 288.467 136.117 288.707C136.303 288.947 136.252 289.769 136.29 289.956C136.598 291.533 137.142 289.318 137.219 289.262C138.624 288.292 139.893 289.504 141.239 289.459C142.261 289.422 143.341 288.975 144.315 289.002C145.476 289.037 146.476 289.571 147.598 289.439C147.717 289.427 147.539 288.205 147.684 288.187C149.221 287.997 150.756 288.083 152.316 288.863C152.473 288.942 152.308 290.024 152.466 290.168C153.435 291.023 154.991 293.101 155.405 288.398C156.048 288.561 156.828 288.726 157.428 289.653C157.815 290.25 157.494 291.433 157.93 290.919C158.029 290.804 157.864 289.782 158.014 289.687C158.646 289.292 159.36 289.604 159.98 289.053C160.106 288.939 160.042 288.02 160.073 287.853C160.34 286.502 160.922 288.704 161.039 288.862C161.929 290.037 162.536 289.545 163.331 289.549C163.515 289.551 163.259 288.322 163.435 288.279C164.349 288.073 165.305 288.15 166.222 288.67C166.426 288.789 166.274 289.848 166.374 289.958C166.811 290.433 166.842 288.442 167.26 288.859C167.348 288.944 167.328 289.847 167.347 289.945C167.639 291.491 167.782 289.284 167.843 289.233C168.615 288.544 169.193 290.827 169.948 290.477C170.038 290.433 169.796 289.3 170.052 289.245C171.757 288.877 173.581 289.134 175.307 289.993C175.575 290.126 175.413 290.988 175.433 291.093C175.755 292.734 175.861 290.518 175.945 290.433C176.605 289.812 177.297 291.646 177.676 288.999C180.58 289.823 183.396 288.256 186.321 290.526C186.358 290.552 186.327 291.643 186.4 291.691C187.29 292.275 187.071 290.588 187.583 288.501C187.712 287.977 188.231 290.461 188.275 290.643C188.439 291.314 188.341 292.938 188.393 293.067C188.82 294.081 188.589 288.727 189.121 288.709C189.138 288.717 189.099 289.705 189.146 289.802C189.295 290.105 189.42 289.709 189.566 290.044C189.901 290.82 190.093 293.419 190.521 291.89C190.575 291.691 190.388 288.656 190.868 288.785C191.059 288.839 191.896 288.76 192.137 288.95C192.378 289.139 192.247 290.124 192.265 290.165C192.938 291.44 192.715 291.984 193.091 293.891C193.467 295.791 193.238 291.239 193.351 290.727C193.465 290.216 193.962 291.27 194.087 291.638C194.212 292.006 194.09 292.632 194.197 292.839C194.911 294.192 194.422 290.57 194.621 289.84C195.089 288.112 195.6 291.477 196.088 291.793C196.22 291.878 196.091 291.112 196.203 291.037C196.65 290.748 196.957 291.793 197.446 290.811C197.525 290.651 197.881 288.607 198.199 290.089C198.244 290.303 198.161 291.148 198.361 291.33C198.66 291.604 199.188 291.772 199.491 291.481C199.715 291.266 199.408 289.887 199.711 290.309C199.846 290.497 199.633 291.316 199.884 291.602C200.133 291.888 200.748 291.834 200.981 291.798C201.214 291.762 201.053 290.714 201.07 290.643C201.172 290.233 201.604 289.712 201.644 289.712C203.639 289.522 205.538 291.238 207.467 290.59C207.618 290.541 207.482 289.435 207.505 289.416C208.013 288.935 207.692 291.897 208.088 292.873C207.966 290.624 208.194 291.024 208.555 290.766C208.728 290.64 208.605 289.771 208.618 289.681C208.84 288.349 209.077 290.054 209.135 290.402C209.349 291.683 209.492 290.157 209.637 291.014C209.782 291.864 209.548 293.138 209.901 293.111C209.975 292.302 209.648 290.204 209.905 289.854C210.877 288.532 212.818 290.125 213.637 290.272C214.454 290.418 214.712 290.261 215.194 290.538C216.066 291.038 215.704 289.485 216.212 288.753C216.722 288.022 216.583 291.874 216.685 292.698C216.786 293.522 216.842 292.669 216.949 293.12C217.056 293.571 216.872 294.14 217.097 294.303C217.321 294.467 217.875 292.979 217.925 292.112C218.033 290.276 217.703 288.363 218.304 289.02C218.339 289.059 218.262 290.073 218.393 290.172C219.431 290.918 220.486 290.934 221.521 291.591C221.663 291.683 221.574 292.811 221.657 292.877C222.524 293.57 222.163 291.684 222.56 289.563C222.543 292.369 222.853 294.076 223.494 294.073C223.88 294.072 223.775 292.85 223.998 291.979C224.064 291.717 224.363 292.549 224.395 291.971C224.499 290.084 224.177 287.985 224.864 288.804C224.894 288.843 224.833 289.876 224.936 289.935C225.596 290.323 225.612 288.352 226.305 288.092C226.847 287.888 227.86 289.058 228.491 289.234C228.576 292.386 229.143 291.646 229.315 289.466C229.724 289.542 230.158 289.406 230.559 289.694C230.697 289.792 230.636 290.707 230.657 290.805C230.965 292.344 231.076 290.224 231.161 290.139C232.084 289.304 232.907 290.882 233.763 289.288C233.793 289.23 233.778 287.04 234.069 288.631C234.088 288.74 233.82 289.746 234.248 289.809C234.677 289.873 235.516 291.022 236.076 289.989C236.211 289.741 236.518 287.952 236.851 289.332C236.896 289.519 236.873 290.148 236.94 290.496C237.155 291.604 237.185 289.388 237.455 291.261C237.726 293.134 238.211 294.528 238.767 293.213C238.785 293.174 238.871 291.416 239.06 291.438C239.36 291.475 239.797 291.827 240.109 291.806C240.258 291.795 240.129 290.709 240.154 290.688C241.141 290.047 241.887 290.995 242.978 291.383C243.178 291.456 243.7 289.954 244.119 291.116C244.579 292.388 244.313 297.748 245.239 296.444C245.613 295.923 245.895 289.124 246.704 292.617C248.034 291.704 249.345 293.464 250.667 292.178C250.727 292.121 250.861 290.222 251.006 290.243C251.221 290.278 251.366 291.16 251.52 291.213C252.167 291.46 252.729 290.685 253.348 290.783C253.584 290.819 253.53 291.736 253.811 291.779C254.091 291.82 254.24 290.61 254.636 291.18C254.935 291.615 255.297 294.068 255.684 294.343C255.623 291.914 255.885 291.956 256.328 291.3C256.413 291.173 256.291 290.331 256.33 290.227C256.488 289.786 256.668 290.482 256.815 290.002C256.851 289.887 256.828 289.058 256.856 288.917C257.092 287.687 257.603 289.538 257.691 289.861C258.027 291.085 258.133 290.002 258.376 290.481C258.62 290.96 258.297 291.578 258.573 291.864C259.144 292.457 259.85 292.301 260.412 292.321C260.637 292.325 260.45 291.222 260.481 291.197C260.935 290.902 261.44 292.065 261.628 289.851C262.126 295.544 261.89 289.29 262.587 290.411C262.642 290.501 262.792 293.196 262.604 293.598C262.417 294 262.087 293.166 261.828 293.792C261.767 293.939 261.469 296.478 261.422 296.632C261.057 297.841 260.875 293.813 260.847 293.592C260.531 291.211 260.155 293.948 260.04 294.14C259.512 295.019 259.023 294.467 258.579 295.096C258.288 295.504 258.34 298.144 258.099 298.071C257.299 297.828 256.909 294.154 256.262 297.371C256.123 298.057 256.371 300.937 255.728 298.686C255.687 298.544 255.197 296.482 254.992 297.802C254.966 297.969 254.993 298.809 254.955 298.881C254.696 299.347 254.493 298.682 254.206 299.013C253.919 299.343 253.576 299.832 253.228 299.557C253.018 299.393 252.706 297.835 252.597 297.454C252.286 296.358 252.046 298.179 251.833 296.846C251.618 295.507 251.892 293.454 251.412 292.599C251.464 294.784 251.495 297.028 251.536 299.226C250.541 299.18 249.542 298.504 248.549 298.631C248.426 298.649 248.588 299.819 248.457 299.869C247.905 300.073 247.391 299.251 246.822 299.602C246.382 299.879 245.929 301.138 245.469 301.465C245.105 298.974 244.436 299.845 243.924 299.632C243.744 299.559 243.735 298.891 243.603 298.677C243.103 297.886 243.394 300.088 243.274 300.44C242.762 301.941 242.559 296.942 241.904 297.086C241.869 297.092 241.525 299.771 241.472 299.938C241.132 301.032 241.381 299.013 241.141 298.823C240.704 298.476 240.387 297.849 239.911 298.645C239.772 298.881 239.474 300.553 239.151 299.277C239.108 299.11 239.101 298.228 239.07 298.178C238.5 297.334 238.572 300.103 238.29 301.05C238.009 301.997 237.47 300.101 237.356 299.553C237.056 298.137 237.532 298.938 237.542 298.798C237.652 297.129 237.312 297.427 237.04 297.294C236.917 294.581 236.549 294.756 236.759 297.168C236.783 297.432 236.983 297.172 237.04 297.294C236.888 299.965 236.488 300.318 235.957 297.844C235.709 296.684 235.867 295.318 235.238 295.836C234.952 296.069 235.123 297.935 234.881 298.452C234.327 299.633 233.506 297.913 232.906 298.207C232.688 298.314 232.935 299.33 232.787 299.438C232.396 299.728 232.018 298.971 231.628 299.377C231.593 299.415 231.715 300.483 231.591 300.501C230.647 300.655 229.8 299.994 228.809 300.006C228.33 300.012 227.494 300.629 226.994 300.526C226.129 300.353 225.025 298.829 224.303 299.23C223.832 299.487 223.97 300.555 223.788 301.291C223.436 302.718 222.657 300.206 222.55 299.816C222.547 299.803 222.951 299.538 222.714 298.995C222.551 297.853 222.555 299.811 222.55 299.816C222.481 299.565 221.651 299.347 221.494 299.557C221.408 299.672 221.489 300.685 221.444 300.725C220.373 301.668 219.279 301.96 218.149 301.52C218.129 301.5 218.123 300.364 218.076 300.331C217.414 299.847 217.044 301.248 216.537 302.089C216.03 302.93 215.599 302.667 215.223 300.728C214.829 300.986 214.226 300.142 213.878 299.63C213.53 299.117 213.552 301.328 213.524 301.373C212.657 302.799 212.092 301.551 211.141 301.384C210.689 301.3 209.808 301.648 209.33 301.905C208.952 302.112 208.704 301.601 208.36 301.943C208.314 301.989 208.393 302.971 208.379 303.009C208.021 304.199 208.136 301.788 208.041 301.361C207.697 299.808 207.488 298.982 207.005 299.732C206.893 299.904 206.661 303.378 206.454 303.587C206.186 303.852 206.252 302.608 205.971 302.917C205.947 302.943 205.976 303.708 205.797 303.68C204.962 303.559 204.044 303.142 203.184 303.245C203.066 303.257 203.255 304.466 203.086 304.503C202.292 304.671 201.415 304.654 200.619 304.109C200.423 303.971 200.517 303.117 200.468 302.866C200.165 301.346 199.872 303.577 199.814 303.621C198.422 304.733 197.27 302.757 195.848 303.759C195.771 303.818 195.236 306.216 194.901 304.184C194.879 304.048 194.545 301.969 194.352 303.404C194.34 303.493 194.541 304.563 194.245 304.463C193.95 304.363 193.503 305.095 193.064 303.926C192.926 303.558 192.561 301.484 192.233 303.157C192.212 303.273 191.744 307.046 191.454 304.462C191.407 304.037 191.358 301.294 190.949 302.714C190.871 302.989 191.047 303.596 190.831 303.985C190.5 304.584 190.015 303.864 189.624 305.099C189.556 305.317 189.296 307.188 188.997 305.783C188.95 305.563 188.997 304.646 188.859 304.548C188.203 304.076 187.55 304.709 186.879 304.096C186.642 303.881 186.714 302.398 186.461 302.009C186.208 301.62 185.712 301.254 185.481 301.938C185.25 302.622 185.599 304.971 185.227 305.172C183.614 306.042 181.947 304.709 180.304 304.558C180.061 304.535 180.288 305.372 179.931 305.4C178.614 305.503 176.362 306.365 175.162 304.608C174.2 303.2 175.32 302.071 174.601 301.509C174.255 301.24 173.974 303.993 173.895 304.082C173.125 304.983 172.533 303.786 171.827 304.181C171.681 304.263 171.861 305.37 171.736 305.427C171.312 305.633 170.843 305.151 170.435 305.255C170.251 305.304 170.312 306.151 170.14 306.091C169.728 305.957 169.358 305.611 168.937 304.828C168.898 304.757 169.109 303.693 168.807 303.664C168.318 303.618 167.69 302.852 167.155 303.68C166.996 303.929 167.05 305.869 166.651 304.54C166.567 304.263 166.59 301.931 166.237 303.956C166.177 304.293 165.562 307.029 165.165 305.29C165.06 304.832 164.77 302.933 164.579 303.239C164.554 303.288 164.694 304.326 164.532 304.433C163.959 304.791 163.344 304.699 162.754 305.044C162.597 305.138 162.869 306.209 162.633 306.315C161.985 306.607 161.157 306.358 160.505 306.041C160.264 305.922 160.4 305.024 160.38 304.927C160.054 303.355 159.956 305.494 159.868 305.621C159.32 306.384 158.854 305.395 158.335 305.676C158.192 305.751 158.327 306.766 158.3 306.857C158.028 307.753 158.195 305.919 157.998 305.723C157.449 305.17 156.858 305.27 156.324 305.417C156.127 305.472 156.386 306.645 156.21 306.681C155.166 306.917 154.071 306.838 153.026 306.219C152.829 306.101 152.922 305.189 152.875 304.982C152.553 303.539 152.208 305.532 152.121 305.723C151.722 306.598 151.532 305.8 151.162 305.961C149.351 306.765 147.071 306.303 145.33 306.028C143.061 305.675 141.284 304.865 139.14 305.156C139.004 305.174 139.179 306.378 139.062 306.408C137.55 306.747 136.038 306.321 134.524 306.718C134.4 306.748 134.616 307.888 134.417 307.975C134.011 308.162 133.487 308.116 133.06 307.763C132.851 307.593 133.093 306.602 132.884 306.451C132.396 306.097 131.883 306.032 131.4 306.23C131.194 306.317 131.545 307.479 131.275 307.501C129.436 307.675 127.633 307.933 125.724 306.473C125.593 306.373 125.407 303.995 125.15 304.461C125.15 305.122 125.175 305.899 125.188 306.606C122.518 307.07 119.838 306.327 117.145 306.283C117.031 306.281 117.266 307.536 117.047 307.54C115.775 307.561 114.552 307.948 113.214 306.735C113.081 306.616 113.078 304.395 112.709 304.742C112.644 304.805 112.08 305.119 111.947 305.606C111.93 305.679 112.066 306.712 111.883 306.748C110.816 306.938 109.685 306.737 108.596 306.137C108.42 306.038 108.569 304.929 108.444 304.849C107.553 304.291 106.63 305.159 105.765 304.183C105.187 303.526 105.334 301.612 104.979 299.744C104.929 299.481 104.582 299.45 104.53 298.358C104.399 295.613 104.473 292.601 104.313 289.675C104.279 289.045 103.838 289.739 104.064 288.207C104.08 288.104 104.4 287.588 104.467 287.068C104.513 286.709 104.375 285.602 104.478 285.141C104.581 284.68 104.739 285.607 104.917 285.064C105.095 284.513 104.97 283.252 105.354 283.091ZM212.312 297.34C211.971 296.288 212.047 300.176 212.35 299.236C212.365 299.186 212.329 297.391 212.312 297.34ZM249.456 295.572C249.002 293.87 248.805 296.399 249.129 297.714C249.454 299.028 249.595 296.088 249.456 295.572ZM253.582 294.191C253.07 292.854 253.168 298.367 253.636 297.238C253.663 297.174 253.611 294.269 253.582 294.191ZM106.338 299.167C106.332 299.116 106.082 299.073 106.077 299.124C105.984 300.363 106.483 300.447 106.338 299.167ZM257.671 292.7C257.502 291.959 257.107 292.833 257.317 293.754C257.487 294.496 257.883 293.622 257.671 292.7ZM196.16 293.69C196.153 293.632 195.973 293.585 195.987 293.913C196.032 294.967 196.271 294.661 196.16 293.69ZM264.692 292.419C263.648 292.244 262.878 287.711 264.024 288.189C264.231 288.276 263.628 289.655 263.901 290.057C264.401 290.79 264.628 287.922 265.162 289.438C265.259 289.716 264.752 292.439 264.691 292.425C264.691 292.423 264.692 292.421 264.692 292.419ZM211.99 292.677C211.982 292.626 211.734 292.585 211.73 292.636C211.634 293.874 212.134 293.958 211.99 292.677ZM185.694 291.609C185.677 291.5 185.102 291.416 185.086 291.517C184.85 293.544 186.014 293.721 185.694 291.609ZM228.504 289.318C228.734 288.068 229.051 287.912 229.314 289.464C229.044 289.39 228.775 289.386 228.504 289.318Z" fill="#C6A77D"/>
<path d="M105.354 315.091C106.246 314.724 107.439 315.049 108.354 315.518C108.64 315.664 108.519 316.357 108.718 316.488C109.106 316.744 109.45 316.395 109.836 316.703C109.964 316.808 109.843 317.904 109.976 317.989C110.707 318.449 111.375 318.15 112.107 318.36C115.714 319.393 119.236 319.694 122.867 320.078C124.063 320.204 125.543 321.149 126.761 320.678C126.903 320.622 126.787 319.667 126.812 319.587C127.204 318.366 127.121 320.304 127.409 320.552C128.552 321.531 129.79 321.581 130.848 321.178C131.298 321.004 130.783 319.116 131.274 320.17C131.308 320.241 131.225 321.261 131.353 321.366C131.643 321.601 132.174 321.403 132.396 321.476C132.824 321.624 132.894 321.611 133.294 321.611C133.841 321.618 134.507 322.104 135.086 321.855C135.209 321.799 135.011 320.762 135.206 320.578C135.4 320.395 135.931 320.467 136.117 320.707C136.303 320.947 136.252 321.769 136.29 321.956C136.598 323.533 137.142 321.318 137.219 321.262C138.624 320.292 139.893 321.504 141.239 321.459C142.261 321.422 143.341 320.975 144.315 321.002C145.476 321.037 146.476 321.571 147.598 321.439C147.717 321.427 147.539 320.205 147.684 320.187C149.221 319.997 150.756 320.083 152.316 320.863C152.473 320.942 152.308 322.024 152.466 322.168C153.435 323.023 154.991 325.101 155.405 320.398C156.048 320.561 156.828 320.726 157.428 321.653C157.815 322.25 157.494 323.433 157.93 322.919C158.029 322.804 157.864 321.782 158.014 321.687C158.646 321.292 159.36 321.604 159.98 321.053C160.106 320.939 160.042 320.02 160.073 319.853C160.34 318.502 160.922 320.704 161.039 320.862C161.929 322.037 162.536 321.545 163.331 321.549C163.515 321.551 163.259 320.322 163.435 320.279C164.349 320.073 165.305 320.15 166.222 320.67C166.426 320.789 166.274 321.848 166.374 321.958C166.811 322.433 166.842 320.442 167.26 320.859C167.348 320.944 167.328 321.847 167.347 321.945C167.639 323.491 167.782 321.284 167.843 321.233C168.615 320.544 169.193 322.827 169.948 322.477C170.038 322.433 169.796 321.3 170.052 321.245C171.757 320.877 173.581 321.134 175.307 321.993C175.575 322.126 175.413 322.988 175.433 323.093C175.755 324.734 175.861 322.518 175.945 322.433C176.605 321.812 177.297 323.646 177.676 320.999C180.58 321.823 183.396 320.256 186.321 322.526C186.358 322.552 186.327 323.643 186.4 323.691C187.29 324.275 187.071 322.588 187.583 320.501C187.712 319.977 188.231 322.461 188.275 322.643C188.439 323.314 188.341 324.938 188.393 325.067C188.82 326.081 188.589 320.727 189.121 320.709C189.138 320.717 189.099 321.705 189.146 321.802C189.295 322.105 189.42 321.709 189.566 322.044C189.901 322.82 190.093 325.419 190.521 323.89C190.575 323.691 190.388 320.656 190.868 320.785C191.059 320.839 191.896 320.76 192.137 320.95C192.378 321.139 192.247 322.124 192.265 322.165C192.938 323.44 192.715 323.984 193.091 325.891C193.467 327.791 193.238 323.239 193.351 322.727C193.465 322.216 193.962 323.27 194.087 323.638C194.212 324.006 194.09 324.632 194.197 324.839C194.911 326.192 194.422 322.57 194.621 321.84C195.089 320.112 195.6 323.477 196.088 323.793C196.22 323.878 196.091 323.112 196.203 323.037C196.65 322.748 196.957 323.793 197.446 322.811C197.525 322.651 197.881 320.607 198.199 322.089C198.244 322.303 198.161 323.148 198.361 323.33C198.66 323.604 199.188 323.772 199.491 323.481C199.715 323.266 199.408 321.887 199.711 322.309C199.846 322.497 199.633 323.316 199.884 323.602C200.133 323.888 200.748 323.834 200.981 323.798C201.214 323.762 201.053 322.714 201.07 322.643C201.172 322.233 201.604 321.712 201.644 321.712C203.639 321.522 205.538 323.238 207.467 322.59C207.618 322.541 207.482 321.435 207.505 321.416C208.013 320.935 207.692 323.897 208.088 324.873C207.966 322.624 208.194 323.024 208.555 322.766C208.728 322.64 208.605 321.771 208.618 321.681C208.84 320.349 209.077 322.054 209.135 322.402C209.349 323.683 209.492 322.157 209.637 323.014C209.782 323.864 209.548 325.138 209.901 325.111C209.975 324.302 209.648 322.204 209.905 321.854C210.877 320.532 212.818 322.125 213.637 322.272C214.454 322.418 214.712 322.261 215.194 322.538C216.066 323.038 215.704 321.485 216.212 320.753C216.722 320.022 216.583 323.874 216.685 324.698C216.786 325.522 216.842 324.669 216.949 325.12C217.056 325.571 216.872 326.14 217.097 326.303C217.321 326.467 217.875 324.979 217.925 324.112C218.033 322.276 217.703 320.363 218.304 321.02C218.339 321.059 218.262 322.073 218.393 322.172C219.431 322.918 220.486 322.934 221.521 323.591C221.663 323.683 221.574 324.811 221.657 324.877C222.524 325.57 222.163 323.684 222.56 321.563C222.543 324.369 222.853 326.076 223.494 326.073C223.88 326.072 223.775 324.85 223.998 323.979C224.064 323.717 224.363 324.549 224.395 323.971C224.499 322.084 224.177 319.985 224.864 320.804C224.894 320.843 224.833 321.876 224.936 321.935C225.596 322.323 225.612 320.352 226.305 320.092C226.847 319.888 227.86 321.058 228.491 321.234C228.576 324.386 229.143 323.646 229.315 321.466C229.724 321.542 230.158 321.406 230.559 321.694C230.697 321.792 230.636 322.707 230.657 322.805C230.965 324.344 231.076 322.224 231.161 322.139C232.084 321.304 232.907 322.882 233.763 321.288C233.793 321.23 233.778 319.04 234.069 320.631C234.088 320.74 233.82 321.746 234.248 321.809C234.677 321.873 235.516 323.022 236.076 321.989C236.211 321.741 236.518 319.952 236.851 321.332C236.896 321.519 236.873 322.148 236.94 322.496C237.155 323.604 237.185 321.388 237.455 323.261C237.726 325.134 238.211 326.528 238.767 325.213C238.785 325.174 238.871 323.416 239.06 323.438C239.36 323.475 239.797 323.827 240.109 323.806C240.258 323.795 240.129 322.709 240.154 322.688C241.141 322.047 241.887 322.995 242.978 323.383C243.178 323.456 243.7 321.954 244.119 323.116C244.579 324.388 244.313 329.748 245.239 328.444C245.613 327.923 245.895 321.124 246.704 324.617C248.034 323.704 249.345 325.464 250.667 324.178C250.727 324.121 250.861 322.222 251.006 322.243C251.221 322.278 251.366 323.16 251.52 323.213C252.167 323.46 252.729 322.685 253.348 322.783C253.584 322.819 253.53 323.736 253.811 323.779C254.091 323.82 254.24 322.61 254.636 323.18C254.935 323.615 255.297 326.068 255.684 326.343C255.623 323.914 255.885 323.956 256.328 323.3C256.413 323.173 256.291 322.331 256.33 322.227C256.488 321.786 256.668 322.482 256.815 322.002C256.851 321.887 256.828 321.058 256.856 320.917C257.092 319.687 257.603 321.538 257.691 321.861C258.027 323.085 258.133 322.002 258.376 322.481C258.62 322.96 258.297 323.578 258.573 323.864C259.144 324.457 259.85 324.301 260.412 324.321C260.637 324.325 260.45 323.222 260.481 323.197C260.935 322.902 261.44 324.065 261.628 321.851C262.126 327.544 261.89 321.29 262.587 322.411C262.642 322.501 262.792 325.196 262.604 325.598C262.417 326 262.087 325.166 261.828 325.792C261.767 325.939 261.469 328.478 261.422 328.632C261.057 329.841 260.875 325.813 260.847 325.592C260.531 323.211 260.155 325.948 260.04 326.14C259.512 327.019 259.023 326.467 258.579 327.096C258.288 327.504 258.34 330.144 258.099 330.071C257.299 329.828 256.909 326.154 256.262 329.371C256.123 330.057 256.371 332.937 255.728 330.686C255.687 330.544 255.197 328.482 254.992 329.802C254.966 329.969 254.993 330.809 254.955 330.881C254.696 331.347 254.493 330.682 254.206 331.013C253.919 331.343 253.576 331.832 253.228 331.557C253.018 331.393 252.706 329.835 252.597 329.454C252.286 328.358 252.046 330.179 251.833 328.846C251.618 327.507 251.892 325.454 251.412 324.599C251.464 326.784 251.495 329.028 251.536 331.226C250.541 331.18 249.542 330.504 248.549 330.631C248.426 330.649 248.588 331.819 248.457 331.869C247.905 332.073 247.391 331.251 246.822 331.602C246.382 331.879 245.929 333.138 245.469 333.465C245.105 330.974 244.436 331.845 243.924 331.632C243.744 331.559 243.735 330.891 243.603 330.677C243.103 329.886 243.394 332.088 243.274 332.44C242.762 333.941 242.559 328.942 241.904 329.086C241.869 329.092 241.525 331.771 241.472 331.938C241.132 333.032 241.381 331.013 241.141 330.823C240.704 330.476 240.387 329.849 239.911 330.645C239.772 330.881 239.474 332.553 239.151 331.277C239.108 331.11 239.101 330.228 239.07 330.178C238.5 329.334 238.572 332.103 238.29 333.05C238.009 333.997 237.47 332.101 237.356 331.553C237.056 330.137 237.532 330.938 237.542 330.798C237.652 329.129 237.312 329.427 237.04 329.294C236.917 326.581 236.549 326.756 236.759 329.168C236.783 329.432 236.983 329.172 237.04 329.294C236.888 331.965 236.488 332.318 235.957 329.844C235.709 328.684 235.867 327.318 235.238 327.836C234.952 328.069 235.123 329.935 234.881 330.452C234.327 331.633 233.506 329.913 232.906 330.207C232.688 330.314 232.935 331.33 232.787 331.438C232.396 331.728 232.018 330.971 231.628 331.377C231.593 331.415 231.715 332.483 231.591 332.501C230.647 332.655 229.8 331.994 228.809 332.006C228.33 332.012 227.494 332.629 226.994 332.526C226.129 332.353 225.025 330.829 224.303 331.23C223.832 331.487 223.97 332.555 223.788 333.291C223.436 334.718 222.657 332.206 222.55 331.816C222.547 331.803 222.951 331.538 222.714 330.995C222.551 329.853 222.555 331.811 222.55 331.816C222.481 331.565 221.651 331.347 221.494 331.557C221.408 331.672 221.489 332.685 221.444 332.725C220.373 333.668 219.279 333.96 218.149 333.52C218.129 333.5 218.123 332.364 218.076 332.331C217.414 331.847 217.044 333.248 216.537 334.089C216.03 334.93 215.599 334.667 215.223 332.728C214.829 332.986 214.226 332.142 213.878 331.63C213.53 331.117 213.552 333.328 213.524 333.373C212.657 334.799 212.092 333.551 211.141 333.384C210.689 333.3 209.808 333.648 209.33 333.905C208.952 334.112 208.704 333.601 208.36 333.943C208.314 333.989 208.393 334.971 208.379 335.009C208.021 336.199 208.136 333.788 208.041 333.361C207.697 331.808 207.488 330.982 207.005 331.732C206.893 331.904 206.661 335.378 206.454 335.587C206.186 335.852 206.252 334.608 205.971 334.917C205.947 334.943 205.976 335.708 205.797 335.68C204.962 335.559 204.044 335.142 203.184 335.245C203.066 335.257 203.255 336.466 203.086 336.503C202.292 336.671 201.415 336.654 200.619 336.109C200.423 335.971 200.517 335.117 200.468 334.866C200.165 333.346 199.872 335.577 199.814 335.621C198.422 336.733 197.27 334.757 195.848 335.759C195.771 335.818 195.236 338.216 194.901 336.184C194.879 336.048 194.545 333.969 194.352 335.404C194.34 335.493 194.541 336.563 194.245 336.463C193.95 336.363 193.503 337.095 193.064 335.926C192.926 335.558 192.561 333.484 192.233 335.157C192.212 335.273 191.744 339.046 191.454 336.462C191.407 336.037 191.358 333.294 190.949 334.714C190.871 334.989 191.047 335.596 190.831 335.985C190.5 336.584 190.015 335.864 189.624 337.099C189.556 337.317 189.296 339.188 188.997 337.783C188.95 337.563 188.997 336.646 188.859 336.548C188.203 336.076 187.55 336.709 186.879 336.096C186.642 335.881 186.714 334.398 186.461 334.009C186.208 333.62 185.712 333.254 185.481 333.938C185.25 334.622 185.599 336.971 185.227 337.172C183.614 338.042 181.947 336.709 180.304 336.558C180.061 336.535 180.288 337.372 179.931 337.4C178.614 337.503 176.362 338.365 175.162 336.608C174.2 335.2 175.32 334.071 174.601 333.509C174.255 333.24 173.974 335.993 173.895 336.082C173.125 336.983 172.533 335.786 171.827 336.181C171.681 336.263 171.861 337.37 171.736 337.427C171.312 337.633 170.843 337.151 170.435 337.255C170.251 337.304 170.312 338.151 170.14 338.091C169.728 337.957 169.358 337.611 168.937 336.828C168.898 336.757 169.109 335.693 168.807 335.664C168.318 335.618 167.69 334.852 167.155 335.68C166.996 335.929 167.05 337.869 166.651 336.54C166.567 336.263 166.59 333.931 166.237 335.956C166.177 336.293 165.562 339.029 165.165 337.29C165.06 336.832 164.77 334.933 164.579 335.239C164.554 335.288 164.694 336.326 164.532 336.433C163.959 336.791 163.344 336.699 162.754 337.044C162.597 337.138 162.869 338.209 162.633 338.315C161.985 338.607 161.157 338.358 160.505 338.041C160.264 337.922 160.4 337.024 160.38 336.927C160.054 335.355 159.956 337.494 159.868 337.621C159.32 338.384 158.854 337.395 158.335 337.676C158.192 337.751 158.327 338.766 158.3 338.857C158.028 339.753 158.195 337.919 157.998 337.723C157.449 337.17 156.858 337.27 156.324 337.417C156.127 337.472 156.386 338.645 156.21 338.681C155.166 338.917 154.071 338.838 153.026 338.219C152.829 338.101 152.922 337.189 152.875 336.982C152.553 335.539 152.208 337.532 152.121 337.723C151.722 338.598 151.532 337.8 151.162 337.961C149.351 338.765 147.071 338.303 145.33 338.028C143.061 337.675 141.284 336.865 139.14 337.156C139.004 337.174 139.179 338.378 139.062 338.408C137.55 338.747 136.038 338.321 134.524 338.718C134.4 338.748 134.616 339.888 134.417 339.975C134.011 340.162 133.487 340.116 133.06 339.763C132.851 339.593 133.093 338.602 132.884 338.451C132.396 338.097 131.883 338.032 131.4 338.23C131.194 338.317 131.545 339.479 131.275 339.501C129.436 339.675 127.633 339.933 125.724 338.473C125.593 338.373 125.407 335.995 125.15 336.461C125.15 337.122 125.175 337.899 125.188 338.606C122.518 339.07 119.838 338.327 117.145 338.283C117.031 338.281 117.266 339.536 117.047 339.54C115.775 339.561 114.552 339.948 113.214 338.735C113.081 338.616 113.078 336.395 112.709 336.742C112.644 336.805 112.08 337.119 111.947 337.606C111.93 337.679 112.066 338.712 111.883 338.748C110.816 338.938 109.685 338.737 108.596 338.137C108.42 338.038 108.569 336.929 108.444 336.849C107.553 336.291 106.63 337.159 105.765 336.183C105.187 335.526 105.334 333.612 104.979 331.744C104.929 331.481 104.582 331.45 104.53 330.358C104.399 327.613 104.473 324.601 104.313 321.675C104.279 321.045 103.838 321.739 104.064 320.207C104.08 320.104 104.4 319.588 104.467 319.068C104.513 318.709 104.375 317.602 104.478 317.141C104.581 316.68 104.739 317.607 104.917 317.064C105.095 316.513 104.97 315.252 105.354 315.091ZM212.312 329.34C211.971 328.288 212.047 332.176 212.35 331.236C212.365 331.186 212.329 329.391 212.312 329.34ZM249.456 327.572C249.002 325.87 248.805 328.399 249.129 329.714C249.454 331.028 249.595 328.088 249.456 327.572ZM253.582 326.191C253.07 324.854 253.168 330.367 253.636 329.238C253.663 329.174 253.611 326.269 253.582 326.191ZM106.338 331.167C106.332 331.116 106.082 331.073 106.077 331.124C105.984 332.363 106.483 332.447 106.338 331.167ZM257.671 324.7C257.502 323.959 257.107 324.833 257.317 325.754C257.487 326.496 257.883 325.622 257.671 324.7ZM196.16 325.69C196.153 325.632 195.973 325.585 195.987 325.913C196.032 326.967 196.271 326.661 196.16 325.69ZM264.692 324.419C263.648 324.244 262.878 319.711 264.024 320.189C264.231 320.276 263.628 321.655 263.901 322.057C264.401 322.79 264.628 319.922 265.162 321.438C265.259 321.716 264.752 324.439 264.691 324.425C264.691 324.423 264.692 324.421 264.692 324.419ZM211.99 324.677C211.982 324.626 211.734 324.585 211.73 324.636C211.634 325.874 212.134 325.958 211.99 324.677ZM185.694 323.609C185.677 323.5 185.102 323.416 185.086 323.517C184.85 325.544 186.014 325.721 185.694 323.609ZM228.504 321.318C228.734 320.068 229.051 319.912 229.314 321.464C229.044 321.39 228.775 321.386 228.504 321.318Z" fill="#C6A77D"/>
<path d="M61.2198 106L61.2198 206" stroke="#C6A77D" stroke-width="6" stroke-linecap="square"/>
<path opacity="0.5" d="M7.71979 137C206.053 156.5 573.249 218.577 606.22 362C626.22 449 632.252 566.259 770.72 643C978.22 758 1249.22 662.167 1450.72 676.5" stroke="url(#paint3_linear_731_82)" stroke-width="5"/>
<path opacity="0.5" d="M6.71979 159.5C205.053 179 573.249 241.577 606.22 385C626.22 472 632.252 589.259 770.72 666C978.22 781 1249.22 685.167 1450.72 699.5" stroke="url(#paint4_linear_731_82)" stroke-width="5"/>
<path opacity="0.5" d="M8.21979 175C206.553 194.5 570.249 256.577 603.22 400C623.22 487 629.252 604.259 767.72 681C975.22 796 1246.22 700.167 1447.72 714.5" stroke="url(#paint5_linear_731_82)" stroke-width="5"/>
<path d="M1.35389 354.091C2.24558 353.724 3.43946 354.049 4.35368 354.518C4.64014 354.664 4.5189 355.357 4.71761 355.488C5.10623 355.744 5.45003 355.395 5.83576 355.703C5.9637 355.808 5.84254 356.904 5.97592 356.989C6.70654 357.449 7.37495 357.15 8.10711 357.36C11.7136 358.393 15.2365 358.694 18.8665 359.078C20.0634 359.204 21.543 360.149 22.7606 359.678C22.9027 359.622 22.7873 358.667 22.8122 358.587C23.2035 357.366 23.121 359.304 23.4089 359.552C24.5518 360.531 25.7903 360.581 26.8483 360.178C27.2983 360.004 26.7831 358.116 27.2744 359.17C27.3084 359.241 27.2246 360.261 27.3527 360.366C27.6433 360.601 28.1745 360.403 28.3963 360.476C28.824 360.624 28.8936 360.611 29.2937 360.611C29.841 360.618 30.5067 361.104 31.086 360.855C31.2095 360.799 31.0114 359.762 31.2055 359.578C31.3998 359.395 31.9311 359.467 32.1169 359.707C32.3028 359.947 32.2523 360.769 32.2897 360.956C32.5984 362.533 33.1416 360.318 33.2186 360.262C34.6241 359.292 35.8929 360.504 37.2391 360.459C38.261 360.422 39.341 359.975 40.3153 360.002C41.4761 360.037 42.4756 360.571 43.5982 360.439C43.7167 360.427 43.5394 359.205 43.6841 359.187C45.2211 358.997 46.7559 359.083 48.3164 359.863C48.4729 359.942 48.3079 361.024 48.4663 361.168C49.4353 362.023 50.991 364.101 51.4046 359.398C52.0481 359.561 52.8282 359.726 53.4281 360.653C53.8148 361.25 53.4939 362.433 53.9303 361.919C54.0287 361.804 53.8643 360.782 54.0144 360.687C54.6462 360.292 55.3596 360.604 55.9797 360.053C56.1058 359.939 56.0419 359.02 56.0734 358.853C56.3401 357.502 56.9223 359.704 57.0392 359.862C57.9286 361.037 58.5361 360.545 59.3308 360.549C59.5153 360.551 59.2591 359.322 59.4352 359.279C60.349 359.073 61.3046 359.15 62.2218 359.67C62.4259 359.789 62.2745 360.848 62.3737 360.958C62.8107 361.433 62.8425 359.442 63.2605 359.859C63.3485 359.944 63.3284 360.847 63.3471 360.945C63.6388 362.491 63.782 360.284 63.8432 360.233C64.6149 359.544 65.1927 361.827 65.948 361.477C66.0383 361.433 65.7964 360.3 66.0524 360.245C67.7575 359.877 69.5809 360.134 71.3066 360.993C71.5749 361.126 71.4131 361.988 71.433 362.093C71.7549 363.734 71.8614 361.518 71.9448 361.433C72.6051 360.812 73.2969 362.646 73.6764 359.999C76.5799 360.823 79.3959 359.256 82.3206 361.526C82.3577 361.552 82.3266 362.643 82.4004 362.691C83.2903 363.275 83.0705 361.588 83.5825 359.501C83.7116 358.977 84.2307 361.461 84.2755 361.643C84.4388 362.314 84.3415 363.938 84.3932 364.067C84.8195 365.081 84.5889 359.727 85.121 359.709C85.1379 359.717 85.0986 360.705 85.1463 360.802C85.2946 361.105 85.42 360.709 85.5663 361.044C85.9015 361.82 86.093 364.419 86.5206 362.89C86.5745 362.691 86.3884 359.656 86.868 359.785C87.0592 359.839 87.896 359.76 88.1371 359.95C88.3779 360.139 88.2472 361.124 88.2652 361.165C88.9378 362.44 88.7146 362.984 89.091 364.891C89.467 366.791 89.2378 362.239 89.3511 361.727C89.4647 361.216 89.9615 362.27 90.087 362.638C90.2124 363.006 90.0897 363.632 90.1974 363.839C90.9115 365.192 90.4219 361.57 90.6207 360.84C91.0891 359.112 91.6002 362.477 92.0879 362.793C92.2199 362.878 92.0906 362.112 92.2034 362.037C92.6504 361.748 92.9572 362.793 93.4455 361.811C93.5255 361.651 93.8814 359.607 94.1989 361.089C94.244 361.303 94.161 362.148 94.3611 362.33C94.6599 362.604 95.1883 362.772 95.4914 362.481C95.7151 362.266 95.4082 360.887 95.7113 361.309C95.8461 361.497 95.6326 362.316 95.8837 362.602C96.1334 362.888 96.7477 362.834 96.9809 362.798C97.2138 362.762 97.0532 361.714 97.0699 361.643C97.1715 361.233 97.6044 360.712 97.644 360.712C99.6394 360.522 101.538 362.238 103.467 361.59C103.618 361.541 103.482 360.435 103.505 360.416C104.013 359.935 103.692 362.897 104.088 363.873C103.966 361.624 104.194 362.024 104.555 361.766C104.728 361.64 104.605 360.771 104.618 360.681C104.84 359.349 105.077 361.054 105.135 361.402C105.349 362.683 105.492 361.157 105.637 362.014C105.782 362.864 105.548 364.138 105.901 364.111C105.975 363.302 105.648 361.204 105.905 360.854C106.877 359.532 108.818 361.125 109.637 361.272C110.454 361.418 110.712 361.261 111.194 361.538C112.066 362.038 111.704 360.485 112.212 359.753C112.722 359.022 112.583 362.874 112.685 363.698C112.786 364.522 112.842 363.669 112.949 364.12C113.056 364.571 112.872 365.14 113.097 365.303C113.321 365.467 113.875 363.979 113.925 363.112C114.033 361.276 113.703 359.363 114.304 360.02C114.339 360.059 114.262 361.073 114.393 361.172C115.431 361.918 116.486 361.934 117.521 362.591C117.663 362.683 117.574 363.811 117.657 363.877C118.524 364.57 118.163 362.684 118.56 360.563C118.543 363.369 118.853 365.076 119.494 365.073C119.88 365.072 119.775 363.85 119.998 362.979C120.064 362.717 120.363 363.549 120.395 362.971C120.499 361.084 120.177 358.985 120.864 359.804C120.894 359.843 120.833 360.876 120.936 360.935C121.596 361.323 121.612 359.352 122.305 359.092C122.847 358.888 123.86 360.058 124.491 360.234C124.576 363.386 125.143 362.646 125.315 360.466C125.724 360.542 126.158 360.406 126.559 360.694C126.697 360.792 126.636 361.707 126.657 361.805C126.965 363.344 127.076 361.224 127.161 361.139C128.084 360.304 128.907 361.882 129.763 360.288C129.793 360.23 129.778 358.04 130.069 359.631C130.088 359.74 129.82 360.746 130.248 360.809C130.677 360.873 131.516 362.022 132.076 360.989C132.211 360.741 132.518 358.952 132.851 360.332C132.896 360.519 132.873 361.148 132.94 361.496C133.155 362.604 133.185 360.388 133.455 362.261C133.726 364.134 134.211 365.528 134.767 364.213C134.785 364.174 134.871 362.416 135.06 362.438C135.36 362.475 135.797 362.827 136.109 362.806C136.258 362.795 136.129 361.709 136.154 361.688C137.141 361.047 137.887 361.995 138.978 362.383C139.178 362.456 139.7 360.954 140.119 362.116C140.579 363.388 140.313 368.748 141.239 367.444C141.613 366.923 141.895 360.124 142.704 363.617C144.034 362.704 145.345 364.464 146.667 363.178C146.727 363.121 146.861 361.222 147.006 361.243C147.221 361.278 147.366 362.16 147.52 362.213C148.167 362.46 148.729 361.685 149.348 361.783C149.584 361.819 149.53 362.736 149.811 362.779C150.091 362.82 150.24 361.61 150.636 362.18C150.935 362.615 151.297 365.068 151.684 365.343C151.623 362.914 151.885 362.956 152.328 362.3C152.413 362.173 152.291 361.331 152.33 361.227C152.488 360.786 152.668 361.482 152.815 361.002C152.851 360.887 152.828 360.058 152.856 359.917C153.092 358.687 153.603 360.538 153.691 360.861C154.027 362.085 154.133 361.002 154.376 361.481C154.62 361.96 154.297 362.578 154.573 362.864C155.144 363.457 155.85 363.301 156.412 363.321C156.637 363.325 156.45 362.222 156.481 362.197C156.935 361.902 157.44 363.065 157.628 360.851C158.126 366.544 157.89 360.29 158.587 361.411C158.642 361.501 158.792 364.196 158.604 364.598C158.417 365 158.087 364.166 157.828 364.792C157.767 364.939 157.469 367.478 157.422 367.632C157.057 368.841 156.875 364.813 156.847 364.592C156.531 362.211 156.155 364.948 156.04 365.14C155.512 366.019 155.023 365.467 154.579 366.096C154.288 366.504 154.34 369.144 154.099 369.071C153.299 368.828 152.909 365.154 152.262 368.371C152.123 369.057 152.371 371.937 151.728 369.686C151.687 369.544 151.197 367.482 150.992 368.802C150.966 368.969 150.993 369.809 150.955 369.881C150.696 370.347 150.493 369.682 150.206 370.013C149.919 370.343 149.576 370.832 149.228 370.557C149.018 370.393 148.706 368.835 148.597 368.454C148.286 367.358 148.046 369.179 147.833 367.846C147.618 366.507 147.892 364.454 147.412 363.599C147.464 365.784 147.495 368.028 147.536 370.226C146.541 370.18 145.542 369.504 144.549 369.631C144.426 369.649 144.588 370.819 144.457 370.869C143.905 371.073 143.391 370.251 142.822 370.602C142.382 370.879 141.929 372.138 141.469 372.465C141.105 369.974 140.436 370.845 139.924 370.632C139.744 370.559 139.735 369.891 139.603 369.677C139.103 368.886 139.394 371.088 139.274 371.44C138.762 372.941 138.559 367.942 137.904 368.086C137.869 368.092 137.525 370.771 137.472 370.938C137.132 372.032 137.381 370.013 137.141 369.823C136.704 369.476 136.387 368.849 135.911 369.645C135.772 369.881 135.474 371.553 135.151 370.277C135.108 370.11 135.101 369.228 135.07 369.178C134.5 368.334 134.572 371.103 134.29 372.05C134.009 372.997 133.47 371.101 133.356 370.553C133.056 369.137 133.532 369.938 133.542 369.798C133.652 368.129 133.312 368.427 133.04 368.294C132.917 365.581 132.549 365.756 132.759 368.168C132.783 368.432 132.983 368.172 133.04 368.294C132.888 370.965 132.488 371.318 131.957 368.844C131.709 367.684 131.867 366.318 131.238 366.836C130.952 367.069 131.123 368.935 130.881 369.452C130.327 370.633 129.506 368.913 128.906 369.207C128.688 369.314 128.935 370.33 128.787 370.438C128.396 370.728 128.018 369.971 127.628 370.377C127.593 370.415 127.715 371.483 127.591 371.501C126.647 371.655 125.8 370.994 124.809 371.006C124.33 371.012 123.494 371.629 122.994 371.526C122.129 371.353 121.025 369.829 120.303 370.23C119.832 370.487 119.97 371.555 119.788 372.291C119.436 373.718 118.657 371.206 118.55 370.816C118.547 370.803 118.951 370.538 118.714 369.995C118.551 368.853 118.555 370.811 118.55 370.816C118.481 370.565 117.651 370.347 117.494 370.557C117.408 370.672 117.489 371.685 117.444 371.725C116.373 372.668 115.279 372.96 114.149 372.52C114.129 372.5 114.123 371.364 114.076 371.331C113.414 370.847 113.044 372.248 112.537 373.089C112.03 373.93 111.599 373.667 111.223 371.728C110.829 371.986 110.226 371.142 109.878 370.63C109.53 370.117 109.552 372.328 109.524 372.373C108.657 373.799 108.092 372.551 107.141 372.384C106.689 372.3 105.808 372.648 105.33 372.905C104.952 373.112 104.704 372.601 104.36 372.943C104.314 372.989 104.393 373.971 104.379 374.009C104.021 375.199 104.136 372.788 104.041 372.361C103.697 370.808 103.488 369.982 103.005 370.732C102.893 370.904 102.661 374.378 102.454 374.587C102.186 374.852 102.252 373.608 101.971 373.917C101.947 373.943 101.976 374.708 101.797 374.68C100.962 374.559 100.044 374.142 99.1838 374.245C99.0663 374.257 99.255 375.466 99.0858 375.503C98.2917 375.671 97.415 375.654 96.6194 375.109C96.4235 374.971 96.5171 374.117 96.4677 373.866C96.165 372.346 95.8721 374.577 95.8137 374.621C94.4224 375.733 93.2699 373.757 91.8478 374.759C91.7706 374.818 91.2362 377.216 90.9014 375.184C90.8786 375.048 90.5452 372.969 90.3522 374.404C90.3402 374.493 90.5409 375.563 90.2455 375.463C89.9501 375.363 89.5025 376.095 89.0645 374.926C88.9259 374.558 88.5608 372.484 88.2334 374.157C88.2123 374.273 87.7438 378.046 87.4545 375.462C87.4074 375.037 87.3577 372.294 86.949 373.714C86.871 373.989 87.0469 374.596 86.831 374.985C86.5004 375.584 86.0154 374.864 85.6244 376.099C85.5563 376.317 85.2957 378.188 84.9965 376.783C84.9496 376.563 84.9972 375.646 84.8591 375.548C84.2025 375.076 83.55 375.709 82.8791 375.096C82.6416 374.881 82.7136 373.398 82.4608 373.009C82.208 372.62 81.7117 372.254 81.4811 372.938C81.2505 373.622 81.5986 375.971 81.2275 376.172C79.6139 377.042 77.9473 375.709 76.3045 375.558C76.0608 375.535 76.2882 376.372 75.931 376.4C74.6141 376.503 72.3618 377.365 71.1617 375.608C70.2002 374.2 71.3201 373.071 70.6013 372.509C70.2545 372.24 69.9739 374.993 69.8949 375.082C69.1248 375.983 68.533 374.786 67.8269 375.181C67.6811 375.263 67.861 376.37 67.7365 376.427C67.3117 376.633 66.8435 376.151 66.4346 376.255C66.2513 376.304 66.3117 377.151 66.1397 377.091C65.7285 376.957 65.3578 376.611 64.9367 375.828C64.8984 375.757 65.1092 374.693 64.8071 374.664C64.3183 374.618 63.6896 373.852 63.1545 374.68C62.9959 374.929 63.0496 376.869 62.6507 375.54C62.5671 375.263 62.5904 372.931 62.2367 374.956C62.1771 375.293 61.5622 378.029 61.1648 376.29C61.0599 375.832 60.7697 373.933 60.5791 374.239C60.5535 374.288 60.6945 375.326 60.532 375.433C59.9588 375.791 59.3436 375.699 58.754 376.044C58.5967 376.138 58.8686 377.209 58.633 377.315C57.9851 377.607 57.1571 377.358 56.5048 377.041C56.2643 376.922 56.4001 376.024 56.3799 375.927C56.0539 374.355 55.9565 376.494 55.8684 376.621C55.32 377.384 54.8537 376.395 54.3351 376.676C54.1919 376.751 54.3266 377.766 54.3005 377.857C54.0278 378.753 54.1947 376.919 53.9984 376.723C53.4485 376.17 52.8577 376.27 52.3235 376.417C52.1274 376.472 52.3862 377.645 52.2097 377.681C51.1659 377.917 50.0707 377.838 49.0257 377.219C48.8288 377.101 48.922 376.189 48.8754 375.982C48.5531 374.539 48.2084 376.532 48.1207 376.723C47.7224 377.598 47.5324 376.8 47.1617 376.961C45.3513 377.765 43.0707 377.303 41.3297 377.028C39.0611 376.675 37.2841 375.865 35.1403 376.156C35.004 376.174 35.1794 377.378 35.0624 377.408C33.55 377.747 32.0376 377.321 30.524 377.718C30.3997 377.748 30.6156 378.888 30.4173 378.975C30.0109 379.162 29.4873 379.116 29.0595 378.763C28.8509 378.593 29.0928 377.602 28.8835 377.451C28.396 377.097 27.8833 377.032 27.4 377.23C27.1944 377.317 27.5448 378.479 27.2747 378.501C25.436 378.675 23.6329 378.933 21.7241 377.473C21.5932 377.373 21.4073 374.995 21.1501 375.461C21.1502 376.122 21.1754 376.899 21.1885 377.606C18.5183 378.07 15.8382 377.327 13.1447 377.283C13.0312 377.281 13.2663 378.536 13.0467 378.54C11.7755 378.561 10.5525 378.948 9.21386 377.735C9.0811 377.616 9.07833 375.395 8.70873 375.742C8.64361 375.805 8.08045 376.119 7.94743 376.606C7.92959 376.679 8.06618 377.712 7.88269 377.748C6.81578 377.938 5.68525 377.737 4.59566 377.137C4.41974 377.038 4.56937 375.929 4.44378 375.849C3.55316 375.291 2.63024 376.159 1.76548 375.183C1.18652 374.526 1.33389 372.612 0.97907 370.744C0.928905 370.481 0.58206 370.45 0.530273 369.358C0.399107 366.613 0.473084 363.601 0.313496 360.675C0.279405 360.045 -0.162273 360.739 0.0643958 359.207C0.0803699 359.104 0.400175 358.588 0.466758 358.068C0.513194 357.709 0.375021 356.602 0.478201 356.141C0.581385 355.68 0.739284 356.607 0.917203 356.064C1.09483 355.513 0.970053 354.252 1.35389 354.091ZM108.312 368.34C107.971 367.288 108.047 371.176 108.35 370.236C108.365 370.186 108.329 368.391 108.312 368.34ZM145.456 366.572C145.002 364.87 144.805 367.399 145.129 368.714C145.454 370.028 145.595 367.088 145.456 366.572ZM149.582 365.191C149.07 363.854 149.168 369.367 149.636 368.238C149.663 368.174 149.611 365.269 149.582 365.191ZM2.33759 370.167C2.33175 370.116 2.0818 370.073 2.07745 370.124C1.98352 371.363 2.48329 371.447 2.33759 370.167ZM153.671 363.7C153.502 362.959 153.107 363.833 153.317 364.754C153.487 365.496 153.883 364.622 153.671 363.7ZM92.1597 364.69C92.1531 364.632 91.9734 364.585 91.9871 364.913C92.032 365.967 92.2705 365.661 92.1597 364.69ZM160.692 363.419C159.648 363.244 158.878 358.711 160.024 359.189C160.231 359.276 159.628 360.655 159.901 361.057C160.401 361.79 160.628 358.922 161.162 360.438C161.259 360.716 160.752 363.439 160.691 363.425C160.691 363.423 160.692 363.421 160.692 363.419ZM107.99 363.677C107.982 363.626 107.734 363.585 107.73 363.636C107.634 364.874 108.134 364.958 107.99 363.677ZM81.694 362.609C81.677 362.5 81.1017 362.416 81.0862 362.517C80.8504 364.544 82.0136 364.721 81.694 362.609ZM124.504 360.318C124.734 359.068 125.051 358.912 125.314 360.464C125.044 360.39 124.775 360.386 124.504 360.318Z" fill="#C6A77D"/>
<path d="M6.35389 386.091C7.24558 385.724 8.43946 386.049 9.35368 386.518C9.64014 386.664 9.5189 387.357 9.71761 387.488C10.1062 387.744 10.45 387.395 10.8358 387.703C10.9637 387.808 10.8425 388.904 10.9759 388.989C11.7065 389.449 12.3749 389.15 13.1071 389.36C16.7136 390.393 20.2365 390.694 23.8665 391.078C25.0634 391.204 26.543 392.149 27.7606 391.678C27.9027 391.622 27.7873 390.667 27.8122 390.587C28.2035 389.366 28.121 391.304 28.4089 391.552C29.5518 392.531 30.7903 392.581 31.8483 392.178C32.2983 392.004 31.7831 390.116 32.2744 391.17C32.3084 391.241 32.2246 392.261 32.3527 392.366C32.6433 392.601 33.1745 392.403 33.3963 392.476C33.824 392.624 33.8936 392.611 34.2937 392.611C34.841 392.618 35.5067 393.104 36.086 392.855C36.2095 392.799 36.0114 391.762 36.2055 391.578C36.3998 391.395 36.9311 391.467 37.1169 391.707C37.3028 391.947 37.2523 392.769 37.2897 392.956C37.5984 394.533 38.1416 392.318 38.2186 392.262C39.6241 391.292 40.8929 392.504 42.2391 392.459C43.261 392.422 44.341 391.975 45.3153 392.002C46.4761 392.037 47.4756 392.571 48.5982 392.439C48.7167 392.427 48.5394 391.205 48.6841 391.187C50.2211 390.997 51.7559 391.083 53.3164 391.863C53.4729 391.942 53.3079 393.024 53.4663 393.168C54.4353 394.023 55.991 396.101 56.4046 391.398C57.0481 391.561 57.8282 391.726 58.4281 392.653C58.8148 393.25 58.4939 394.433 58.9303 393.919C59.0287 393.804 58.8643 392.782 59.0144 392.687C59.6462 392.292 60.3596 392.604 60.9797 392.053C61.1058 391.939 61.0419 391.02 61.0734 390.853C61.3401 389.502 61.9223 391.704 62.0392 391.862C62.9286 393.037 63.5361 392.545 64.3308 392.549C64.5153 392.551 64.2591 391.322 64.4352 391.279C65.349 391.073 66.3046 391.15 67.2218 391.67C67.4259 391.789 67.2745 392.848 67.3737 392.958C67.8107 393.433 67.8425 391.442 68.2605 391.859C68.3485 391.944 68.3284 392.847 68.3471 392.945C68.6388 394.491 68.782 392.284 68.8432 392.233C69.6149 391.544 70.1927 393.827 70.948 393.477C71.0383 393.433 70.7964 392.3 71.0524 392.245C72.7575 391.877 74.5809 392.134 76.3066 392.993C76.5749 393.126 76.4131 393.988 76.433 394.093C76.7549 395.734 76.8614 393.518 76.9448 393.433C77.6051 392.812 78.2969 394.646 78.6764 391.999C81.5799 392.823 84.3959 391.256 87.3206 393.526C87.3577 393.552 87.3266 394.643 87.4004 394.691C88.2903 395.275 88.0705 393.588 88.5825 391.501C88.7116 390.977 89.2307 393.461 89.2755 393.643C89.4388 394.314 89.3415 395.938 89.3932 396.067C89.8195 397.081 89.5889 391.727 90.121 391.709C90.1379 391.717 90.0986 392.705 90.1463 392.802C90.2946 393.105 90.42 392.709 90.5663 393.044C90.9015 393.82 91.093 396.419 91.5206 394.89C91.5745 394.691 91.3884 391.656 91.868 391.785C92.0592 391.839 92.896 391.76 93.1371 391.95C93.3779 392.139 93.2472 393.124 93.2652 393.165C93.9378 394.44 93.7146 394.984 94.091 396.891C94.467 398.791 94.2378 394.239 94.3511 393.727C94.4647 393.216 94.9615 394.27 95.087 394.638C95.2124 395.006 95.0897 395.632 95.1974 395.839C95.9115 397.192 95.4219 393.57 95.6207 392.84C96.0891 391.112 96.6002 394.477 97.0879 394.793C97.2199 394.878 97.0906 394.112 97.2034 394.037C97.6504 393.748 97.9572 394.793 98.4455 393.811C98.5255 393.651 98.8814 391.607 99.1989 393.089C99.244 393.303 99.161 394.148 99.3611 394.33C99.6599 394.604 100.188 394.772 100.491 394.481C100.715 394.266 100.408 392.887 100.711 393.309C100.846 393.497 100.633 394.316 100.884 394.602C101.133 394.888 101.748 394.834 101.981 394.798C102.214 394.762 102.053 393.714 102.07 393.643C102.172 393.233 102.604 392.712 102.644 392.712C104.639 392.522 106.538 394.238 108.467 393.59C108.618 393.541 108.482 392.435 108.505 392.416C109.013 391.935 108.692 394.897 109.088 395.873C108.966 393.624 109.194 394.024 109.555 393.766C109.728 393.64 109.605 392.771 109.618 392.681C109.84 391.349 110.077 393.054 110.135 393.402C110.349 394.683 110.492 393.157 110.637 394.014C110.782 394.864 110.548 396.138 110.901 396.111C110.975 395.302 110.648 393.204 110.905 392.854C111.877 391.532 113.818 393.125 114.637 393.272C115.454 393.418 115.712 393.261 116.194 393.538C117.066 394.038 116.704 392.485 117.212 391.753C117.722 391.022 117.583 394.874 117.685 395.698C117.786 396.522 117.842 395.669 117.949 396.12C118.056 396.571 117.872 397.14 118.097 397.303C118.321 397.467 118.875 395.979 118.925 395.112C119.033 393.276 118.703 391.363 119.304 392.02C119.339 392.059 119.262 393.073 119.393 393.172C120.431 393.918 121.486 393.934 122.521 394.591C122.663 394.683 122.574 395.811 122.657 395.877C123.524 396.57 123.163 394.684 123.56 392.563C123.543 395.369 123.853 397.076 124.494 397.073C124.88 397.072 124.775 395.85 124.998 394.979C125.064 394.717 125.363 395.549 125.395 394.971C125.499 393.084 125.177 390.985 125.864 391.804C125.894 391.843 125.833 392.876 125.936 392.935C126.596 393.323 126.612 391.352 127.305 391.092C127.847 390.888 128.86 392.058 129.491 392.234C129.576 395.386 130.143 394.646 130.315 392.466C130.724 392.542 131.158 392.406 131.559 392.694C131.697 392.792 131.636 393.707 131.657 393.805C131.965 395.344 132.076 393.224 132.161 393.139C133.084 392.304 133.907 393.882 134.763 392.288C134.793 392.23 134.778 390.04 135.069 391.631C135.088 391.74 134.82 392.746 135.248 392.809C135.677 392.873 136.516 394.022 137.076 392.989C137.211 392.741 137.518 390.952 137.851 392.332C137.896 392.519 137.873 393.148 137.94 393.496C138.155 394.604 138.185 392.388 138.455 394.261C138.726 396.134 139.211 397.528 139.767 396.213C139.785 396.174 139.871 394.416 140.06 394.438C140.36 394.475 140.797 394.827 141.109 394.806C141.258 394.795 141.129 393.709 141.154 393.688C142.141 393.047 142.887 393.995 143.978 394.383C144.178 394.456 144.7 392.954 145.119 394.116C145.579 395.388 145.313 400.748 146.239 399.444C146.613 398.923 146.895 392.124 147.704 395.617C149.034 394.704 150.345 396.464 151.667 395.178C151.727 395.121 151.861 393.222 152.006 393.243C152.221 393.278 152.366 394.16 152.52 394.213C153.167 394.46 153.729 393.685 154.348 393.783C154.584 393.819 154.53 394.736 154.811 394.779C155.091 394.82 155.24 393.61 155.636 394.18C155.935 394.615 156.297 397.068 156.684 397.343C156.623 394.914 156.885 394.956 157.328 394.3C157.413 394.173 157.291 393.331 157.33 393.227C157.488 392.786 157.668 393.482 157.815 393.002C157.851 392.887 157.828 392.058 157.856 391.917C158.092 390.687 158.603 392.538 158.691 392.861C159.027 394.085 159.133 393.002 159.376 393.481C159.62 393.96 159.297 394.578 159.573 394.864C160.144 395.457 160.85 395.301 161.412 395.321C161.637 395.325 161.45 394.222 161.481 394.197C161.935 393.902 162.44 395.065 162.628 392.851C163.126 398.544 162.89 392.29 163.587 393.411C163.642 393.501 163.792 396.196 163.604 396.598C163.417 397 163.087 396.166 162.828 396.792C162.767 396.939 162.469 399.478 162.422 399.632C162.057 400.841 161.875 396.813 161.847 396.592C161.531 394.211 161.155 396.948 161.04 397.14C160.512 398.019 160.023 397.467 159.579 398.096C159.288 398.504 159.34 401.144 159.099 401.071C158.299 400.828 157.909 397.154 157.262 400.371C157.123 401.057 157.371 403.937 156.728 401.686C156.687 401.544 156.197 399.482 155.992 400.802C155.966 400.969 155.993 401.809 155.955 401.881C155.696 402.347 155.493 401.682 155.206 402.013C154.919 402.343 154.576 402.832 154.228 402.557C154.018 402.393 153.706 400.835 153.597 400.454C153.286 399.358 153.046 401.179 152.833 399.846C152.618 398.507 152.892 396.454 152.412 395.599C152.464 397.784 152.495 400.028 152.536 402.226C151.541 402.18 150.542 401.504 149.549 401.631C149.426 401.649 149.588 402.819 149.457 402.869C148.905 403.073 148.391 402.251 147.822 402.602C147.382 402.879 146.929 404.138 146.469 404.465C146.105 401.974 145.436 402.845 144.924 402.632C144.744 402.559 144.735 401.891 144.603 401.677C144.103 400.886 144.394 403.088 144.274 403.44C143.762 404.941 143.559 399.942 142.904 400.086C142.869 400.092 142.525 402.771 142.472 402.938C142.132 404.032 142.381 402.013 142.141 401.823C141.704 401.476 141.387 400.849 140.911 401.645C140.772 401.881 140.474 403.553 140.151 402.277C140.108 402.11 140.101 401.228 140.07 401.178C139.5 400.334 139.572 403.103 139.29 404.05C139.009 404.997 138.47 403.101 138.356 402.553C138.056 401.137 138.532 401.938 138.542 401.798C138.652 400.129 138.312 400.427 138.04 400.294C137.917 397.581 137.549 397.756 137.759 400.168C137.783 400.432 137.983 400.172 138.04 400.294C137.888 402.965 137.488 403.318 136.957 400.844C136.709 399.684 136.867 398.318 136.238 398.836C135.952 399.069 136.123 400.935 135.881 401.452C135.327 402.633 134.506 400.913 133.906 401.207C133.688 401.314 133.935 402.33 133.787 402.438C133.396 402.728 133.018 401.971 132.628 402.377C132.593 402.415 132.715 403.483 132.591 403.501C131.647 403.655 130.8 402.994 129.809 403.006C129.33 403.012 128.494 403.629 127.994 403.526C127.129 403.353 126.025 401.829 125.303 402.23C124.832 402.487 124.97 403.555 124.788 404.291C124.436 405.718 123.657 403.206 123.55 402.816C123.547 402.803 123.951 402.538 123.714 401.995C123.551 400.853 123.555 402.811 123.55 402.816C123.481 402.565 122.651 402.347 122.494 402.557C122.408 402.672 122.489 403.685 122.444 403.725C121.373 404.668 120.279 404.96 119.149 404.52C119.129 404.5 119.123 403.364 119.076 403.331C118.414 402.847 118.044 404.248 117.537 405.089C117.03 405.93 116.599 405.667 116.223 403.728C115.829 403.986 115.226 403.142 114.878 402.63C114.53 402.117 114.552 404.328 114.524 404.373C113.657 405.799 113.092 404.551 112.141 404.384C111.689 404.3 110.808 404.648 110.33 404.905C109.952 405.112 109.704 404.601 109.36 404.943C109.314 404.989 109.393 405.971 109.379 406.009C109.021 407.199 109.136 404.788 109.041 404.361C108.697 402.808 108.488 401.982 108.005 402.732C107.893 402.904 107.661 406.378 107.454 406.587C107.186 406.852 107.252 405.608 106.971 405.917C106.947 405.943 106.976 406.708 106.797 406.68C105.962 406.559 105.044 406.142 104.184 406.245C104.066 406.257 104.255 407.466 104.086 407.503C103.292 407.671 102.415 407.654 101.619 407.109C101.423 406.971 101.517 406.117 101.468 405.866C101.165 404.346 100.872 406.577 100.814 406.621C99.4224 407.733 98.2699 405.757 96.8478 406.759C96.7706 406.818 96.2362 409.216 95.9014 407.184C95.8786 407.048 95.5452 404.969 95.3522 406.404C95.3402 406.493 95.5409 407.563 95.2455 407.463C94.9501 407.363 94.5025 408.095 94.0645 406.926C93.9259 406.558 93.5608 404.484 93.2334 406.157C93.2123 406.273 92.7438 410.046 92.4545 407.462C92.4074 407.037 92.3577 404.294 91.949 405.714C91.871 405.989 92.0469 406.596 91.831 406.985C91.5004 407.584 91.0154 406.864 90.6244 408.099C90.5563 408.317 90.2957 410.188 89.9965 408.783C89.9496 408.563 89.9972 407.646 89.8591 407.548C89.2025 407.076 88.55 407.709 87.8791 407.096C87.6416 406.881 87.7136 405.398 87.4608 405.009C87.208 404.62 86.7117 404.254 86.4811 404.938C86.2505 405.622 86.5986 407.971 86.2275 408.172C84.6139 409.042 82.9473 407.709 81.3045 407.558C81.0608 407.535 81.2882 408.372 80.931 408.4C79.6141 408.503 77.3618 409.365 76.1617 407.608C75.2002 406.2 76.3201 405.071 75.6013 404.509C75.2545 404.24 74.9739 406.993 74.8949 407.082C74.1248 407.983 73.533 406.786 72.8269 407.181C72.6811 407.263 72.861 408.37 72.7365 408.427C72.3117 408.633 71.8435 408.151 71.4346 408.255C71.2513 408.304 71.3117 409.151 71.1397 409.091C70.7285 408.957 70.3578 408.611 69.9367 407.828C69.8984 407.757 70.1092 406.693 69.8071 406.664C69.3183 406.618 68.6896 405.852 68.1545 406.68C67.9959 406.929 68.0496 408.869 67.6507 407.54C67.5671 407.263 67.5904 404.931 67.2367 406.956C67.1771 407.293 66.5622 410.029 66.1648 408.29C66.0599 407.832 65.7697 405.933 65.5791 406.239C65.5535 406.288 65.6945 407.326 65.532 407.433C64.9588 407.791 64.3436 407.699 63.754 408.044C63.5967 408.138 63.8686 409.209 63.633 409.315C62.9851 409.607 62.1571 409.358 61.5048 409.041C61.2643 408.922 61.4001 408.024 61.3799 407.927C61.0539 406.355 60.9565 408.494 60.8684 408.621C60.32 409.384 59.8537 408.395 59.3351 408.676C59.1919 408.751 59.3266 409.766 59.3005 409.857C59.0278 410.753 59.1947 408.919 58.9984 408.723C58.4485 408.17 57.8577 408.27 57.3235 408.417C57.1274 408.472 57.3862 409.645 57.2097 409.681C56.1659 409.917 55.0707 409.838 54.0257 409.219C53.8288 409.101 53.922 408.189 53.8754 407.982C53.5531 406.539 53.2084 408.532 53.1207 408.723C52.7224 409.598 52.5324 408.8 52.1617 408.961C50.3513 409.765 48.0707 409.303 46.3297 409.028C44.0611 408.675 42.2841 407.865 40.1403 408.156C40.004 408.174 40.1794 409.378 40.0624 409.408C38.55 409.747 37.0376 409.321 35.524 409.718C35.3997 409.748 35.6156 410.888 35.4173 410.975C35.0109 411.162 34.4873 411.116 34.0595 410.763C33.8509 410.593 34.0928 409.602 33.8835 409.451C33.396 409.097 32.8833 409.032 32.4 409.23C32.1944 409.317 32.5448 410.479 32.2747 410.501C30.436 410.675 28.6329 410.933 26.7241 409.473C26.5932 409.373 26.4073 406.995 26.1501 407.461C26.1502 408.122 26.1754 408.899 26.1885 409.606C23.5183 410.07 20.8382 409.327 18.1447 409.283C18.0312 409.281 18.2663 410.536 18.0467 410.54C16.7755 410.561 15.5525 410.948 14.2139 409.735C14.0811 409.616 14.0783 407.395 13.7087 407.742C13.6436 407.805 13.0804 408.119 12.9474 408.606C12.9296 408.679 13.0662 409.712 12.8827 409.748C11.8158 409.938 10.6853 409.737 9.59566 409.137C9.41974 409.038 9.56937 407.929 9.44378 407.849C8.55316 407.291 7.63024 408.159 6.76548 407.183C6.18652 406.526 6.33389 404.612 5.97907 402.744C5.92891 402.481 5.58206 402.45 5.53027 401.358C5.39911 398.613 5.47308 395.601 5.3135 392.675C5.27941 392.045 4.83773 392.739 5.0644 391.207C5.08037 391.104 5.40017 390.588 5.46676 390.068C5.51319 389.709 5.37502 388.602 5.4782 388.141C5.58139 387.68 5.73928 388.607 5.9172 388.064C6.09483 387.513 5.97005 386.252 6.35389 386.091ZM113.312 400.34C112.971 399.288 113.047 403.176 113.35 402.236C113.365 402.186 113.329 400.391 113.312 400.34ZM150.456 398.572C150.002 396.87 149.805 399.399 150.129 400.714C150.454 402.028 150.595 399.088 150.456 398.572ZM154.582 397.191C154.07 395.854 154.168 401.367 154.636 400.238C154.663 400.174 154.611 397.269 154.582 397.191ZM7.33759 402.167C7.33175 402.116 7.0818 402.073 7.07745 402.124C6.98352 403.363 7.48329 403.447 7.33759 402.167ZM158.671 395.7C158.502 394.959 158.107 395.833 158.317 396.754C158.487 397.496 158.883 396.622 158.671 395.7ZM97.1597 396.69C97.1531 396.632 96.9734 396.585 96.9871 396.913C97.032 397.967 97.2705 397.661 97.1597 396.69ZM165.692 395.419C164.648 395.244 163.878 390.711 165.024 391.189C165.231 391.276 164.628 392.655 164.901 393.057C165.401 393.79 165.628 390.922 166.162 392.438C166.259 392.716 165.752 395.439 165.691 395.425C165.691 395.423 165.692 395.421 165.692 395.419ZM112.99 395.677C112.982 395.626 112.734 395.585 112.73 395.636C112.634 396.874 113.134 396.958 112.99 395.677ZM86.694 394.609C86.677 394.5 86.1017 394.416 86.0862 394.517C85.8504 396.544 87.0136 396.721 86.694 394.609ZM129.504 392.318C129.734 391.068 130.051 390.912 130.314 392.464C130.044 392.39 129.775 392.386 129.504 392.318Z" fill="#C6A77D"/>
<path d="M6.35389 418.091C7.24558 417.724 8.43946 418.049 9.35368 418.518C9.64014 418.664 9.5189 419.357 9.71761 419.488C10.1062 419.744 10.45 419.395 10.8358 419.703C10.9637 419.808 10.8425 420.904 10.9759 420.989C11.7065 421.449 12.3749 421.15 13.1071 421.36C16.7136 422.393 20.2365 422.694 23.8665 423.078C25.0634 423.204 26.543 424.149 27.7606 423.678C27.9027 423.622 27.7873 422.667 27.8122 422.587C28.2035 421.366 28.121 423.304 28.4089 423.552C29.5518 424.531 30.7903 424.581 31.8483 424.178C32.2983 424.004 31.7831 422.116 32.2744 423.17C32.3084 423.241 32.2246 424.261 32.3527 424.366C32.6433 424.601 33.1745 424.403 33.3963 424.476C33.824 424.624 33.8936 424.611 34.2937 424.611C34.841 424.618 35.5067 425.104 36.086 424.855C36.2095 424.799 36.0114 423.762 36.2055 423.578C36.3998 423.395 36.9311 423.467 37.1169 423.707C37.3028 423.947 37.2523 424.769 37.2897 424.956C37.5984 426.533 38.1416 424.318 38.2186 424.262C39.6241 423.292 40.8929 424.504 42.2391 424.459C43.261 424.422 44.341 423.975 45.3153 424.002C46.4761 424.037 47.4756 424.571 48.5982 424.439C48.7167 424.427 48.5394 423.205 48.6841 423.187C50.2211 422.997 51.7559 423.083 53.3164 423.863C53.4729 423.942 53.3079 425.024 53.4663 425.168C54.4353 426.023 55.991 428.101 56.4046 423.398C57.0481 423.561 57.8282 423.726 58.4281 424.653C58.8148 425.25 58.4939 426.433 58.9303 425.919C59.0287 425.804 58.8643 424.782 59.0144 424.687C59.6462 424.292 60.3596 424.604 60.9797 424.053C61.1058 423.939 61.0419 423.02 61.0734 422.853C61.3401 421.502 61.9223 423.704 62.0392 423.862C62.9286 425.037 63.5361 424.545 64.3308 424.549C64.5153 424.551 64.2591 423.322 64.4352 423.279C65.349 423.073 66.3046 423.15 67.2218 423.67C67.4259 423.789 67.2745 424.848 67.3737 424.958C67.8107 425.433 67.8425 423.442 68.2605 423.859C68.3485 423.944 68.3284 424.847 68.3471 424.945C68.6388 426.491 68.782 424.284 68.8432 424.233C69.6149 423.544 70.1927 425.827 70.948 425.477C71.0383 425.433 70.7964 424.3 71.0524 424.245C72.7575 423.877 74.5809 424.134 76.3066 424.993C76.5749 425.126 76.4131 425.988 76.433 426.093C76.7549 427.734 76.8614 425.518 76.9448 425.433C77.6051 424.812 78.2969 426.646 78.6764 423.999C81.5799 424.823 84.3959 423.256 87.3206 425.526C87.3577 425.552 87.3266 426.643 87.4004 426.691C88.2903 427.275 88.0705 425.588 88.5825 423.501C88.7116 422.977 89.2307 425.461 89.2755 425.643C89.4388 426.314 89.3415 427.938 89.3932 428.067C89.8195 429.081 89.5889 423.727 90.121 423.709C90.1379 423.717 90.0986 424.705 90.1463 424.802C90.2946 425.105 90.42 424.709 90.5663 425.044C90.9015 425.82 91.093 428.419 91.5206 426.89C91.5745 426.691 91.3884 423.656 91.868 423.785C92.0592 423.839 92.896 423.76 93.1371 423.95C93.3779 424.139 93.2472 425.124 93.2652 425.165C93.9378 426.44 93.7146 426.984 94.091 428.891C94.467 430.791 94.2378 426.239 94.3511 425.727C94.4647 425.216 94.9615 426.27 95.087 426.638C95.2124 427.006 95.0897 427.632 95.1974 427.839C95.9115 429.192 95.4219 425.57 95.6207 424.84C96.0891 423.112 96.6002 426.477 97.0879 426.793C97.2199 426.878 97.0906 426.112 97.2034 426.037C97.6504 425.748 97.9572 426.793 98.4455 425.811C98.5255 425.651 98.8814 423.607 99.1989 425.089C99.244 425.303 99.161 426.148 99.3611 426.33C99.6599 426.604 100.188 426.772 100.491 426.481C100.715 426.266 100.408 424.887 100.711 425.309C100.846 425.497 100.633 426.316 100.884 426.602C101.133 426.888 101.748 426.834 101.981 426.798C102.214 426.762 102.053 425.714 102.07 425.643C102.172 425.233 102.604 424.712 102.644 424.712C104.639 424.522 106.538 426.238 108.467 425.59C108.618 425.541 108.482 424.435 108.505 424.416C109.013 423.935 108.692 426.897 109.088 427.873C108.966 425.624 109.194 426.024 109.555 425.766C109.728 425.64 109.605 424.771 109.618 424.681C109.84 423.349 110.077 425.054 110.135 425.402C110.349 426.683 110.492 425.157 110.637 426.014C110.782 426.864 110.548 428.138 110.901 428.111C110.975 427.302 110.648 425.204 110.905 424.854C111.877 423.532 113.818 425.125 114.637 425.272C115.454 425.418 115.712 425.261 116.194 425.538C117.066 426.038 116.704 424.485 117.212 423.753C117.722 423.022 117.583 426.874 117.685 427.698C117.786 428.522 117.842 427.669 117.949 428.12C118.056 428.571 117.872 429.14 118.097 429.303C118.321 429.467 118.875 427.979 118.925 427.112C119.033 425.276 118.703 423.363 119.304 424.02C119.339 424.059 119.262 425.073 119.393 425.172C120.431 425.918 121.486 425.934 122.521 426.591C122.663 426.683 122.574 427.811 122.657 427.877C123.524 428.57 123.163 426.684 123.56 424.563C123.543 427.369 123.853 429.076 124.494 429.073C124.88 429.072 124.775 427.85 124.998 426.979C125.064 426.717 125.363 427.549 125.395 426.971C125.499 425.084 125.177 422.985 125.864 423.804C125.894 423.843 125.833 424.876 125.936 424.935C126.596 425.323 126.612 423.352 127.305 423.092C127.847 422.888 128.86 424.058 129.491 424.234C129.576 427.386 130.143 426.646 130.315 424.466C130.724 424.542 131.158 424.406 131.559 424.694C131.697 424.792 131.636 425.707 131.657 425.805C131.965 427.344 132.076 425.224 132.161 425.139C133.084 424.304 133.907 425.882 134.763 424.288C134.793 424.23 134.778 422.04 135.069 423.631C135.088 423.74 134.82 424.746 135.248 424.809C135.677 424.873 136.516 426.022 137.076 424.989C137.211 424.741 137.518 422.952 137.851 424.332C137.896 424.519 137.873 425.148 137.94 425.496C138.155 426.604 138.185 424.388 138.455 426.261C138.726 428.134 139.211 429.528 139.767 428.213C139.785 428.174 139.871 426.416 140.06 426.438C140.36 426.475 140.797 426.827 141.109 426.806C141.258 426.795 141.129 425.709 141.154 425.688C142.141 425.047 142.887 425.995 143.978 426.383C144.178 426.456 144.7 424.954 145.119 426.116C145.579 427.388 145.313 432.748 146.239 431.444C146.613 430.923 146.895 424.124 147.704 427.617C149.034 426.704 150.345 428.464 151.667 427.178C151.727 427.121 151.861 425.222 152.006 425.243C152.221 425.278 152.366 426.16 152.52 426.213C153.167 426.46 153.729 425.685 154.348 425.783C154.584 425.819 154.53 426.736 154.811 426.779C155.091 426.82 155.24 425.61 155.636 426.18C155.935 426.615 156.297 429.068 156.684 429.343C156.623 426.914 156.885 426.956 157.328 426.3C157.413 426.173 157.291 425.331 157.33 425.227C157.488 424.786 157.668 425.482 157.815 425.002C157.851 424.887 157.828 424.058 157.856 423.917C158.092 422.687 158.603 424.538 158.691 424.861C159.027 426.085 159.133 425.002 159.376 425.481C159.62 425.96 159.297 426.578 159.573 426.864C160.144 427.457 160.85 427.301 161.412 427.321C161.637 427.325 161.45 426.222 161.481 426.197C161.935 425.902 162.44 427.065 162.628 424.851C163.126 430.544 162.89 424.29 163.587 425.411C163.642 425.501 163.792 428.196 163.604 428.598C163.417 429 163.087 428.166 162.828 428.792C162.767 428.939 162.469 431.478 162.422 431.632C162.057 432.841 161.875 428.813 161.847 428.592C161.531 426.211 161.155 428.948 161.04 429.14C160.512 430.019 160.023 429.467 159.579 430.096C159.288 430.504 159.34 433.144 159.099 433.071C158.299 432.828 157.909 429.154 157.262 432.371C157.123 433.057 157.371 435.937 156.728 433.686C156.687 433.544 156.197 431.482 155.992 432.802C155.966 432.969 155.993 433.809 155.955 433.881C155.696 434.347 155.493 433.682 155.206 434.013C154.919 434.343 154.576 434.832 154.228 434.557C154.018 434.393 153.706 432.835 153.597 432.454C153.286 431.358 153.046 433.179 152.833 431.846C152.618 430.507 152.892 428.454 152.412 427.599C152.464 429.784 152.495 432.028 152.536 434.226C151.541 434.18 150.542 433.504 149.549 433.631C149.426 433.649 149.588 434.819 149.457 434.869C148.905 435.073 148.391 434.251 147.822 434.602C147.382 434.879 146.929 436.138 146.469 436.465C146.105 433.974 145.436 434.845 144.924 434.632C144.744 434.559 144.735 433.891 144.603 433.677C144.103 432.886 144.394 435.088 144.274 435.44C143.762 436.941 143.559 431.942 142.904 432.086C142.869 432.092 142.525 434.771 142.472 434.938C142.132 436.032 142.381 434.013 142.141 433.823C141.704 433.476 141.387 432.849 140.911 433.645C140.772 433.881 140.474 435.553 140.151 434.277C140.108 434.11 140.101 433.228 140.07 433.178C139.5 432.334 139.572 435.103 139.29 436.05C139.009 436.997 138.47 435.101 138.356 434.553C138.056 433.137 138.532 433.938 138.542 433.798C138.652 432.129 138.312 432.427 138.04 432.294C137.917 429.581 137.549 429.756 137.759 432.168C137.783 432.432 137.983 432.172 138.04 432.294C137.888 434.965 137.488 435.318 136.957 432.844C136.709 431.684 136.867 430.318 136.238 430.836C135.952 431.069 136.123 432.935 135.881 433.452C135.327 434.633 134.506 432.913 133.906 433.207C133.688 433.314 133.935 434.33 133.787 434.438C133.396 434.728 133.018 433.971 132.628 434.377C132.593 434.415 132.715 435.483 132.591 435.501C131.647 435.655 130.8 434.994 129.809 435.006C129.33 435.012 128.494 435.629 127.994 435.526C127.129 435.353 126.025 433.829 125.303 434.23C124.832 434.487 124.97 435.555 124.788 436.291C124.436 437.718 123.657 435.206 123.55 434.816C123.547 434.803 123.951 434.538 123.714 433.995C123.551 432.853 123.555 434.811 123.55 434.816C123.481 434.565 122.651 434.347 122.494 434.557C122.408 434.672 122.489 435.685 122.444 435.725C121.373 436.668 120.279 436.96 119.149 436.52C119.129 436.5 119.123 435.364 119.076 435.331C118.414 434.847 118.044 436.248 117.537 437.089C117.03 437.93 116.599 437.667 116.223 435.728C115.829 435.986 115.226 435.142 114.878 434.63C114.53 434.117 114.552 436.328 114.524 436.373C113.657 437.799 113.092 436.551 112.141 436.384C111.689 436.3 110.808 436.648 110.33 436.905C109.952 437.112 109.704 436.601 109.36 436.943C109.314 436.989 109.393 437.971 109.379 438.009C109.021 439.199 109.136 436.788 109.041 436.361C108.697 434.808 108.488 433.982 108.005 434.732C107.893 434.904 107.661 438.378 107.454 438.587C107.186 438.852 107.252 437.608 106.971 437.917C106.947 437.943 106.976 438.708 106.797 438.68C105.962 438.559 105.044 438.142 104.184 438.245C104.066 438.257 104.255 439.466 104.086 439.503C103.292 439.671 102.415 439.654 101.619 439.109C101.423 438.971 101.517 438.117 101.468 437.866C101.165 436.346 100.872 438.577 100.814 438.621C99.4224 439.733 98.2699 437.757 96.8478 438.759C96.7706 438.818 96.2362 441.216 95.9014 439.184C95.8786 439.048 95.5452 436.969 95.3522 438.404C95.3402 438.493 95.5409 439.563 95.2455 439.463C94.9501 439.363 94.5025 440.095 94.0645 438.926C93.9259 438.558 93.5608 436.484 93.2334 438.157C93.2123 438.273 92.7438 442.046 92.4545 439.462C92.4074 439.037 92.3577 436.294 91.949 437.714C91.871 437.989 92.0469 438.596 91.831 438.985C91.5004 439.584 91.0154 438.864 90.6244 440.099C90.5563 440.317 90.2957 442.188 89.9965 440.783C89.9496 440.563 89.9972 439.646 89.8591 439.548C89.2025 439.076 88.55 439.709 87.8791 439.096C87.6416 438.881 87.7136 437.398 87.4608 437.009C87.208 436.62 86.7117 436.254 86.4811 436.938C86.2505 437.622 86.5986 439.971 86.2275 440.172C84.6139 441.042 82.9473 439.709 81.3045 439.558C81.0608 439.535 81.2882 440.372 80.931 440.4C79.6141 440.503 77.3618 441.365 76.1617 439.608C75.2002 438.2 76.3201 437.071 75.6013 436.509C75.2545 436.24 74.9739 438.993 74.8949 439.082C74.1248 439.983 73.533 438.786 72.8269 439.181C72.6811 439.263 72.861 440.37 72.7365 440.427C72.3117 440.633 71.8435 440.151 71.4346 440.255C71.2513 440.304 71.3117 441.151 71.1397 441.091C70.7285 440.957 70.3578 440.611 69.9367 439.828C69.8984 439.757 70.1092 438.693 69.8071 438.664C69.3183 438.618 68.6896 437.852 68.1545 438.68C67.9959 438.929 68.0496 440.869 67.6507 439.54C67.5671 439.263 67.5904 436.931 67.2367 438.956C67.1771 439.293 66.5622 442.029 66.1648 440.29C66.0599 439.832 65.7697 437.933 65.5791 438.239C65.5535 438.288 65.6945 439.326 65.532 439.433C64.9588 439.791 64.3436 439.699 63.754 440.044C63.5967 440.138 63.8686 441.209 63.633 441.315C62.9851 441.607 62.1571 441.358 61.5048 441.041C61.2643 440.922 61.4001 440.024 61.3799 439.927C61.0539 438.355 60.9565 440.494 60.8684 440.621C60.32 441.384 59.8537 440.395 59.3351 440.676C59.1919 440.751 59.3266 441.766 59.3005 441.857C59.0278 442.753 59.1947 440.919 58.9984 440.723C58.4485 440.17 57.8577 440.27 57.3235 440.417C57.1274 440.472 57.3862 441.645 57.2097 441.681C56.1659 441.917 55.0707 441.838 54.0257 441.219C53.8288 441.101 53.922 440.189 53.8754 439.982C53.5531 438.539 53.2084 440.532 53.1207 440.723C52.7224 441.598 52.5324 440.8 52.1617 440.961C50.3513 441.765 48.0707 441.303 46.3297 441.028C44.0611 440.675 42.2841 439.865 40.1403 440.156C40.004 440.174 40.1794 441.378 40.0624 441.408C38.55 441.747 37.0376 441.321 35.524 441.718C35.3997 441.748 35.6156 442.888 35.4173 442.975C35.0109 443.162 34.4873 443.116 34.0595 442.763C33.8509 442.593 34.0928 441.602 33.8835 441.451C33.396 441.097 32.8833 441.032 32.4 441.23C32.1944 441.317 32.5448 442.479 32.2747 442.501C30.436 442.675 28.6329 442.933 26.7241 441.473C26.5932 441.373 26.4073 438.995 26.1501 439.461C26.1502 440.122 26.1754 440.899 26.1885 441.606C23.5183 442.07 20.8382 441.327 18.1447 441.283C18.0312 441.281 18.2663 442.536 18.0467 442.54C16.7755 442.561 15.5525 442.948 14.2139 441.735C14.0811 441.616 14.0783 439.395 13.7087 439.742C13.6436 439.805 13.0804 440.119 12.9474 440.606C12.9296 440.679 13.0662 441.712 12.8827 441.748C11.8158 441.938 10.6853 441.737 9.59566 441.137C9.41974 441.038 9.56937 439.929 9.44378 439.849C8.55316 439.291 7.63024 440.159 6.76548 439.183C6.18652 438.526 6.33389 436.612 5.97907 434.744C5.92891 434.481 5.58206 434.45 5.53027 433.358C5.39911 430.613 5.47308 427.601 5.3135 424.675C5.27941 424.045 4.83773 424.739 5.0644 423.207C5.08037 423.104 5.40017 422.588 5.46676 422.068C5.51319 421.709 5.37502 420.602 5.4782 420.141C5.58139 419.68 5.73928 420.607 5.9172 420.064C6.09483 419.513 5.97005 418.252 6.35389 418.091ZM113.312 432.34C112.971 431.288 113.047 435.176 113.35 434.236C113.365 434.186 113.329 432.391 113.312 432.34ZM150.456 430.572C150.002 428.87 149.805 431.399 150.129 432.714C150.454 434.028 150.595 431.088 150.456 430.572ZM154.582 429.191C154.07 427.854 154.168 433.367 154.636 432.238C154.663 432.174 154.611 429.269 154.582 429.191ZM7.33759 434.167C7.33175 434.116 7.0818 434.073 7.07745 434.124C6.98352 435.363 7.48329 435.447 7.33759 434.167ZM158.671 427.7C158.502 426.959 158.107 427.833 158.317 428.754C158.487 429.496 158.883 428.622 158.671 427.7ZM97.1597 428.69C97.1531 428.632 96.9734 428.585 96.9871 428.913C97.032 429.967 97.2705 429.661 97.1597 428.69ZM165.692 427.419C164.648 427.244 163.878 422.711 165.024 423.189C165.231 423.276 164.628 424.655 164.901 425.057C165.401 425.79 165.628 422.922 166.162 424.438C166.259 424.716 165.752 427.439 165.691 427.425C165.691 427.423 165.692 427.421 165.692 427.419ZM112.99 427.677C112.982 427.626 112.734 427.585 112.73 427.636C112.634 428.874 113.134 428.958 112.99 427.677ZM86.694 426.609C86.677 426.5 86.1017 426.416 86.0862 426.517C85.8504 428.544 87.0136 428.721 86.694 426.609ZM129.504 424.318C129.734 423.068 130.051 422.912 130.314 424.464C130.044 424.39 129.775 424.386 129.504 424.318Z" fill="#C6A77D"/>
<defs>
<linearGradient id="paint0_linear_731_82" x1="106.72" y1="315.696" x2="1549.72" y2="315.696" gradientUnits="userSpaceOnUse">
<stop stop-color="#D4AF37"/>
<stop offset="1" stop-color="#F9E498"/>
</linearGradient>
<linearGradient id="paint1_linear_731_82" x1="105.72" y1="338.446" x2="1549.72" y2="338.446" gradientUnits="userSpaceOnUse">
<stop stop-color="#D4AF37"/>
<stop offset="1" stop-color="#F9E498"/>
</linearGradient>
<linearGradient id="paint2_linear_731_82" x1="107.22" y1="353.696" x2="1546.72" y2="353.696" gradientUnits="userSpaceOnUse">
<stop stop-color="#D4AF37"/>
<stop offset="1" stop-color="#F9E498"/>
</linearGradient>
<linearGradient id="paint3_linear_731_82" x1="7.71979" y1="418.696" x2="1450.72" y2="418.696" gradientUnits="userSpaceOnUse">
<stop stop-color="#D4AF37"/>
<stop offset="1" stop-color="#F9E498"/>
</linearGradient>
<linearGradient id="paint4_linear_731_82" x1="6.71979" y1="441.446" x2="1450.72" y2="441.446" gradientUnits="userSpaceOnUse">
<stop stop-color="#D4AF37"/>
<stop offset="1" stop-color="#F9E498"/>
</linearGradient>
<linearGradient id="paint5_linear_731_82" x1="8.21979" y1="456.696" x2="1447.72" y2="456.696" gradientUnits="userSpaceOnUse">
<stop stop-color="#D4AF37"/>
<stop offset="1" stop-color="#F9E498"/>
</linearGradient>
</defs>
</svg>
