<svg width="167" height="90" viewBox="0 0 167 90" fill="none" xmlns="http://www.w3.org/2000/svg">
<path d="M1.35389 0.157907C2.24558 -0.208634 3.43946 0.1166 4.35368 0.585503C4.64014 0.730841 4.5189 1.42405 4.71761 1.55538C5.10623 1.81138 5.45003 1.46257 5.83576 1.76992C5.9637 1.87515 5.84254 2.97099 5.97592 3.05635C6.70654 3.51629 7.37495 3.21737 8.10711 3.42677C11.7136 4.46011 15.2365 4.76065 18.8665 5.14549C20.0634 5.27145 21.543 6.2166 22.7606 5.74536C22.9027 5.68937 22.7873 4.73439 22.8122 4.65462C23.2035 3.43299 23.121 5.37069 23.4089 5.61885C24.5518 6.59852 25.7903 6.64835 26.8483 6.24555C27.2983 6.07138 26.7831 4.18343 27.2744 5.23684C27.3084 5.30799 27.2246 6.32852 27.3527 6.4331C27.6433 6.66826 28.1745 6.46982 28.3963 6.54359C28.824 6.69089 28.8936 6.67849 29.2937 6.67766C29.841 6.68538 30.5067 7.1707 31.086 6.92207C31.2095 6.86598 31.0114 5.82864 31.2055 5.64504C31.3998 5.46172 31.9311 5.5337 32.1169 5.77392C32.3028 6.01425 32.2523 6.83598 32.2897 7.02281C32.5984 8.59995 33.1416 6.38547 33.2186 6.32873C34.6241 5.35905 35.8929 6.57154 37.2391 6.52617C38.261 6.48907 39.341 6.04223 40.3153 6.06864C41.4761 6.10415 42.4756 6.63857 43.5982 6.5065C43.7167 6.49376 43.5394 5.27237 43.6841 5.25433C45.2211 5.06383 46.7559 5.14991 48.3164 5.92971C48.4729 6.009 48.3079 7.09133 48.4663 7.23489C49.4353 8.09006 50.991 10.1684 51.4046 5.46546C52.0481 5.62862 52.8282 5.79361 53.4281 6.72039C53.8148 7.31687 53.4939 8.50034 53.9303 7.98605C54.0287 7.87142 53.8643 6.84883 54.0144 6.75458C54.6462 6.35873 55.3596 6.67064 55.9797 6.12039C56.1058 6.00606 56.0419 5.08718 56.0734 4.92038C56.3401 3.56916 56.9223 5.77104 57.0392 5.92872C57.9286 7.10402 58.5361 6.61177 59.3308 6.61646C59.5153 6.61807 59.2591 5.3891 59.4352 5.34626C60.349 5.1406 61.3046 5.21723 62.2218 5.73761C62.4259 5.85633 62.2745 6.91466 62.3737 7.02526C62.8107 7.50007 62.8425 5.50904 63.2605 5.92604C63.3485 6.01139 63.3284 6.91401 63.3471 7.01249C63.6388 8.55848 63.782 6.35064 63.8432 6.30009C64.6149 5.61144 65.1927 7.89373 65.948 7.54456C66.0383 7.50046 65.7964 6.36669 66.0524 6.31246C67.7575 5.94444 69.5809 6.20134 71.3066 7.06061C71.5749 7.19267 71.4131 8.05504 71.433 8.16012C71.7549 9.8015 71.8614 7.58554 71.9448 7.49962C72.6051 6.87929 73.2969 8.71337 73.6764 6.06616C76.5799 6.89057 79.3959 5.32318 82.3206 7.59337C82.3577 7.61956 82.3266 8.71026 82.4004 8.75783C83.2903 9.34206 83.0705 7.65525 83.5825 5.568C83.7116 5.04386 84.2307 7.52855 84.2755 7.71047C84.4388 8.38092 84.3415 10.0052 84.3932 10.1344C84.8195 11.1484 84.5889 5.79409 85.121 5.77583C85.1379 5.78425 85.0986 6.77232 85.1463 6.86895C85.2946 7.1724 85.42 6.77637 85.5663 7.11153C85.9015 7.88716 86.093 10.4864 86.5206 8.95693C86.5745 8.75847 86.3884 5.72299 86.868 5.85177C87.0592 5.90568 87.896 5.82757 88.1371 6.01716C88.3779 6.20654 88.2472 7.19064 88.2652 7.23252C88.9378 8.50757 88.7146 9.0516 89.091 10.9585C89.467 12.8583 89.2378 8.30653 89.3511 7.79417C89.4647 7.28326 89.9615 8.33706 90.087 8.70487C90.2124 9.07284 90.0897 9.6994 90.1974 9.90649C90.9115 11.2592 90.4219 7.63666 90.6207 6.90693C91.0891 5.17912 91.6002 8.54411 92.0879 8.86024C92.2199 8.94561 92.0906 8.17962 92.2034 8.1041C92.6504 7.81521 92.9572 8.86061 93.4455 7.87818C93.5255 7.71807 93.8814 5.67435 94.1989 7.1562C94.244 7.36991 94.161 8.21499 94.3611 8.39749C94.6599 8.67144 95.1883 8.83918 95.4914 8.54815C95.7151 8.33284 95.4082 6.95413 95.7113 7.37596C95.8461 7.56434 95.6326 8.38311 95.8837 8.66933C96.1334 8.95551 96.7477 8.90075 96.9809 8.86547C97.2138 8.82958 97.0532 7.78151 97.0699 7.71005C97.1715 7.30051 97.6044 6.77929 97.644 6.77931C99.6394 6.58879 101.538 8.30484 103.467 7.65746C103.618 7.60818 103.482 6.50195 103.505 6.48299C104.013 6.00194 103.692 8.96435 104.088 9.94028C103.966 7.69065 104.194 8.09158 104.555 7.83324C104.728 7.70693 104.605 6.83822 104.618 6.74848C104.84 5.41628 105.077 7.12074 105.135 7.46912C105.349 8.75061 105.492 7.22415 105.637 8.08065C105.782 8.93073 105.548 10.2049 105.901 10.1777C105.975 9.36874 105.648 7.2709 105.905 6.92125C106.877 5.59877 108.818 7.19245 109.637 7.33882C110.454 7.4851 110.712 7.32826 111.194 7.60481C112.066 8.10487 111.704 6.5521 112.212 5.82041C112.722 5.08876 112.583 8.9413 112.685 9.76538C112.786 10.5891 112.842 9.73622 112.949 10.1874C113.056 10.6386 112.872 11.2068 113.097 11.3704C113.321 11.534 113.875 10.0457 113.925 9.17912C114.033 7.34323 113.703 5.43013 114.304 6.08727C114.339 6.1263 114.262 7.14056 114.393 7.23876C115.431 7.98548 116.486 8.001 117.521 8.65784C117.663 8.74974 117.574 9.87819 117.657 9.94439C118.524 10.6375 118.163 8.75066 118.56 6.62985C118.543 9.43629 118.853 11.1434 119.494 11.14C119.88 11.139 119.775 9.91674 119.998 9.04611C120.064 8.78367 120.363 9.61585 120.395 9.03855C120.499 7.15137 120.177 5.05243 120.864 5.87086C120.894 5.90983 120.833 6.94294 120.936 7.00222C121.596 7.39051 121.612 5.41943 122.305 5.15928C122.847 4.95517 123.86 6.12534 124.491 6.30119C124.576 9.45322 125.143 8.71322 125.315 6.53279C125.724 6.60917 126.158 6.47272 126.559 6.76091C126.697 6.85912 126.636 7.77435 126.657 7.87242C126.965 9.41096 127.076 7.29141 127.161 7.20581C128.084 6.37069 128.907 7.94899 129.763 6.35497C129.793 6.29758 129.778 4.10674 130.069 5.6977C130.088 5.8074 129.82 6.81273 130.248 6.87654C130.677 6.94051 131.516 8.08916 132.076 7.05636C132.211 6.80769 132.518 5.01925 132.851 6.39878C132.896 6.58614 132.873 7.21532 132.94 7.56298C133.155 8.67066 133.185 6.45485 133.455 8.3281C133.726 10.2013 134.211 11.5954 134.767 10.2799C134.785 10.2416 134.871 8.4834 135.06 8.50531C135.36 8.54179 135.797 8.89395 136.109 8.87282C136.258 8.86207 136.129 7.77601 136.154 7.75528C137.141 7.11378 137.887 8.06241 138.978 8.4503C139.178 8.52356 139.7 7.02086 140.119 8.18307C140.579 9.45529 140.313 14.8152 141.239 13.5114C141.613 12.9899 141.895 6.19157 142.704 9.68412C144.034 8.77115 145.345 10.5308 146.667 9.24509C146.727 9.1881 146.861 7.28901 147.006 7.3103C147.221 7.34558 147.366 8.22674 147.52 8.28029C148.167 8.52695 148.729 7.75179 149.348 7.8504C149.584 7.88592 149.53 8.80333 149.811 8.8458C150.091 8.88742 150.24 7.67693 150.636 8.24703C150.935 8.68166 151.297 11.1352 151.684 11.4105C151.623 8.98112 151.885 9.02307 152.328 8.36754C152.413 8.24038 152.291 7.39796 152.33 7.2942C152.488 6.85318 152.668 7.5489 152.815 7.06956C152.851 6.95442 152.828 6.12488 152.856 5.98393C153.092 4.75384 153.603 6.60561 153.691 6.92806C154.027 8.15258 154.133 7.06943 154.376 7.54819C154.62 8.02689 154.297 8.64477 154.573 8.93129C155.144 9.52389 155.85 9.36788 156.412 9.38857C156.637 9.39171 156.45 8.28923 156.481 8.26397C156.935 7.96876 157.44 9.132 157.628 6.91851C158.126 12.6112 157.89 6.35671 158.587 7.47775C158.642 7.56846 158.792 10.2631 158.604 10.6653C158.417 11.067 158.087 10.2335 157.828 10.8592C157.767 11.0061 157.469 13.5448 157.422 13.6995C157.057 14.9083 156.875 10.8802 156.847 10.6595C156.531 8.27837 156.155 11.015 156.04 11.2069C155.512 12.0861 155.023 11.534 154.579 12.1636C154.288 12.5707 154.34 15.2113 154.099 15.1379C153.299 14.8955 152.909 11.2216 152.262 14.4377C152.123 15.1236 152.371 18.0039 151.728 15.753C151.687 15.6111 151.197 13.5489 150.992 14.8693C150.966 15.0357 150.993 15.8766 150.955 15.9485C150.696 16.4138 150.493 15.7496 150.206 16.0797C149.919 16.4097 149.576 16.8991 149.228 16.6245C149.018 16.4603 148.706 14.9018 148.597 14.5213C148.286 13.425 148.046 15.2458 147.833 13.9132C147.618 12.5739 147.892 10.5213 147.412 9.66649C147.464 11.8516 147.495 14.095 147.536 16.2928C146.541 16.2467 145.542 15.5706 144.549 15.6981C144.426 15.7161 144.588 16.8866 144.457 16.9361C143.905 17.1401 143.391 16.318 142.822 16.6694C142.382 16.9459 141.929 18.2046 141.469 18.5325C141.105 16.0416 140.436 16.9118 139.924 16.6991C139.744 16.6256 139.735 15.9576 139.603 15.7437C139.103 14.9529 139.394 17.155 139.274 17.5067C138.762 19.0077 138.559 14.0093 137.904 14.1533C137.869 14.1592 137.525 16.8376 137.472 17.0054C137.132 18.0993 137.381 16.0797 137.141 15.89C136.704 15.5434 136.387 14.9161 135.911 15.7123C135.772 15.9481 135.474 17.6201 135.151 16.344C135.108 16.1769 135.101 15.2953 135.07 15.2447C134.5 14.4016 134.572 17.1701 134.29 18.1172C134.009 19.0641 133.47 17.1681 133.356 16.6204C133.056 15.2037 133.532 16.0055 133.542 15.8653C133.652 14.1964 133.312 14.4937 133.04 14.3615C132.917 11.6486 132.549 11.8231 132.759 14.2352C132.783 14.4987 132.983 14.2391 133.04 14.3615C132.888 17.0316 132.488 17.3854 131.957 14.9111C131.709 13.7514 131.867 12.3853 131.238 12.9028C130.952 13.1364 131.123 15.0017 130.881 15.5192C130.327 16.7 129.506 14.9806 128.906 15.2742C128.688 15.3807 128.935 16.397 128.787 16.5051C128.396 16.7952 128.018 16.0386 127.628 16.4443C127.593 16.4823 127.715 17.5504 127.591 17.5679C126.647 17.7217 125.8 17.0615 124.809 17.0732C124.33 17.0794 123.494 17.6965 122.994 17.5932C122.129 17.4204 121.025 15.896 120.303 16.2971C119.832 16.5541 119.97 17.6219 119.788 18.358C119.436 19.7848 118.657 17.2728 118.55 16.8834C118.547 16.8705 118.951 16.6052 118.714 16.0622C118.551 14.9206 118.555 16.8782 118.55 16.8834C118.481 16.6318 117.651 16.4142 117.494 16.624C117.408 16.7387 117.489 17.7519 117.444 17.7925C116.373 18.7348 115.279 19.0269 114.149 18.5871C114.129 18.5672 114.123 17.4312 114.076 17.3986C113.414 16.914 113.044 18.3154 112.537 19.1563C112.03 19.9969 111.599 19.734 111.223 17.7952C110.829 18.053 110.226 17.2095 109.878 16.697C109.53 16.1846 109.552 18.3956 109.524 18.4402C108.657 19.8665 108.092 18.6182 107.141 18.4507C106.689 18.3672 105.808 18.7154 105.33 18.9721C104.952 19.1787 104.704 18.6681 104.36 19.0102C104.314 19.0559 104.393 20.0382 104.379 20.0765C104.021 21.2658 104.136 18.8549 104.041 18.4279C103.697 16.8751 103.488 16.0488 103.005 16.7993C102.893 16.9712 102.661 20.4447 102.454 20.6538C102.186 20.9194 102.252 19.6749 101.971 19.9846C101.947 20.0099 101.976 20.7755 101.797 20.7473C100.962 20.6264 100.044 20.2089 99.1838 20.3125C99.0663 20.3237 99.255 21.5336 99.0858 21.5698C98.2917 21.7385 97.415 21.7208 96.6194 21.1764C96.4235 21.0386 96.5171 20.1844 96.4677 19.9332C96.165 18.4133 95.8721 20.6445 95.8137 20.6886C94.4224 21.7996 93.2699 19.8245 91.8478 20.8261C91.7706 20.8847 91.2362 23.2834 90.9014 21.2508C90.8786 21.1156 90.5452 19.0357 90.3522 20.4708C90.3402 20.5606 90.5409 21.6304 90.2455 21.5299C89.9501 21.4297 89.5025 22.1622 89.0645 20.9935C88.9259 20.6253 88.5608 18.5516 88.2334 20.2239C88.2123 20.3405 87.7438 24.1133 87.4545 21.5293C87.4074 21.1039 87.3577 18.3615 86.949 19.7811C86.871 20.0563 87.0469 20.6628 86.831 21.0517C86.5004 21.651 86.0154 20.9312 85.6244 22.1656C85.5563 22.3841 85.2957 24.2547 84.9965 22.8504C84.9496 22.6304 84.9972 21.7129 84.8591 21.6147C84.2025 21.1433 83.55 21.7763 82.8791 21.1633C82.6416 20.948 82.7136 19.4648 82.4608 19.0758C82.208 18.687 81.7117 18.3207 81.4811 19.0046C81.2505 19.6889 81.5986 22.0383 81.2275 22.2387C79.6139 23.1091 77.9473 21.7762 76.3045 21.6247C76.0608 21.602 76.2882 22.4395 75.931 22.4667C74.6141 22.5704 72.3618 23.4322 71.1617 21.6749C70.2002 20.2674 71.3201 19.1383 70.6013 18.5757C70.2545 18.3074 69.9739 21.0602 69.8949 21.149C69.1248 22.0505 68.533 20.8533 67.8269 21.2482C67.6811 21.3301 67.861 22.4367 67.7365 22.4941C67.3117 22.7002 66.8435 22.2183 66.4346 22.3218C66.2513 22.3708 66.3117 23.2184 66.1397 23.1581C65.7285 23.0238 65.3578 22.6783 64.9367 21.8952C64.8984 21.8238 65.1092 20.7606 64.8071 20.7307C64.3183 20.6853 63.6896 19.9194 63.1545 20.7471C62.9959 20.996 63.0496 22.9357 62.6507 21.6074C62.5671 21.33 62.5904 18.998 62.2367 21.0233C62.1771 21.3598 61.5622 24.0958 61.1648 22.3569C61.0599 21.8992 60.7697 20.0006 60.5791 20.3063C60.5535 20.3549 60.6945 21.3934 60.532 21.5001C59.9588 21.8582 59.3436 21.7661 58.754 22.111C58.5967 22.2052 58.8686 23.2758 58.633 23.3817C57.9851 23.6746 57.1571 23.4256 56.5048 23.1081C56.2643 22.989 56.4001 22.0909 56.3799 21.9942C56.0539 20.4221 55.9565 22.5608 55.8684 22.6881C55.32 23.4507 54.8537 22.462 54.3351 22.7436C54.1919 22.8186 54.3266 23.8327 54.3005 23.9243C54.0278 24.82 54.1947 22.9861 53.9984 22.7906C53.4485 22.2369 52.8577 22.3371 52.3235 22.4838C52.1274 22.5392 52.3862 23.7119 52.2097 23.7479C51.1659 23.9838 50.0707 23.9048 49.0257 23.2864C48.8288 23.1678 48.922 22.2557 48.8754 22.0495C48.5531 20.6066 48.2084 22.599 48.1207 22.7905C47.7224 23.6648 47.5324 22.8667 47.1617 23.0283C45.3513 23.8317 43.0707 23.37 41.3297 23.0951C39.0611 22.7422 37.2841 21.9324 35.1403 22.2236C35.004 22.241 35.1794 23.445 35.0624 23.4755C33.55 23.814 32.0376 23.3884 30.524 23.7847C30.3997 23.8151 30.6156 24.955 30.4173 25.0423C30.0109 25.2294 29.4873 25.1833 29.0595 24.8305C28.8509 24.6605 29.0928 23.6691 28.8835 23.5182C28.396 23.1644 27.8833 23.0987 27.4 23.2975C27.1944 23.3846 27.5448 24.5464 27.2747 24.5684C25.436 24.7418 23.6329 24.9998 21.7241 23.5405C21.5932 23.4402 21.4073 21.0626 21.1501 21.5276C21.1502 22.1891 21.1754 22.9664 21.1885 23.673C18.5183 24.1368 15.8382 23.3937 13.1447 23.3496C13.0312 23.3481 13.2663 24.6036 13.0467 24.6069C11.7755 24.6278 10.5525 25.0156 9.21386 23.802C9.0811 23.6833 9.07833 21.4618 8.70873 21.8092C8.64361 21.8726 8.08045 22.1863 7.94743 22.6728C7.92959 22.7461 8.06618 23.7788 7.88269 23.8147C6.81578 24.0053 5.68525 23.8037 4.59566 23.2039C4.41974 23.1052 4.56937 21.9962 4.44378 21.9163C3.55316 21.3577 2.63024 22.2259 1.76548 21.2501C1.18652 20.593 1.33389 18.6795 0.97907 16.8115C0.928905 16.548 0.58206 16.5168 0.530273 15.4252C0.399107 12.6802 0.473084 9.66777 0.313496 6.74255C0.279405 6.11247 -0.162273 6.80596 0.0643958 5.27375C0.0803699 5.17118 0.400175 4.65505 0.466758 4.13559C0.513194 3.77643 0.375021 2.66891 0.478201 2.2078C0.581385 1.74711 0.739284 2.67419 0.917203 2.13066C1.09483 1.58048 0.970053 0.319549 1.35389 0.157907ZM108.312 14.407C107.971 13.3555 108.047 17.2432 108.35 16.3031C108.365 16.253 108.329 14.4586 108.312 14.407ZM145.456 12.639C145.002 10.9373 144.805 13.4664 145.129 14.7814C145.454 16.0951 145.595 13.1549 145.456 12.639ZM149.582 11.2582C149.07 9.92129 149.168 15.4346 149.636 14.3049C149.663 14.241 149.611 11.3359 149.582 11.2582ZM2.33759 16.2343C2.33175 16.1828 2.0818 16.1402 2.07745 16.1916C1.98352 17.43 2.48329 17.5143 2.33759 16.2343ZM153.671 9.76742C153.502 9.02649 153.107 9.90016 153.317 10.8215C153.487 11.5627 153.883 10.6891 153.671 9.76742ZM92.1597 10.7569C92.1531 10.6991 91.9734 10.6525 91.9871 10.9797C92.032 12.0337 92.2705 11.7285 92.1597 10.7569ZM160.692 9.48587C159.648 9.31065 158.878 4.77783 160.024 5.25643C160.231 5.34302 159.628 6.72184 159.901 7.12417C160.401 7.85709 160.628 4.98894 161.162 6.5055C161.259 6.78311 160.752 9.50598 160.691 9.49227C160.691 9.49014 160.692 9.488 160.692 9.48587ZM107.99 9.7445C107.982 9.6933 107.734 9.65223 107.73 9.70336C107.634 10.9413 108.134 11.0248 107.99 9.7445ZM81.694 8.67657C81.677 8.56748 81.1017 8.48283 81.0862 8.58431C80.8504 10.6112 82.0136 10.7883 81.694 8.67657ZM124.504 6.38495C124.734 5.13537 125.051 4.97924 125.314 6.53125C125.044 6.45681 124.775 6.45297 124.504 6.38495Z" fill="#C6A77D"/>
<path d="M6.35389 32.1579C7.24558 31.7914 8.43946 32.1166 9.35368 32.5855C9.64014 32.7308 9.5189 33.424 9.71761 33.5554C10.1062 33.8114 10.45 33.4626 10.8358 33.7699C10.9637 33.8752 10.8425 34.971 10.9759 35.0563C11.7065 35.5163 12.3749 35.2174 13.1071 35.4268C16.7136 36.4601 20.2365 36.7607 23.8665 37.1455C25.0634 37.2715 26.543 38.2166 27.7606 37.7454C27.9027 37.6894 27.7873 36.7344 27.8122 36.6546C28.2035 35.433 28.121 37.3707 28.4089 37.6189C29.5518 38.5985 30.7903 38.6483 31.8483 38.2455C32.2983 38.0714 31.7831 36.1834 32.2744 37.2368C32.3084 37.308 32.2246 38.3285 32.3527 38.4331C32.6433 38.6683 33.1745 38.4698 33.3963 38.5436C33.824 38.6909 33.8936 38.6785 34.2937 38.6777C34.841 38.6854 35.5067 39.1707 36.086 38.9221C36.2095 38.866 36.0114 37.8286 36.2055 37.645C36.3998 37.4617 36.9311 37.5337 37.1169 37.7739C37.3028 38.0143 37.2523 38.836 37.2897 39.0228C37.5984 40.5999 38.1416 38.3855 38.2186 38.3287C39.6241 37.359 40.8929 38.5715 42.2391 38.5262C43.261 38.4891 44.341 38.0422 45.3153 38.0686C46.4761 38.1042 47.4756 38.6386 48.5982 38.5065C48.7167 38.4938 48.5394 37.2724 48.6841 37.2543C50.2211 37.0638 51.7559 37.1499 53.3164 37.9297C53.4729 38.009 53.3079 39.0913 53.4663 39.2349C54.4353 40.0901 55.991 42.1684 56.4046 37.4655C57.0481 37.6286 57.8282 37.7936 58.4281 38.7204C58.8148 39.3169 58.4939 40.5003 58.9303 39.986C59.0287 39.8714 58.8643 38.8488 59.0144 38.7546C59.6462 38.3587 60.3596 38.6706 60.9797 38.1204C61.1058 38.0061 61.0419 37.0872 61.0734 36.9204C61.3401 35.5692 61.9223 37.771 62.0392 37.9287C62.9286 39.104 63.5361 38.6118 64.3308 38.6165C64.5153 38.6181 64.2591 37.3891 64.4352 37.3463C65.349 37.1406 66.3046 37.2172 67.2218 37.7376C67.4259 37.8563 67.2745 38.9147 67.3737 39.0253C67.8107 39.5001 67.8425 37.509 68.2605 37.926C68.3485 38.0114 68.3284 38.914 68.3471 39.0125C68.6388 40.5585 68.782 38.3506 68.8432 38.3001C69.6149 37.6114 70.1927 39.8937 70.948 39.5446C71.0383 39.5005 70.7964 38.3667 71.0524 38.3125C72.7575 37.9444 74.5809 38.2013 76.3066 39.0606C76.5749 39.1927 76.4131 40.055 76.433 40.1601C76.7549 41.8015 76.8614 39.5855 76.9448 39.4996C77.6051 38.8793 78.2969 40.7134 78.6764 38.0662C81.5799 38.8906 84.3959 37.3232 87.3206 39.5934C87.3577 39.6196 87.3266 40.7103 87.4004 40.7578C88.2903 41.3421 88.0705 39.6553 88.5825 37.568C88.7116 37.0439 89.2307 39.5286 89.2755 39.7105C89.4388 40.3809 89.3415 42.0052 89.3932 42.1344C89.8195 43.1484 89.5889 37.7941 90.121 37.7758C90.1379 37.7842 90.0986 38.7723 90.1463 38.869C90.2946 39.1724 90.42 38.7764 90.5663 39.1115C90.9015 39.8872 91.093 42.4864 91.5206 40.9569C91.5745 40.7585 91.3884 37.723 91.868 37.8518C92.0592 37.9057 92.896 37.8276 93.1371 38.0172C93.3779 38.2065 93.2472 39.1906 93.2652 39.2325C93.9378 40.5076 93.7146 41.0516 94.091 42.9585C94.467 44.8583 94.2378 40.3065 94.3511 39.7942C94.4647 39.2833 94.9615 40.3371 95.087 40.7049C95.2124 41.0728 95.0897 41.6994 95.1974 41.9065C95.9115 43.2592 95.4219 39.6367 95.6207 38.9069C96.0891 37.1791 96.6002 40.5441 97.0879 40.8602C97.2199 40.9456 97.0906 40.1796 97.2034 40.1041C97.6504 39.8152 97.9572 40.8606 98.4455 39.8782C98.5255 39.7181 98.8814 37.6744 99.1989 39.1562C99.244 39.3699 99.161 40.215 99.3611 40.3975C99.6599 40.6714 100.188 40.8392 100.491 40.5481C100.715 40.3328 100.408 38.9541 100.711 39.376C100.846 39.5643 100.633 40.3831 100.884 40.6693C101.133 40.9555 101.748 40.9008 101.981 40.8655C102.214 40.8296 102.053 39.7815 102.07 39.7101C102.172 39.3005 102.604 38.7793 102.644 38.7793C104.639 38.5888 106.538 40.3048 108.467 39.6575C108.618 39.6082 108.482 38.5019 108.505 38.483C109.013 38.0019 108.692 40.9643 109.088 41.9403C108.966 39.6906 109.194 40.0916 109.555 39.8332C109.728 39.7069 109.605 38.8382 109.618 38.7485C109.84 37.4163 110.077 39.1207 110.135 39.4691C110.349 40.7506 110.492 39.2241 110.637 40.0807C110.782 40.9307 110.548 42.2049 110.901 42.1777C110.975 41.3687 110.648 39.2709 110.905 38.9213C111.877 37.5988 113.818 39.1925 114.637 39.3388C115.454 39.4851 115.712 39.3283 116.194 39.6048C117.066 40.1049 116.704 38.5521 117.212 37.8204C117.722 37.0888 117.583 40.9413 117.685 41.7654C117.786 42.5891 117.842 41.7362 117.949 42.1874C118.056 42.6386 117.872 43.2068 118.097 43.3704C118.321 43.534 118.875 42.0457 118.925 41.1791C119.033 39.3432 118.703 37.4301 119.304 38.0873C119.339 38.1263 119.262 39.1406 119.393 39.2388C120.431 39.9855 121.486 40.001 122.521 40.6578C122.663 40.7497 122.574 41.8782 122.657 41.9444C123.524 42.6375 123.163 40.7507 123.56 38.6299C123.543 41.4363 123.853 43.1434 124.494 43.14C124.88 43.139 124.775 41.9167 124.998 41.0461C125.064 40.7837 125.363 41.6159 125.395 41.0385C125.499 39.1514 125.177 37.0524 125.864 37.8709C125.894 37.9098 125.833 38.9429 125.936 39.0022C126.596 39.3905 126.612 37.4194 127.305 37.1593C127.847 36.9552 128.86 38.1253 129.491 38.3012C129.576 41.4532 130.143 40.7132 130.315 38.5328C130.724 38.6092 131.158 38.4727 131.559 38.7609C131.697 38.8591 131.636 39.7744 131.657 39.8724C131.965 41.411 132.076 39.2914 132.161 39.2058C133.084 38.3707 133.907 39.949 134.763 38.355C134.793 38.2976 134.778 36.1067 135.069 37.6977C135.088 37.8074 134.82 38.8127 135.248 38.8765C135.677 38.9405 136.516 40.0892 137.076 39.0564C137.211 38.8077 137.518 37.0193 137.851 38.3988C137.896 38.5861 137.873 39.2153 137.94 39.563C138.155 40.6707 138.185 38.4548 138.455 40.3281C138.726 42.2013 139.211 43.5954 139.767 42.2799C139.785 42.2416 139.871 40.4834 140.06 40.5053C140.36 40.5418 140.797 40.894 141.109 40.8728C141.258 40.8621 141.129 39.776 141.154 39.7553C142.141 39.1138 142.887 40.0624 143.978 40.4503C144.178 40.5236 144.7 39.0209 145.119 40.1831C145.579 41.4553 145.313 46.8152 146.239 45.5114C146.613 44.9899 146.895 38.1916 147.704 41.6841C149.034 40.7712 150.345 42.5308 151.667 41.2451C151.727 41.1881 151.861 39.289 152.006 39.3103C152.221 39.3456 152.366 40.2267 152.52 40.2803C153.167 40.527 153.729 39.7518 154.348 39.8504C154.584 39.8859 154.53 40.8033 154.811 40.8458C155.091 40.8874 155.24 39.6769 155.636 40.247C155.935 40.6817 156.297 43.1352 156.684 43.4105C156.623 40.9811 156.885 41.0231 157.328 40.3675C157.413 40.2404 157.291 39.398 157.33 39.2942C157.488 38.8532 157.668 39.5489 157.815 39.0696C157.851 38.9544 157.828 38.1249 157.856 37.9839C158.092 36.7538 158.603 38.6056 158.691 38.9281C159.027 40.1526 159.133 39.0694 159.376 39.5482C159.62 40.0269 159.297 40.6448 159.573 40.9313C160.144 41.5239 160.85 41.3679 161.412 41.3886C161.637 41.3917 161.45 40.2892 161.481 40.264C161.935 39.9688 162.44 41.132 162.628 38.9185C163.126 44.6112 162.89 38.3567 163.587 39.4777C163.642 39.5685 163.792 42.2631 163.604 42.6653C163.417 43.067 163.087 42.2335 162.828 42.8592C162.767 43.0061 162.469 45.5448 162.422 45.6995C162.057 46.9083 161.875 42.8802 161.847 42.6595C161.531 40.2784 161.155 43.015 161.04 43.2069C160.512 44.0861 160.023 43.534 159.579 44.1636C159.288 44.5707 159.34 47.2113 159.099 47.1379C158.299 46.8955 157.909 43.2216 157.262 46.4377C157.123 47.1236 157.371 50.0039 156.728 47.753C156.687 47.6111 156.197 45.5489 155.992 46.8693C155.966 47.0357 155.993 47.8766 155.955 47.9485C155.696 48.4138 155.493 47.7496 155.206 48.0797C154.919 48.4097 154.576 48.8991 154.228 48.6245C154.018 48.4603 153.706 46.9018 153.597 46.5213C153.286 45.425 153.046 47.2458 152.833 45.9132C152.618 44.5739 152.892 42.5213 152.412 41.6665C152.464 43.8516 152.495 46.095 152.536 48.2928C151.541 48.2467 150.542 47.5706 149.549 47.6981C149.426 47.7161 149.588 48.8866 149.457 48.9361C148.905 49.1401 148.391 48.318 147.822 48.6694C147.382 48.9459 146.929 50.2046 146.469 50.5325C146.105 48.0416 145.436 48.9118 144.924 48.6991C144.744 48.6256 144.735 47.9576 144.603 47.7437C144.103 46.9529 144.394 49.155 144.274 49.5067C143.762 51.0077 143.559 46.0093 142.904 46.1533C142.869 46.1592 142.525 48.8376 142.472 49.0054C142.132 50.0993 142.381 48.0797 142.141 47.89C141.704 47.5434 141.387 46.9161 140.911 47.7123C140.772 47.9481 140.474 49.6201 140.151 48.344C140.108 48.1769 140.101 47.2953 140.07 47.2447C139.5 46.4016 139.572 49.1701 139.29 50.1172C139.009 51.0641 138.47 49.1681 138.356 48.6204C138.056 47.2037 138.532 48.0055 138.542 47.8653C138.652 46.1964 138.312 46.4937 138.04 46.3615C137.917 43.6486 137.549 43.8231 137.759 46.2352C137.783 46.4987 137.983 46.2391 138.04 46.3615C137.888 49.0316 137.488 49.3854 136.957 46.9111C136.709 45.7514 136.867 44.3853 136.238 44.9028C135.952 45.1364 136.123 47.0017 135.881 47.5192C135.327 48.7 134.506 46.9806 133.906 47.2742C133.688 47.3807 133.935 48.397 133.787 48.5051C133.396 48.7952 133.018 48.0386 132.628 48.4443C132.593 48.4823 132.715 49.5504 132.591 49.5679C131.647 49.7217 130.8 49.0615 129.809 49.0732C129.33 49.0794 128.494 49.6965 127.994 49.5932C127.129 49.4204 126.025 47.896 125.303 48.2971C124.832 48.5541 124.97 49.6219 124.788 50.358C124.436 51.7848 123.657 49.2728 123.55 48.8834C123.547 48.8705 123.951 48.6052 123.714 48.0622C123.551 46.9206 123.555 48.8782 123.55 48.8834C123.481 48.6318 122.651 48.4142 122.494 48.624C122.408 48.7387 122.489 49.7519 122.444 49.7925C121.373 50.7348 120.279 51.0269 119.149 50.5871C119.129 50.5672 119.123 49.4312 119.076 49.3986C118.414 48.914 118.044 50.3154 117.537 51.1563C117.03 51.9969 116.599 51.734 116.223 49.7952C115.829 50.053 115.226 49.2095 114.878 48.697C114.53 48.1846 114.552 50.3956 114.524 50.4402C113.657 51.8665 113.092 50.6182 112.141 50.4507C111.689 50.3672 110.808 50.7154 110.33 50.9721C109.952 51.1787 109.704 50.6681 109.36 51.0102C109.314 51.0559 109.393 52.0382 109.379 52.0765C109.021 53.2658 109.136 50.8549 109.041 50.4279C108.697 48.8751 108.488 48.0488 108.005 48.7993C107.893 48.9712 107.661 52.4447 107.454 52.6538C107.186 52.9194 107.252 51.6749 106.971 51.9846C106.947 52.0099 106.976 52.7755 106.797 52.7473C105.962 52.6264 105.044 52.2089 104.184 52.3125C104.066 52.3237 104.255 53.5336 104.086 53.5698C103.292 53.7385 102.415 53.7208 101.619 53.1764C101.423 53.0386 101.517 52.1844 101.468 51.9332C101.165 50.4133 100.872 52.6445 100.814 52.6886C99.4224 53.7996 98.2699 51.8245 96.8478 52.8261C96.7706 52.8847 96.2362 55.2834 95.9014 53.2508C95.8786 53.1156 95.5452 51.0357 95.3522 52.4708C95.3402 52.5606 95.5409 53.6304 95.2455 53.5299C94.9501 53.4297 94.5025 54.1622 94.0645 52.9935C93.9259 52.6253 93.5608 50.5516 93.2334 52.2239C93.2123 52.3405 92.7438 56.1133 92.4545 53.5293C92.4074 53.1039 92.3577 50.3615 91.949 51.7811C91.871 52.0563 92.0469 52.6628 91.831 53.0517C91.5004 53.651 91.0154 52.9312 90.6244 54.1656C90.5563 54.3841 90.2957 56.2547 89.9965 54.8504C89.9496 54.6304 89.9972 53.7129 89.8591 53.6147C89.2025 53.1433 88.55 53.7763 87.8791 53.1633C87.6416 52.948 87.7136 51.4648 87.4608 51.0758C87.208 50.687 86.7117 50.3207 86.4811 51.0046C86.2505 51.6889 86.5986 54.0383 86.2275 54.2387C84.6139 55.1091 82.9473 53.7762 81.3045 53.6247C81.0608 53.602 81.2882 54.4395 80.931 54.4667C79.6141 54.5704 77.3618 55.4322 76.1617 53.6749C75.2002 52.2674 76.3201 51.1383 75.6013 50.5757C75.2545 50.3074 74.9739 53.0602 74.8949 53.149C74.1248 54.0505 73.533 52.8533 72.8269 53.2482C72.6811 53.3301 72.861 54.4367 72.7365 54.4941C72.3117 54.7002 71.8435 54.2183 71.4346 54.3218C71.2513 54.3708 71.3117 55.2184 71.1397 55.1581C70.7285 55.0238 70.3578 54.6783 69.9367 53.8952C69.8984 53.8238 70.1092 52.7606 69.8071 52.7307C69.3183 52.6853 68.6896 51.9194 68.1545 52.7471C67.9959 52.996 68.0496 54.9357 67.6507 53.6074C67.5671 53.33 67.5904 50.998 67.2367 53.0233C67.1771 53.3598 66.5622 56.0958 66.1648 54.3569C66.0599 53.8992 65.7697 52.0006 65.5791 52.3063C65.5535 52.3549 65.6945 53.3934 65.532 53.5001C64.9588 53.8582 64.3436 53.7661 63.754 54.111C63.5967 54.2052 63.8686 55.2758 63.633 55.3817C62.9851 55.6746 62.1571 55.4256 61.5048 55.1081C61.2643 54.989 61.4001 54.0909 61.3799 53.9942C61.0539 52.4221 60.9565 54.5608 60.8684 54.6881C60.32 55.4507 59.8537 54.462 59.3351 54.7436C59.1919 54.8186 59.3266 55.8327 59.3005 55.9243C59.0278 56.82 59.1947 54.9861 58.9984 54.7906C58.4485 54.2369 57.8577 54.3371 57.3235 54.4838C57.1274 54.5392 57.3862 55.7119 57.2097 55.7479C56.1659 55.9838 55.0707 55.9048 54.0257 55.2864C53.8288 55.1678 53.922 54.2557 53.8754 54.0495C53.5531 52.6066 53.2084 54.599 53.1207 54.7905C52.7224 55.6648 52.5324 54.8667 52.1617 55.0283C50.3513 55.8317 48.0707 55.37 46.3297 55.0951C44.0611 54.7422 42.2841 53.9324 40.1403 54.2236C40.004 54.241 40.1794 55.445 40.0624 55.4755C38.55 55.814 37.0376 55.3884 35.524 55.7847C35.3997 55.8151 35.6156 56.955 35.4173 57.0423C35.0109 57.2294 34.4873 57.1833 34.0595 56.8305C33.8509 56.6605 34.0928 55.6691 33.8835 55.5182C33.396 55.1644 32.8833 55.0987 32.4 55.2975C32.1944 55.3846 32.5448 56.5464 32.2747 56.5684C30.436 56.7418 28.6329 56.9998 26.7241 55.5405C26.5932 55.4402 26.4073 53.0626 26.1501 53.5276C26.1502 54.1891 26.1754 54.9664 26.1885 55.673C23.5183 56.1368 20.8382 55.3937 18.1447 55.3496C18.0312 55.3481 18.2663 56.6036 18.0467 56.6069C16.7755 56.6278 15.5525 57.0156 14.2139 55.802C14.0811 55.6833 14.0783 53.4618 13.7087 53.8092C13.6436 53.8726 13.0804 54.1863 12.9474 54.6728C12.9296 54.7461 13.0662 55.7788 12.8827 55.8147C11.8158 56.0053 10.6853 55.8037 9.59566 55.2039C9.41974 55.1052 9.56937 53.9962 9.44378 53.9163C8.55316 53.3577 7.63024 54.2259 6.76548 53.2501C6.18652 52.593 6.33389 50.6795 5.97907 48.8115C5.92891 48.548 5.58206 48.5168 5.53027 47.4252C5.39911 44.6802 5.47308 41.6678 5.3135 38.7425C5.27941 38.1125 4.83773 38.806 5.0644 37.2737C5.08037 37.1712 5.40017 36.6551 5.46676 36.1356C5.51319 35.7764 5.37502 34.6689 5.4782 34.2078C5.58139 33.7471 5.73928 34.6742 5.9172 34.1307C6.09483 33.5805 5.97005 32.3195 6.35389 32.1579ZM113.312 46.407C112.971 45.3555 113.047 49.2432 113.35 48.3031C113.365 48.253 113.329 46.4586 113.312 46.407ZM150.456 44.639C150.002 42.9373 149.805 45.4664 150.129 46.7814C150.454 48.0951 150.595 45.1549 150.456 44.639ZM154.582 43.2582C154.07 41.9213 154.168 47.4346 154.636 46.3049C154.663 46.241 154.611 43.3359 154.582 43.2582ZM7.33759 48.2343C7.33175 48.1828 7.0818 48.1402 7.07745 48.1916C6.98352 49.43 7.48329 49.5143 7.33759 48.2343ZM158.671 41.7674C158.502 41.0265 158.107 41.9002 158.317 42.8215C158.487 43.5627 158.883 42.6891 158.671 41.7674ZM97.1597 42.7569C97.1531 42.6991 96.9734 42.6525 96.9871 42.9797C97.032 44.0337 97.2705 43.7285 97.1597 42.7569ZM165.692 41.4859C164.648 41.3107 163.878 36.7778 165.024 37.2564C165.231 37.343 164.628 38.7218 164.901 39.1242C165.401 39.8571 165.628 36.9889 166.162 38.5055C166.259 38.7831 165.752 41.506 165.691 41.4923C165.691 41.4901 165.692 41.488 165.692 41.4859ZM112.99 41.7445C112.982 41.6933 112.734 41.6522 112.73 41.7034C112.634 42.9413 113.134 43.0248 112.99 41.7445ZM86.694 40.6766C86.677 40.5675 86.1017 40.4828 86.0862 40.5843C85.8504 42.6112 87.0136 42.7883 86.694 40.6766ZM129.504 38.3849C129.734 37.1354 130.051 36.9792 130.314 38.5312C130.044 38.4568 129.775 38.453 129.504 38.3849Z" fill="#C6A77D"/>
<path d="M6.35389 64.1579C7.24558 63.7914 8.43946 64.1166 9.35368 64.5855C9.64014 64.7308 9.5189 65.424 9.71761 65.5554C10.1062 65.8114 10.45 65.4626 10.8358 65.7699C10.9637 65.8752 10.8425 66.971 10.9759 67.0563C11.7065 67.5163 12.3749 67.2174 13.1071 67.4268C16.7136 68.4601 20.2365 68.7607 23.8665 69.1455C25.0634 69.2715 26.543 70.2166 27.7606 69.7454C27.9027 69.6894 27.7873 68.7344 27.8122 68.6546C28.2035 67.433 28.121 69.3707 28.4089 69.6189C29.5518 70.5985 30.7903 70.6483 31.8483 70.2455C32.2983 70.0714 31.7831 68.1834 32.2744 69.2368C32.3084 69.308 32.2246 70.3285 32.3527 70.4331C32.6433 70.6683 33.1745 70.4698 33.3963 70.5436C33.824 70.6909 33.8936 70.6785 34.2937 70.6777C34.841 70.6854 35.5067 71.1707 36.086 70.9221C36.2095 70.866 36.0114 69.8286 36.2055 69.645C36.3998 69.4617 36.9311 69.5337 37.1169 69.7739C37.3028 70.0143 37.2523 70.836 37.2897 71.0228C37.5984 72.5999 38.1416 70.3855 38.2186 70.3287C39.6241 69.359 40.8929 70.5715 42.2391 70.5262C43.261 70.4891 44.341 70.0422 45.3153 70.0686C46.4761 70.1042 47.4756 70.6386 48.5982 70.5065C48.7167 70.4938 48.5394 69.2724 48.6841 69.2543C50.2211 69.0638 51.7559 69.1499 53.3164 69.9297C53.4729 70.009 53.3079 71.0913 53.4663 71.2349C54.4353 72.0901 55.991 74.1684 56.4046 69.4655C57.0481 69.6286 57.8282 69.7936 58.4281 70.7204C58.8148 71.3169 58.4939 72.5003 58.9303 71.986C59.0287 71.8714 58.8643 70.8488 59.0144 70.7546C59.6462 70.3587 60.3596 70.6706 60.9797 70.1204C61.1058 70.0061 61.0419 69.0872 61.0734 68.9204C61.3401 67.5692 61.9223 69.771 62.0392 69.9287C62.9286 71.104 63.5361 70.6118 64.3308 70.6165C64.5153 70.6181 64.2591 69.3891 64.4352 69.3463C65.349 69.1406 66.3046 69.2172 67.2218 69.7376C67.4259 69.8563 67.2745 70.9147 67.3737 71.0253C67.8107 71.5001 67.8425 69.509 68.2605 69.926C68.3485 70.0114 68.3284 70.914 68.3471 71.0125C68.6388 72.5585 68.782 70.3506 68.8432 70.3001C69.6149 69.6114 70.1927 71.8937 70.948 71.5446C71.0383 71.5005 70.7964 70.3667 71.0524 70.3125C72.7575 69.9444 74.5809 70.2013 76.3066 71.0606C76.5749 71.1927 76.4131 72.055 76.433 72.1601C76.7549 73.8015 76.8614 71.5855 76.9448 71.4996C77.6051 70.8793 78.2969 72.7134 78.6764 70.0662C81.5799 70.8906 84.3959 69.3232 87.3206 71.5934C87.3577 71.6196 87.3266 72.7103 87.4004 72.7578C88.2903 73.3421 88.0705 71.6553 88.5825 69.568C88.7116 69.0439 89.2307 71.5286 89.2755 71.7105C89.4388 72.3809 89.3415 74.0052 89.3932 74.1344C89.8195 75.1484 89.5889 69.7941 90.121 69.7758C90.1379 69.7842 90.0986 70.7723 90.1463 70.869C90.2946 71.1724 90.42 70.7764 90.5663 71.1115C90.9015 71.8872 91.093 74.4864 91.5206 72.9569C91.5745 72.7585 91.3884 69.723 91.868 69.8518C92.0592 69.9057 92.896 69.8276 93.1371 70.0172C93.3779 70.2065 93.2472 71.1906 93.2652 71.2325C93.9378 72.5076 93.7146 73.0516 94.091 74.9585C94.467 76.8583 94.2378 72.3065 94.3511 71.7942C94.4647 71.2833 94.9615 72.3371 95.087 72.7049C95.2124 73.0728 95.0897 73.6994 95.1974 73.9065C95.9115 75.2592 95.4219 71.6367 95.6207 70.9069C96.0891 69.1791 96.6002 72.5441 97.0879 72.8602C97.2199 72.9456 97.0906 72.1796 97.2034 72.1041C97.6504 71.8152 97.9572 72.8606 98.4455 71.8782C98.5255 71.7181 98.8814 69.6744 99.1989 71.1562C99.244 71.3699 99.161 72.215 99.3611 72.3975C99.6599 72.6714 100.188 72.8392 100.491 72.5481C100.715 72.3328 100.408 70.9541 100.711 71.376C100.846 71.5643 100.633 72.3831 100.884 72.6693C101.133 72.9555 101.748 72.9008 101.981 72.8655C102.214 72.8296 102.053 71.7815 102.07 71.7101C102.172 71.3005 102.604 70.7793 102.644 70.7793C104.639 70.5888 106.538 72.3048 108.467 71.6575C108.618 71.6082 108.482 70.5019 108.505 70.483C109.013 70.0019 108.692 72.9643 109.088 73.9403C108.966 71.6906 109.194 72.0916 109.555 71.8332C109.728 71.7069 109.605 70.8382 109.618 70.7485C109.84 69.4163 110.077 71.1207 110.135 71.4691C110.349 72.7506 110.492 71.2241 110.637 72.0807C110.782 72.9307 110.548 74.2049 110.901 74.1777C110.975 73.3687 110.648 71.2709 110.905 70.9213C111.877 69.5988 113.818 71.1925 114.637 71.3388C115.454 71.4851 115.712 71.3283 116.194 71.6048C117.066 72.1049 116.704 70.5521 117.212 69.8204C117.722 69.0888 117.583 72.9413 117.685 73.7654C117.786 74.5891 117.842 73.7362 117.949 74.1874C118.056 74.6386 117.872 75.2068 118.097 75.3704C118.321 75.534 118.875 74.0457 118.925 73.1791C119.033 71.3432 118.703 69.4301 119.304 70.0873C119.339 70.1263 119.262 71.1406 119.393 71.2388C120.431 71.9855 121.486 72.001 122.521 72.6578C122.663 72.7497 122.574 73.8782 122.657 73.9444C123.524 74.6375 123.163 72.7507 123.56 70.6299C123.543 73.4363 123.853 75.1434 124.494 75.14C124.88 75.139 124.775 73.9167 124.998 73.0461C125.064 72.7837 125.363 73.6159 125.395 73.0385C125.499 71.1514 125.177 69.0524 125.864 69.8709C125.894 69.9098 125.833 70.9429 125.936 71.0022C126.596 71.3905 126.612 69.4194 127.305 69.1593C127.847 68.9552 128.86 70.1253 129.491 70.3012C129.576 73.4532 130.143 72.7132 130.315 70.5328C130.724 70.6092 131.158 70.4727 131.559 70.7609C131.697 70.8591 131.636 71.7744 131.657 71.8724C131.965 73.411 132.076 71.2914 132.161 71.2058C133.084 70.3707 133.907 71.949 134.763 70.355C134.793 70.2976 134.778 68.1067 135.069 69.6977C135.088 69.8074 134.82 70.8127 135.248 70.8765C135.677 70.9405 136.516 72.0892 137.076 71.0564C137.211 70.8077 137.518 69.0193 137.851 70.3988C137.896 70.5861 137.873 71.2153 137.94 71.563C138.155 72.6707 138.185 70.4548 138.455 72.3281C138.726 74.2013 139.211 75.5954 139.767 74.2799C139.785 74.2416 139.871 72.4834 140.06 72.5053C140.36 72.5418 140.797 72.894 141.109 72.8728C141.258 72.8621 141.129 71.776 141.154 71.7553C142.141 71.1138 142.887 72.0624 143.978 72.4503C144.178 72.5236 144.7 71.0209 145.119 72.1831C145.579 73.4553 145.313 78.8152 146.239 77.5114C146.613 76.9899 146.895 70.1916 147.704 73.6841C149.034 72.7712 150.345 74.5308 151.667 73.2451C151.727 73.1881 151.861 71.289 152.006 71.3103C152.221 71.3456 152.366 72.2267 152.52 72.2803C153.167 72.527 153.729 71.7518 154.348 71.8504C154.584 71.8859 154.53 72.8033 154.811 72.8458C155.091 72.8874 155.24 71.6769 155.636 72.247C155.935 72.6817 156.297 75.1352 156.684 75.4105C156.623 72.9811 156.885 73.0231 157.328 72.3675C157.413 72.2404 157.291 71.398 157.33 71.2942C157.488 70.8532 157.668 71.5489 157.815 71.0696C157.851 70.9544 157.828 70.1249 157.856 69.9839C158.092 68.7538 158.603 70.6056 158.691 70.9281C159.027 72.1526 159.133 71.0694 159.376 71.5482C159.62 72.0269 159.297 72.6448 159.573 72.9313C160.144 73.5239 160.85 73.3679 161.412 73.3886C161.637 73.3917 161.45 72.2892 161.481 72.264C161.935 71.9688 162.44 73.132 162.628 70.9185C163.126 76.6112 162.89 70.3567 163.587 71.4777C163.642 71.5685 163.792 74.2631 163.604 74.6653C163.417 75.067 163.087 74.2335 162.828 74.8592C162.767 75.0061 162.469 77.5448 162.422 77.6995C162.057 78.9083 161.875 74.8802 161.847 74.6595C161.531 72.2784 161.155 75.015 161.04 75.2069C160.512 76.0861 160.023 75.534 159.579 76.1636C159.288 76.5707 159.34 79.2113 159.099 79.1379C158.299 78.8955 157.909 75.2216 157.262 78.4377C157.123 79.1236 157.371 82.0039 156.728 79.753C156.687 79.6111 156.197 77.5489 155.992 78.8693C155.966 79.0357 155.993 79.8766 155.955 79.9485C155.696 80.4138 155.493 79.7496 155.206 80.0797C154.919 80.4097 154.576 80.8991 154.228 80.6245C154.018 80.4603 153.706 78.9018 153.597 78.5213C153.286 77.425 153.046 79.2458 152.833 77.9132C152.618 76.5739 152.892 74.5213 152.412 73.6665C152.464 75.8516 152.495 78.095 152.536 80.2928C151.541 80.2467 150.542 79.5706 149.549 79.6981C149.426 79.7161 149.588 80.8866 149.457 80.9361C148.905 81.1401 148.391 80.318 147.822 80.6694C147.382 80.9459 146.929 82.2046 146.469 82.5325C146.105 80.0416 145.436 80.9118 144.924 80.6991C144.744 80.6256 144.735 79.9576 144.603 79.7437C144.103 78.9529 144.394 81.155 144.274 81.5067C143.762 83.0077 143.559 78.0093 142.904 78.1533C142.869 78.1592 142.525 80.8376 142.472 81.0054C142.132 82.0993 142.381 80.0797 142.141 79.89C141.704 79.5434 141.387 78.9161 140.911 79.7123C140.772 79.9481 140.474 81.6201 140.151 80.344C140.108 80.1769 140.101 79.2953 140.07 79.2447C139.5 78.4016 139.572 81.1701 139.29 82.1172C139.009 83.0641 138.47 81.1681 138.356 80.6204C138.056 79.2037 138.532 80.0055 138.542 79.8653C138.652 78.1964 138.312 78.4937 138.04 78.3615C137.917 75.6486 137.549 75.8231 137.759 78.2352C137.783 78.4987 137.983 78.2391 138.04 78.3615C137.888 81.0316 137.488 81.3854 136.957 78.9111C136.709 77.7514 136.867 76.3853 136.238 76.9028C135.952 77.1364 136.123 79.0017 135.881 79.5192C135.327 80.7 134.506 78.9806 133.906 79.2742C133.688 79.3807 133.935 80.397 133.787 80.5051C133.396 80.7952 133.018 80.0386 132.628 80.4443C132.593 80.4823 132.715 81.5504 132.591 81.5679C131.647 81.7217 130.8 81.0615 129.809 81.0732C129.33 81.0794 128.494 81.6965 127.994 81.5932C127.129 81.4204 126.025 79.896 125.303 80.2971C124.832 80.5541 124.97 81.6219 124.788 82.358C124.436 83.7848 123.657 81.2728 123.55 80.8834C123.547 80.8705 123.951 80.6052 123.714 80.0622C123.551 78.9206 123.555 80.8782 123.55 80.8834C123.481 80.6318 122.651 80.4142 122.494 80.624C122.408 80.7387 122.489 81.7519 122.444 81.7925C121.373 82.7348 120.279 83.0269 119.149 82.5871C119.129 82.5672 119.123 81.4312 119.076 81.3986C118.414 80.914 118.044 82.3154 117.537 83.1563C117.03 83.9969 116.599 83.734 116.223 81.7952C115.829 82.053 115.226 81.2095 114.878 80.697C114.53 80.1846 114.552 82.3956 114.524 82.4402C113.657 83.8665 113.092 82.6182 112.141 82.4507C111.689 82.3672 110.808 82.7154 110.33 82.9721C109.952 83.1787 109.704 82.6681 109.36 83.0102C109.314 83.0559 109.393 84.0382 109.379 84.0765C109.021 85.2658 109.136 82.8549 109.041 82.4279C108.697 80.8751 108.488 80.0488 108.005 80.7993C107.893 80.9712 107.661 84.4447 107.454 84.6538C107.186 84.9194 107.252 83.6749 106.971 83.9846C106.947 84.0099 106.976 84.7755 106.797 84.7473C105.962 84.6264 105.044 84.2089 104.184 84.3125C104.066 84.3237 104.255 85.5336 104.086 85.5698C103.292 85.7385 102.415 85.7208 101.619 85.1764C101.423 85.0386 101.517 84.1844 101.468 83.9332C101.165 82.4133 100.872 84.6445 100.814 84.6886C99.4224 85.7996 98.2699 83.8245 96.8478 84.8261C96.7706 84.8847 96.2362 87.2834 95.9014 85.2508C95.8786 85.1156 95.5452 83.0357 95.3522 84.4708C95.3402 84.5606 95.5409 85.6304 95.2455 85.5299C94.9501 85.4297 94.5025 86.1622 94.0645 84.9935C93.9259 84.6253 93.5608 82.5516 93.2334 84.2239C93.2123 84.3405 92.7438 88.1133 92.4545 85.5293C92.4074 85.1039 92.3577 82.3615 91.949 83.7811C91.871 84.0563 92.0469 84.6628 91.831 85.0517C91.5004 85.651 91.0154 84.9312 90.6244 86.1656C90.5563 86.3841 90.2957 88.2547 89.9965 86.8504C89.9496 86.6304 89.9972 85.7129 89.8591 85.6147C89.2025 85.1433 88.55 85.7763 87.8791 85.1633C87.6416 84.948 87.7136 83.4648 87.4608 83.0758C87.208 82.687 86.7117 82.3207 86.4811 83.0046C86.2505 83.6889 86.5986 86.0383 86.2275 86.2387C84.6139 87.1091 82.9473 85.7762 81.3045 85.6247C81.0608 85.602 81.2882 86.4395 80.931 86.4667C79.6141 86.5704 77.3618 87.4322 76.1617 85.6749C75.2002 84.2674 76.3201 83.1383 75.6013 82.5757C75.2545 82.3074 74.9739 85.0602 74.8949 85.149C74.1248 86.0505 73.533 84.8533 72.8269 85.2482C72.6811 85.3301 72.861 86.4367 72.7365 86.4941C72.3117 86.7002 71.8435 86.2183 71.4346 86.3218C71.2513 86.3708 71.3117 87.2184 71.1397 87.1581C70.7285 87.0238 70.3578 86.6783 69.9367 85.8952C69.8984 85.8238 70.1092 84.7606 69.8071 84.7307C69.3183 84.6853 68.6896 83.9194 68.1545 84.7471C67.9959 84.996 68.0496 86.9357 67.6507 85.6074C67.5671 85.33 67.5904 82.998 67.2367 85.0233C67.1771 85.3598 66.5622 88.0958 66.1648 86.3569C66.0599 85.8992 65.7697 84.0006 65.5791 84.3063C65.5535 84.3549 65.6945 85.3934 65.532 85.5001C64.9588 85.8582 64.3436 85.7661 63.754 86.111C63.5967 86.2052 63.8686 87.2758 63.633 87.3817C62.9851 87.6746 62.1571 87.4256 61.5048 87.1081C61.2643 86.989 61.4001 86.0909 61.3799 85.9942C61.0539 84.4221 60.9565 86.5608 60.8684 86.6881C60.32 87.4507 59.8537 86.462 59.3351 86.7436C59.1919 86.8186 59.3266 87.8327 59.3005 87.9243C59.0278 88.82 59.1947 86.9861 58.9984 86.7906C58.4485 86.2369 57.8577 86.3371 57.3235 86.4838C57.1274 86.5392 57.3862 87.7119 57.2097 87.7479C56.1659 87.9838 55.0707 87.9048 54.0257 87.2864C53.8288 87.1678 53.922 86.2557 53.8754 86.0495C53.5531 84.6066 53.2084 86.599 53.1207 86.7905C52.7224 87.6648 52.5324 86.8667 52.1617 87.0283C50.3513 87.8317 48.0707 87.37 46.3297 87.0951C44.0611 86.7422 42.2841 85.9324 40.1403 86.2236C40.004 86.241 40.1794 87.445 40.0624 87.4755C38.55 87.814 37.0376 87.3884 35.524 87.7847C35.3997 87.8151 35.6156 88.955 35.4173 89.0423C35.0109 89.2294 34.4873 89.1833 34.0595 88.8305C33.8509 88.6605 34.0928 87.6691 33.8835 87.5182C33.396 87.1644 32.8833 87.0987 32.4 87.2975C32.1944 87.3846 32.5448 88.5464 32.2747 88.5684C30.436 88.7418 28.6329 88.9998 26.7241 87.5405C26.5932 87.4402 26.4073 85.0626 26.1501 85.5276C26.1502 86.1891 26.1754 86.9664 26.1885 87.673C23.5183 88.1368 20.8382 87.3937 18.1447 87.3496C18.0312 87.3481 18.2663 88.6036 18.0467 88.6069C16.7755 88.6278 15.5525 89.0156 14.2139 87.802C14.0811 87.6833 14.0783 85.4618 13.7087 85.8092C13.6436 85.8726 13.0804 86.1863 12.9474 86.6728C12.9296 86.7461 13.0662 87.7788 12.8827 87.8147C11.8158 88.0053 10.6853 87.8037 9.59566 87.2039C9.41974 87.1052 9.56937 85.9962 9.44378 85.9163C8.55316 85.3577 7.63024 86.2259 6.76548 85.2501C6.18652 84.593 6.33389 82.6795 5.97907 80.8115C5.92891 80.548 5.58206 80.5168 5.53027 79.4252C5.39911 76.6802 5.47308 73.6678 5.3135 70.7425C5.27941 70.1125 4.83773 70.806 5.0644 69.2737C5.08037 69.1712 5.40017 68.6551 5.46676 68.1356C5.51319 67.7764 5.37502 66.6689 5.4782 66.2078C5.58139 65.7471 5.73928 66.6742 5.9172 66.1307C6.09483 65.5805 5.97005 64.3195 6.35389 64.1579ZM113.312 78.407C112.971 77.3555 113.047 81.2432 113.35 80.3031C113.365 80.253 113.329 78.4586 113.312 78.407ZM150.456 76.639C150.002 74.9373 149.805 77.4664 150.129 78.7814C150.454 80.0951 150.595 77.1549 150.456 76.639ZM154.582 75.2582C154.07 73.9213 154.168 79.4346 154.636 78.3049C154.663 78.241 154.611 75.3359 154.582 75.2582ZM7.33759 80.2343C7.33175 80.1828 7.0818 80.1402 7.07745 80.1916C6.98352 81.43 7.48329 81.5143 7.33759 80.2343ZM158.671 73.7674C158.502 73.0265 158.107 73.9002 158.317 74.8215C158.487 75.5627 158.883 74.6891 158.671 73.7674ZM97.1597 74.7569C97.1531 74.6991 96.9734 74.6525 96.9871 74.9797C97.032 76.0337 97.2705 75.7285 97.1597 74.7569ZM165.692 73.4859C164.648 73.3107 163.878 68.7778 165.024 69.2564C165.231 69.343 164.628 70.7218 164.901 71.1242C165.401 71.8571 165.628 68.9889 166.162 70.5055C166.259 70.7831 165.752 73.506 165.691 73.4923C165.691 73.4901 165.692 73.488 165.692 73.4859ZM112.99 73.7445C112.982 73.6933 112.734 73.6522 112.73 73.7034C112.634 74.9413 113.134 75.0248 112.99 73.7445ZM86.694 72.6766C86.677 72.5675 86.1017 72.4828 86.0862 72.5843C85.8504 74.6112 87.0136 74.7883 86.694 72.6766ZM129.504 70.3849C129.734 69.1354 130.051 68.9792 130.314 70.5312C130.044 70.4568 129.775 70.453 129.504 70.3849Z" fill="#C6A77D"/>
</svg>
