<svg width="36" height="42" viewBox="0 0 36 42" fill="none" xmlns="http://www.w3.org/2000/svg">
<path d="M33.476 7.0017L28.5436 13.8753C28.5436 10.9641 26.6838 7.72949 24.7432 5.42876C22.7217 3.44351 20.5 2.35118 17 2.35118C12 2.35118 9.13808 4.6565 8.32858 6.92083C7.81723 8.35118 8 10.8512 9 12.3512C11.4042 15.9575 30.4034 24.5496 32.2631 26.2478C32.9909 26.9123 35.0124 28.3503 35.0124 32.3127C34.3655 35.2239 31.7128 38.9518 25.5518 40.2376C17.6275 41.8914 13.5845 40.8845 9.86492 40.1202C6.98829 39.5292 2.07541 37.5325 0 36.4813L4.8516 26.086C5.71411 28.7816 8.1395 34.6546 11.2395 36.8047C15.606 39.8333 19.3255 39.9585 24.4197 37.2091C28.4951 35.0095 27.0881 31.9084 25.5518 30.5781L21.9939 28.1886L18.4361 26.0496C14.9591 24.2261 6.35872 20.5953 2.99183 16.0222C-0.97032 10.6406 0.0808783 8.22263 1.69807 5.99481C3.31526 3.76698 9.01179 -0.959417 18.4361 0.172458C27.4924 1.26014 31.9128 5.35742 33.476 7.0017Z" fill="#F6F1EA"/>
</svg>
