<svg width="1440" height="642" viewBox="0 0 1440 642" fill="none" xmlns="http://www.w3.org/2000/svg">
<rect x="0.5" y="0.5" width="1439" height="641" fill="url(#paint0_linear_749_118)" stroke="url(#paint1_linear_749_118)"/>
<g opacity="0.5" filter="url(#filter0_n_749_118)">
<rect width="1440" height="642" fill="#F9E498" fill-opacity="0.1"/>
<rect x="0.5" y="0.5" width="1439" height="641" stroke="url(#paint2_linear_749_118)"/>
</g>
<path d="M122.489 327.927C123.985 339.97 126.427 342.453 127.904 346.063L141.644 337.226C138.69 331.582 130.989 319.964 124.843 316.618C117.305 312.514 116.886 309.236 116.656 308.878C112.552 316.415 120.353 318.829 122.489 327.927Z" stroke="url(#paint3_linear_749_118)" stroke-width="2.5"/>
<path d="M102.281 350.771C109.262 360.697 112.584 361.742 115.585 364.234L123.559 349.976C118.298 346.383 106.041 339.747 99.0419 339.683C90.46 339.603 88.5497 336.907 88.1778 336.699C88.0984 345.281 96.1191 343.745 102.281 350.771Z" stroke="url(#paint4_linear_749_118)" stroke-width="2.5"/>
<path d="M98.3287 378.894C109.337 384.002 112.736 383.246 116.581 383.904L116.36 367.569C110.008 367.087 96.0748 367.467 89.9808 370.909C82.5084 375.13 79.5063 373.75 79.0802 373.756C83.3012 381.229 89.4799 375.888 98.3287 378.894Z" stroke="url(#paint5_linear_749_118)" stroke-width="2.5"/>
<path d="M179.551 322.531C169.398 329.178 168.244 332.463 165.653 335.38L179.637 343.824C183.404 338.686 190.444 326.656 190.742 319.664C191.107 311.089 193.865 309.27 194.085 308.905C185.511 308.54 186.779 316.607 179.551 322.531Z" stroke="url(#paint6_linear_749_118)" stroke-width="2.5"/>
<path d="M149.911 317.679C145.165 328.848 146.032 332.221 145.499 336.085L161.818 335.332C162.093 328.967 161.259 315.054 157.62 309.076C153.158 301.745 154.439 298.699 154.419 298.273C147.088 302.736 152.627 308.737 149.911 317.679Z" stroke="url(#paint7_linear_749_118)" stroke-width="2.5"/>
<path d="M203.737 341.621C191.678 342.98 189.167 345.393 185.54 346.829L194.22 360.668C199.897 357.779 211.603 350.211 215.019 344.103C219.209 336.613 222.491 336.231 222.852 336.005C215.362 331.815 212.859 339.589 203.737 341.621Z" stroke="url(#paint8_linear_749_118)" stroke-width="2.5"/>
<path d="M213.686 370.517C202.896 364.963 199.468 365.58 195.654 364.765L195.207 381.095C201.534 381.837 215.471 382.027 221.701 378.836C229.339 374.924 232.283 376.426 232.709 376.437C228.796 368.799 222.405 373.882 213.686 370.517Z" stroke="url(#paint9_linear_749_118)" stroke-width="2.5"/>
<path d="M208.897 398.928C201.68 389.173 198.333 388.209 195.274 385.789L187.644 400.235C192.99 403.7 205.403 410.039 212.401 409.936C220.983 409.809 222.957 412.459 223.334 412.658C223.207 404.076 215.226 405.805 208.897 398.928Z" stroke="url(#paint10_linear_749_118)" stroke-width="2.5"/>
<path d="M188.641 420.835C186.854 408.832 184.353 406.409 182.788 402.836L169.267 412.002C172.357 417.573 180.336 429.002 186.562 432.199C194.197 436.119 194.695 439.385 194.934 439.738C198.854 432.103 190.996 429.879 188.641 420.835Z" stroke="url(#paint11_linear_749_118)" stroke-width="2.5"/>
<path d="M159.577 431.45C164.988 420.588 164.327 417.169 165.091 413.344L148.757 413.112C148.098 419.448 148.092 433.386 151.364 439.574C155.376 447.16 153.913 450.123 153.907 450.549C161.494 446.537 156.327 440.212 159.577 431.45Z" stroke="url(#paint12_linear_749_118)" stroke-width="2.5"/>
<path d="M130.184 425.962C140.362 419.352 141.528 416.071 144.13 413.164L130.176 404.669C126.391 409.793 119.307 421.796 118.983 428.788C118.586 437.361 115.822 439.17 115.6 439.534C124.173 439.931 122.934 431.859 130.184 425.962Z" stroke="url(#paint13_linear_749_118)" stroke-width="2.5"/>
<path d="M107.208 406.705C119.227 405.032 121.674 402.554 125.262 401.023L116.223 387.415C110.624 390.453 99.1204 398.324 95.8647 404.519C91.8726 412.117 88.6017 412.584 88.2468 412.82C95.844 416.812 98.1423 408.975 107.208 406.705Z" stroke="url(#paint14_linear_749_118)" stroke-width="2.5"/>
<path d="M155.758 336.43C177.449 336.43 194.904 353.477 194.904 374.35C194.904 395.224 177.449 412.271 155.758 412.271C134.068 412.271 116.613 395.223 116.613 374.35C116.613 353.477 134.068 336.43 155.758 336.43Z" stroke="url(#paint15_linear_749_118)" stroke-width="5"/>
<path d="M155.406 342.279C173.627 342.279 188.35 356.64 188.35 374.296C188.35 391.953 173.627 406.313 155.406 406.313C137.186 406.313 122.462 391.953 122.462 374.296C122.462 356.64 137.186 342.279 155.406 342.279Z" stroke="url(#paint16_linear_749_118)" stroke-width="2"/>
<path d="M1304.12 382.508L1304.19 382.807L1304.49 382.879L1345.89 393L1304.49 403.121L1304.19 403.194L1304.12 403.493L1294.48 444.893L1283.88 403.482L1283.8 403.191L1283.51 403.12L1241.63 393L1283.51 382.88L1283.8 382.809L1283.88 382.519L1294.48 341.582L1304.12 382.508Z" fill="url(#paint17_linear_749_118)" stroke="url(#paint18_linear_749_118)"/>
<path d="M1293.32 381.001L1293.57 381.146L1293.82 381.001L1320.49 365.643L1305.14 392.319L1304.99 392.568L1305.14 392.818L1320.49 419.494L1293.82 404.135L1293.57 403.991L1293.32 404.135L1266.64 419.494L1282 392.818L1282.15 392.568L1282 392.319L1266.64 365.642L1293.32 381.001Z" fill="url(#paint19_linear_749_118)" stroke="url(#paint20_linear_749_118)"/>
<circle cx="1294" cy="393" r="40.5" stroke="url(#paint21_linear_749_118)"/>
<circle cx="1294" cy="393" r="44.5" stroke="url(#paint22_linear_749_118)"/>
<path d="M1299 337H1298L1294.5 330L1291 337H1290L1294.5 328L1299 337Z" fill="url(#paint23_linear_749_118)"/>
<path d="M1299 449.994H1298L1294.5 456.994L1291 449.994H1290L1294.5 458.994L1299 449.994Z" fill="url(#paint24_linear_749_118)"/>
<path d="M1236 388V389.111L1229 392.999L1236 396.888V397.999L1227 392.999L1236 388Z" fill="url(#paint25_linear_749_118)"/>
<path d="M1352 388V389.111L1359 392.999L1352 396.888V397.999L1361 392.999L1352 388Z" fill="url(#paint26_linear_749_118)"/>
<path d="M1294.5 335.506C1295.05 335.506 1295.5 335.954 1295.5 336.506C1295.5 337.058 1295.05 337.506 1294.5 337.506C1293.95 337.506 1293.5 337.058 1293.5 336.506C1293.5 335.954 1293.95 335.506 1294.5 335.506Z" fill="url(#paint27_linear_749_118)" stroke="url(#paint28_linear_749_118)"/>
<path d="M1294.5 448.5C1295.05 448.5 1295.5 448.948 1295.5 449.5C1295.5 450.052 1295.05 450.5 1294.5 450.5C1293.95 450.5 1293.5 450.052 1293.5 449.5C1293.5 448.948 1293.95 448.5 1294.5 448.5Z" fill="url(#paint29_linear_749_118)" stroke="url(#paint30_linear_749_118)"/>
<path d="M1234.5 393C1234.5 392.172 1235.17 391.5 1236 391.5C1236.83 391.5 1237.5 392.172 1237.5 393C1237.5 393.828 1236.83 394.5 1236 394.5C1235.17 394.5 1234.5 393.828 1234.5 393Z" fill="url(#paint31_linear_749_118)" stroke="url(#paint32_linear_749_118)"/>
<path d="M1353.5 393C1353.5 392.172 1352.83 391.5 1352 391.5C1351.17 391.5 1350.5 392.172 1350.5 393C1350.5 393.828 1351.17 394.5 1352 394.5C1352.83 394.5 1353.5 393.828 1353.5 393Z" fill="url(#paint33_linear_749_118)" stroke="url(#paint34_linear_749_118)"/>
<defs>
<filter id="filter0_n_749_118" x="0" y="0" width="1440" height="642" filterUnits="userSpaceOnUse" color-interpolation-filters="sRGB">
<feFlood flood-opacity="0" result="BackgroundImageFix"/>
<feBlend mode="normal" in="SourceGraphic" in2="BackgroundImageFix" result="shape"/>
<feTurbulence type="fractalNoise" baseFrequency="0.052910052239894867 0.052910052239894867" stitchTiles="stitch" numOctaves="3" result="noise" seed="9414" />
<feColorMatrix in="noise" type="luminanceToAlpha" result="alphaNoise" />
<feComponentTransfer in="alphaNoise" result="coloredNoise1">
<feFuncA type="discrete" tableValues="0 0 0 0 0 0 0 0 0 0 0 0 0 0 0 0 0 1 1 1 1 1 1 1 1 1 1 1 1 1 1 1 1 0 0 0 0 0 0 0 0 0 0 0 0 0 0 0 0 0 0 0 0 0 0 0 0 0 0 0 0 0 0 0 0 0 0 0 0 0 0 0 0 0 0 0 0 0 0 0 0 0 0 0 0 0 0 0 0 0 0 0 0 0 0 0 0 0 0 0 "/>
</feComponentTransfer>
<feComposite operator="in" in2="shape" in="coloredNoise1" result="noise1Clipped" />
<feComponentTransfer in="alphaNoise" result="coloredNoise2">
<feFuncA type="discrete" tableValues="0 0 0 0 0 0 0 0 0 0 0 0 0 0 0 0 0 0 0 0 0 0 0 0 0 0 0 0 0 0 0 0 0 0 0 0 0 0 0 0 0 0 0 0 0 0 0 0 0 0 0 0 0 0 0 0 0 0 0 0 0 0 0 0 0 0 0 1 1 1 1 1 1 1 1 1 1 1 1 1 1 1 1 0 0 0 0 0 0 0 0 0 0 0 0 0 0 0 0 0 "/>
</feComponentTransfer>
<feComposite operator="in" in2="shape" in="coloredNoise2" result="noise2Clipped" />
<feFlood flood-color="#D4AF37" result="color1Flood" />
<feComposite operator="in" in2="noise1Clipped" in="color1Flood" result="color1" />
<feFlood flood-color="#D4AF37" result="color2Flood" />
<feComposite operator="in" in2="noise2Clipped" in="color2Flood" result="color2" />
<feMerge result="effect1_noise_749_118">
<feMergeNode in="shape" />
<feMergeNode in="color1" />
<feMergeNode in="color2" />
</feMerge>
</filter>
<linearGradient id="paint0_linear_749_118" x1="0" y1="321" x2="1440" y2="321" gradientUnits="userSpaceOnUse">
<stop stop-color="#040D34"/>
<stop offset="0.5" stop-color="#1D2F89"/>
<stop offset="1" stop-color="#040D34"/>
</linearGradient>
<linearGradient id="paint1_linear_749_118" x1="0" y1="321" x2="1440" y2="321" gradientUnits="userSpaceOnUse">
<stop stop-color="#D4AF37"/>
<stop offset="1" stop-color="#F9E498"/>
</linearGradient>
<linearGradient id="paint2_linear_749_118" x1="0" y1="321" x2="1440" y2="321" gradientUnits="userSpaceOnUse">
<stop stop-color="#D4AF37"/>
<stop offset="1" stop-color="#F9E498"/>
</linearGradient>
<linearGradient id="paint3_linear_749_118" x1="117.8" y1="330.352" x2="131.747" y2="321.382" gradientUnits="userSpaceOnUse">
<stop stop-color="#D4AF37"/>
<stop offset="1" stop-color="#F9E498"/>
</linearGradient>
<linearGradient id="paint4_linear_749_118" x1="99.2812" y1="355.116" x2="107.375" y2="340.642" gradientUnits="userSpaceOnUse">
<stop stop-color="#D4AF37"/>
<stop offset="1" stop-color="#F9E498"/>
</linearGradient>
<linearGradient id="paint5_linear_749_118" x1="97.9026" y1="384.157" x2="97.6784" y2="367.575" gradientUnits="userSpaceOnUse">
<stop stop-color="#D4AF37"/>
<stop offset="1" stop-color="#F9E498"/>
</linearGradient>
<linearGradient id="paint6_linear_749_118" x1="175.309" y1="319.389" x2="189.505" y2="327.961" gradientUnits="userSpaceOnUse">
<stop stop-color="#D4AF37"/>
<stop offset="1" stop-color="#F9E498"/>
</linearGradient>
<linearGradient id="paint7_linear_749_118" x1="144.638" y1="317.425" x2="161.203" y2="316.66" gradientUnits="userSpaceOnUse">
<stop stop-color="#D4AF37"/>
<stop offset="1" stop-color="#F9E498"/>
</linearGradient>
<linearGradient id="paint8_linear_749_118" x1="201.366" y1="336.904" x2="210.177" y2="350.953" gradientUnits="userSpaceOnUse">
<stop stop-color="#D4AF37"/>
<stop offset="1" stop-color="#F9E498"/>
</linearGradient>
<linearGradient id="paint9_linear_749_118" x1="214.327" y1="365.276" x2="213.873" y2="381.853" gradientUnits="userSpaceOnUse">
<stop stop-color="#D4AF37"/>
<stop offset="1" stop-color="#F9E498"/>
</linearGradient>
<linearGradient id="paint10_linear_749_118" x1="211.792" y1="394.513" x2="204.047" y2="409.177" gradientUnits="userSpaceOnUse">
<stop stop-color="#D4AF37"/>
<stop offset="1" stop-color="#F9E498"/>
</linearGradient>
<linearGradient id="paint11_linear_749_118" x1="193.27" y1="418.298" x2="179.544" y2="427.603" gradientUnits="userSpaceOnUse">
<stop stop-color="#D4AF37"/>
<stop offset="1" stop-color="#F9E498"/>
</linearGradient>
<linearGradient id="paint12_linear_749_118" x1="164.826" y1="432.022" x2="148.244" y2="431.786" gradientUnits="userSpaceOnUse">
<stop stop-color="#D4AF37"/>
<stop offset="1" stop-color="#F9E498"/>
</linearGradient>
<linearGradient id="paint13_linear_749_118" x1="134.415" y1="429.12" x2="120.251" y2="420.496" gradientUnits="userSpaceOnUse">
<stop stop-color="#D4AF37"/>
<stop offset="1" stop-color="#F9E498"/>
</linearGradient>
<linearGradient id="paint14_linear_749_118" x1="109.702" y1="411.359" x2="100.527" y2="397.545" gradientUnits="userSpaceOnUse">
<stop stop-color="#D4AF37"/>
<stop offset="1" stop-color="#F9E498"/>
</linearGradient>
<linearGradient id="paint15_linear_749_118" x1="114.113" y1="374.35" x2="197.404" y2="374.35" gradientUnits="userSpaceOnUse">
<stop stop-color="#D4AF37"/>
<stop offset="1" stop-color="#F9E498"/>
</linearGradient>
<linearGradient id="paint16_linear_749_118" x1="121.462" y1="374.296" x2="189.35" y2="374.296" gradientUnits="userSpaceOnUse">
<stop stop-color="#D4AF37"/>
<stop offset="1" stop-color="#F9E498"/>
</linearGradient>
<linearGradient id="paint17_linear_749_118" x1="1239.5" y1="393.25" x2="1348" y2="393.25" gradientUnits="userSpaceOnUse">
<stop stop-color="#D4AF37"/>
<stop offset="1" stop-color="#F9E498"/>
</linearGradient>
<linearGradient id="paint18_linear_749_118" x1="1239.5" y1="393.25" x2="1348" y2="393.25" gradientUnits="userSpaceOnUse">
<stop stop-color="#D4AF37"/>
<stop offset="1" stop-color="#F9E498"/>
</linearGradient>
<linearGradient id="paint19_linear_749_118" x1="1265.28" y1="420.853" x2="1321.85" y2="364.284" gradientUnits="userSpaceOnUse">
<stop stop-color="#D4AF37"/>
<stop offset="1" stop-color="#F9E498"/>
</linearGradient>
<linearGradient id="paint20_linear_749_118" x1="1265.28" y1="420.853" x2="1321.85" y2="364.284" gradientUnits="userSpaceOnUse">
<stop stop-color="#D4AF37"/>
<stop offset="1" stop-color="#F9E498"/>
</linearGradient>
<linearGradient id="paint21_linear_749_118" x1="1253" y1="393" x2="1335" y2="393" gradientUnits="userSpaceOnUse">
<stop stop-color="#D4AF37"/>
<stop offset="1" stop-color="#F9E498"/>
</linearGradient>
<linearGradient id="paint22_linear_749_118" x1="1249" y1="393" x2="1339" y2="393" gradientUnits="userSpaceOnUse">
<stop stop-color="#D4AF37"/>
<stop offset="1" stop-color="#F9E498"/>
</linearGradient>
<linearGradient id="paint23_linear_749_118" x1="1290" y1="332.5" x2="1299" y2="332.5" gradientUnits="userSpaceOnUse">
<stop stop-color="#D4AF37"/>
<stop offset="1" stop-color="#F9E498"/>
</linearGradient>
<linearGradient id="paint24_linear_749_118" x1="1290" y1="454.494" x2="1299" y2="454.494" gradientUnits="userSpaceOnUse">
<stop stop-color="#D4AF37"/>
<stop offset="1" stop-color="#F9E498"/>
</linearGradient>
<linearGradient id="paint25_linear_749_118" x1="1231.5" y1="397.999" x2="1231.5" y2="388" gradientUnits="userSpaceOnUse">
<stop stop-color="#D4AF37"/>
<stop offset="1" stop-color="#F9E498"/>
</linearGradient>
<linearGradient id="paint26_linear_749_118" x1="1356.5" y1="397.999" x2="1356.5" y2="388" gradientUnits="userSpaceOnUse">
<stop stop-color="#D4AF37"/>
<stop offset="1" stop-color="#F9E498"/>
</linearGradient>
<linearGradient id="paint27_linear_749_118" x1="1293" y1="336.506" x2="1296" y2="336.506" gradientUnits="userSpaceOnUse">
<stop stop-color="#D4AF37"/>
<stop offset="1" stop-color="#F9E498"/>
</linearGradient>
<linearGradient id="paint28_linear_749_118" x1="1293" y1="336.506" x2="1296" y2="336.506" gradientUnits="userSpaceOnUse">
<stop stop-color="#D4AF37"/>
<stop offset="1" stop-color="#F9E498"/>
</linearGradient>
<linearGradient id="paint29_linear_749_118" x1="1293" y1="449.5" x2="1296" y2="449.5" gradientUnits="userSpaceOnUse">
<stop stop-color="#D4AF37"/>
<stop offset="1" stop-color="#F9E498"/>
</linearGradient>
<linearGradient id="paint30_linear_749_118" x1="1293" y1="449.5" x2="1296" y2="449.5" gradientUnits="userSpaceOnUse">
<stop stop-color="#D4AF37"/>
<stop offset="1" stop-color="#F9E498"/>
</linearGradient>
<linearGradient id="paint31_linear_749_118" x1="1236" y1="395" x2="1236" y2="391" gradientUnits="userSpaceOnUse">
<stop stop-color="#D4AF37"/>
<stop offset="1" stop-color="#F9E498"/>
</linearGradient>
<linearGradient id="paint32_linear_749_118" x1="1236" y1="395" x2="1236" y2="391" gradientUnits="userSpaceOnUse">
<stop stop-color="#D4AF37"/>
<stop offset="1" stop-color="#F9E498"/>
</linearGradient>
<linearGradient id="paint33_linear_749_118" x1="1352" y1="395" x2="1352" y2="391" gradientUnits="userSpaceOnUse">
<stop stop-color="#D4AF37"/>
<stop offset="1" stop-color="#F9E498"/>
</linearGradient>
<linearGradient id="paint34_linear_749_118" x1="1352" y1="395" x2="1352" y2="391" gradientUnits="userSpaceOnUse">
<stop stop-color="#D4AF37"/>
<stop offset="1" stop-color="#F9E498"/>
</linearGradient>
</defs>
</svg>
