<svg width="106" height="66" viewBox="0 0 106 66" fill="none" xmlns="http://www.w3.org/2000/svg">
<path fill-rule="evenodd" clip-rule="evenodd" d="M99.7003 31.4785C101.56 29.8612 103.744 29.7799 103.905 30.0225C104.035 30.2171 104.822 32.7456 105.199 33.9854C103.016 33.0958 100.67 33.4193 100.023 33.5811C99.4739 33.7187 97.5987 34.6314 98.4063 34.5508C99.2149 34.4699 103.34 36.8157 103.986 37.7861C104.634 37.869 106.573 42.0724 105.037 45.1445C103.808 47.6028 101.776 48.6486 100.913 48.8643C99.5385 49.1069 96.1749 49.8026 93.7169 50.6436C90.6442 51.6948 89.8358 52.9672 95.0108 52.3203C100.185 51.6735 101.722 52.8268 104.066 54.2822C106.411 55.7378 106.331 58.87 105.36 61.3984C104.469 63.722 102.045 65.9265 97.0323 65.4414C93.0216 65.0533 90.0237 63.9321 89.0264 63.4199L87.1817 56.4395C87.3035 56.7198 88.2071 57.6877 90.4825 60.083C93.5552 63.3176 95.1723 64.4713 98.9727 64.3096C102.013 64.1802 103.959 61.9913 104.552 60.9131C104.821 60.2122 105.101 58.5844 104.066 57.6787C103.032 56.7734 101.696 56.4388 101.156 56.3848C99.4313 56.1961 94.9458 55.6731 90.8057 55.0908C87.1833 54.0557 88.6227 52.212 90.0782 51.2686L94.2022 49.5107C93.4745 49.1873 91.6307 48.3139 90.0782 47.4082C88.5257 46.5025 87.7059 44.8206 87.4903 44.0928C87.0861 41.6669 87.3292 39.3006 88.9464 37.624C91.0913 35.4002 92.1803 35.3592 93.2315 34.874C94.0725 34.4859 96.2772 34.3897 97.2745 34.3897C97.4631 33.9584 98.2126 32.7723 99.7003 31.4785ZM96.0616 35.2588C94.6869 35.3382 91.0489 37.2003 91.0489 42.2139C91.0491 47.1724 94.121 48.8984 96.0616 49.168C97.8944 49.2219 101.576 47.9065 101.641 42.2139C101.705 36.5209 98.3257 35.2572 96.0616 35.2588Z" fill="#F6F1EA"/>
<path d="M77.0595 53.5332H69.863C71.4155 52.8215 71.7316 51.1623 71.7228 50.3794C71.6419 43.2362 71.6419 28.7882 71.561 28.1412C71.4804 27.4961 70.5638 26.9552 70.0247 26.7665C70.6985 26.5778 72.2888 26.4431 73.1782 26.2005C74.052 25.9622 75.065 25.2301 75.4423 24.7449C75.5501 32.6428 75.4423 48.8429 75.4423 50.3794C75.4423 51.9534 76.4126 53.1288 77.0595 53.5332Z" fill="#F6F1EA"/>
<path fill-rule="evenodd" clip-rule="evenodd" d="M43.4998 34.5001C45.0361 34.4097 47.837 34.4194 49.4998 35.5001C50.5509 35.949 52.3969 37.7641 53.0154 39.0216C53.7431 38.3208 53.7715 37.1166 56.6824 35.5802C59.3794 34.1567 63.018 34.3678 65.658 35.7062C67.9405 36.8634 69.6201 40.3428 70.1052 42.0948C66.6011 43.1731 58.5461 45.5554 55.4412 46.4611C55.6029 49.4531 59.8888 51.7985 61.2634 52.4454C62.0196 52.8013 63.3136 53.2905 65.3875 52.5265C65.8889 52.3417 68.0561 51.0167 69.1072 50.3429C68.0022 51.3671 65.68 53.3634 64.6599 53.7394C64.1223 53.9374 61.7766 54.7455 59.0799 53.9005C56.6827 52.9665 55.4409 52.2839 53.7429 50.9093C53.3555 51.7503 54.4731 53.0926 54.9851 53.7394H50.0242V47.1886L48.4871 49.8575C46.8982 52.4007 41.986 56.3754 37.9754 53.6583C33.9654 50.9415 36.5483 47.8459 38.408 46.8214L42.3426 45.006C43.6095 44.4398 46.5795 42.8062 48.3259 40.8009C50.0725 38.7954 48.4605 36.7842 47.4363 36.0294C46.1156 35.3286 42.9247 34.5904 40.7254 37.2423C38.5413 39.8762 39.7909 42.1966 40.7058 42.9679C40.4582 43.6901 39.2252 43.8731 38.6228 43.8732C37.976 43.954 36.6017 43.7926 36.2781 42.4991C35.8738 40.8818 36.2957 39.6004 36.6824 38.6534C37.196 37.3961 38.7315 36.147 39.2976 35.8234C40.5105 35.1303 42.1252 34.581 43.4998 34.5001ZM49.8064 40.1095C49.6812 40.627 48.031 42.6968 46.7283 43.3439L44.5857 44.6788L42.4422 46.0128C42.0376 46.2826 40.9152 47.0646 40.2595 48.1964C38.4809 51.5926 42.0385 52.7242 45.1111 51.673C47.5691 50.8318 49.8062 47.0635 49.9627 44.9611L49.8064 40.1095ZM66.9519 42.5851C66.2724 39.8519 63.8262 34.653 59.4773 35.7238C54.0411 37.0625 54.8056 45.5971 55.4002 45.9318L66.9519 42.5851Z" fill="url(#paint0_linear_285_764)"/>
<path d="M33.476 19.6506L28.5436 26.5242C28.5436 23.613 26.6838 20.3784 24.7432 18.0777C22.7217 16.0924 20.5 15.0001 17 15.0001C12 15.0001 9.13808 17.3054 8.32858 19.5698C7.81723 21.0001 8 23.5001 9 25.0001C11.4042 28.6064 30.4034 37.1985 32.2631 38.8967C32.9909 39.5612 35.0124 40.9992 35.0124 44.9617C34.3655 47.8728 31.7128 51.6007 25.5518 52.8865C17.6275 54.5403 13.5845 53.5334 9.86492 52.7692C6.98829 52.1781 2.07541 50.1815 0 49.1302L4.8516 38.735C5.71411 41.4305 8.1395 47.3035 11.2395 49.4537C15.606 52.4822 19.3255 52.6074 24.4197 49.858C28.4951 47.6584 27.0881 44.5573 25.5518 43.227L21.9939 40.8375L18.4361 38.6985C14.9591 36.8751 6.35872 33.2442 2.99183 28.6711C-0.97032 23.2895 0.0808783 20.8716 1.69807 18.6437C3.31526 16.4159 9.01179 11.6895 18.4361 12.8214C27.4924 13.9091 31.9128 18.0063 33.476 19.6506Z" fill="#F6F1EA"/>
<path d="M85.2669 53.5331H78.1512C79.6863 53.0774 79.9988 52.0147 79.9901 51.5133C79.9101 46.9385 79.9101 37.6852 79.8302 37.2709C79.7504 36.8577 78.8441 36.5113 78.3111 36.3905C78.9773 36.2696 80.5497 36.1833 81.4292 36.0279C82.2931 35.8753 83.2947 35.4064 83.6678 35.0957C83.7744 40.1539 83.6678 50.5293 83.6678 51.5133C83.6678 52.5214 84.6273 53.2742 85.2669 53.5331Z" fill="#F6F1EA"/>
<ellipse cx="81.6686" cy="31.5377" rx="1.94064" ry="1.94078" fill="#F6F1EA"/>
<path d="M52.8161 1C60.5253 1 66.7749 7.25 66.775 14.96C66.775 22.67 60.5254 28.9199 52.8161 28.9199C45.1068 28.9199 38.8571 22.67 38.8571 14.96C38.8572 7.25004 45.1069 1.00006 52.8161 1Z" stroke="#F6F1EA" stroke-width="2"/>
<defs>
<linearGradient id="paint0_linear_285_764" x1="35.8579" y1="44.518" x2="70.1052" y2="44.518" gradientUnits="userSpaceOnUse">
<stop stop-color="#D4AF37"/>
<stop offset="1" stop-color="#F9E498"/>
</linearGradient>
</defs>
</svg>
