<svg width="106" height="66" viewBox="0 0 106 66" fill="none" xmlns="http://www.w3.org/2000/svg">
<path fill-rule="evenodd" clip-rule="evenodd" d="M99.7003 31.4784C101.56 29.8611 103.744 29.7798 103.905 30.0223C104.035 30.217 104.822 32.7454 105.199 33.9852C103.016 33.0957 100.67 33.4192 100.023 33.5809C99.4739 33.7186 97.5987 34.6313 98.4063 34.5507C99.2149 34.4698 103.34 36.8156 103.986 37.786C104.634 37.8689 106.573 42.0723 105.037 45.1444C103.808 47.6027 101.776 48.6485 100.913 48.8641C99.5385 49.1068 96.1749 49.8025 93.7169 50.6434C90.6442 51.6947 89.8358 52.9671 95.0108 52.3202C100.185 51.6734 101.722 52.8266 104.066 54.2821C106.411 55.7377 106.331 58.8699 105.36 61.3983C104.469 63.7218 102.045 65.9264 97.0323 65.4413C93.0216 65.0531 90.0237 63.932 89.0264 63.4198L87.1817 56.4393C87.3035 56.7197 88.2071 57.6876 90.4825 60.0829C93.5552 63.3175 95.1723 64.4712 98.9727 64.3095C102.013 64.18 103.959 61.9912 104.552 60.913C104.821 60.2121 105.101 58.5843 104.066 57.6786C103.032 56.7733 101.696 56.4387 101.156 56.3847C99.4313 56.196 94.9458 55.6729 90.8057 55.0907C87.1833 54.0555 88.6227 52.2118 90.0782 51.2684L94.2022 49.5106C93.4745 49.1872 91.6307 48.3138 90.0782 47.4081C88.5257 46.5024 87.7059 44.8204 87.4903 44.0927C87.0861 41.6668 87.3292 39.3005 88.9464 37.6239C91.0913 35.4001 92.1803 35.3591 93.2315 34.8739C94.0725 34.4858 96.2772 34.3895 97.2745 34.3895C97.4631 33.9583 98.2126 32.7722 99.7003 31.4784ZM96.0616 35.2587C94.6869 35.3381 91.0489 37.2002 91.0489 42.2138C91.0491 47.1723 94.121 48.8982 96.0616 49.1679C97.8944 49.2218 101.576 47.9063 101.641 42.2138C101.705 36.5208 98.3257 35.2571 96.0616 35.2587Z" fill="#F6F1EA"/>
<path d="M77.0595 53.5333H69.863C71.4155 52.8216 71.7316 51.1624 71.7228 50.3795C71.6419 43.2363 71.6419 28.7883 71.561 28.1413C71.4804 27.4962 70.5638 26.9553 70.0247 26.7666C70.6985 26.5779 72.2888 26.4432 73.1782 26.2006C74.052 25.9623 75.065 25.2302 75.4423 24.745C75.5501 32.6429 75.4423 48.843 75.4423 50.3795C75.4423 51.9535 76.4126 53.1289 77.0595 53.5333Z" fill="#F6F1EA"/>
<path d="M43.4998 34.5002C45.0361 34.4098 47.837 34.4195 49.4998 35.5002C50.5509 35.949 52.3968 37.7641 53.0154 39.0216C53.7431 38.3208 53.7715 37.1167 56.6824 35.5802C59.3794 34.1567 63.018 34.3679 65.658 35.7062C67.9405 36.8634 69.6201 40.3428 70.1052 42.0949C66.6011 43.1731 58.5461 45.5554 55.4412 46.4611C55.6029 49.4531 59.8888 51.7985 61.2634 52.4455C62.0196 52.8013 63.3136 53.2906 65.3875 52.5265C65.8888 52.3417 68.0561 51.0168 69.1072 50.3429C68.0022 51.3671 65.6799 53.3634 64.6599 53.7394C64.1223 53.9375 61.7766 54.7455 59.0798 53.9006C56.6827 52.9665 55.4409 52.284 53.7429 50.9093C53.3555 51.7504 54.4731 53.0926 54.9851 53.7394H50.0242V47.1886L48.4871 49.8576C46.8982 52.4007 41.9859 56.3754 37.9753 53.6584C33.9653 50.9415 36.5482 47.846 38.408 46.8214L42.3425 45.006C43.6095 44.4399 46.5795 42.8063 48.3259 40.8009C50.0725 38.7955 48.4605 36.7842 47.4363 36.0295C46.1156 35.3287 42.9247 34.5904 40.7253 37.2423C38.5413 39.8763 39.7909 42.1966 40.7058 42.9679C40.4582 43.6902 39.2252 43.8732 38.6228 43.8732C37.976 43.9541 36.6017 43.7927 36.2781 42.4992C35.8738 40.8819 36.2957 39.6004 36.6824 38.6535C37.196 37.3962 38.7315 36.147 39.2976 35.8234C40.5104 35.1303 42.1252 34.5811 43.4998 34.5002ZM49.8064 40.1095C49.6812 40.627 48.0309 42.6968 46.7283 43.3439L44.5857 44.6789L42.4421 46.0129C42.0376 46.2826 40.9152 47.0646 40.2595 48.1964C38.4808 51.5927 42.0385 52.7242 45.1111 51.673C47.5691 50.8318 49.8061 47.0635 49.9626 44.9611L49.8064 40.1095ZM66.9519 42.5851C66.2724 39.852 63.8262 34.653 59.4773 35.7238C54.0411 37.0625 54.8056 45.5971 55.4001 45.9318L66.9519 42.5851Z" fill="url(#paint0_linear_284_498)"/>
<path d="M33.476 19.6505L28.5436 26.5241C28.5436 23.6129 26.6838 20.3783 24.7432 18.0776C22.7217 16.0923 20.5 15 17 15C12 15 9.13808 17.3053 8.32858 19.5696C7.81723 21 8 23.5 9 25C11.4042 28.6063 30.4034 37.1984 32.2631 38.8966C32.9909 39.5611 35.0124 40.9991 35.0124 44.9615C34.3655 47.8727 31.7128 51.6006 25.5518 52.8864C17.6275 54.5402 13.5845 53.5333 9.86492 52.7691C6.98829 52.178 2.07541 50.1813 0 49.1301L4.8516 38.7349C5.71411 41.4304 8.1395 47.3034 11.2395 49.4535C15.606 52.4821 19.3255 52.6073 24.4197 49.8579C28.4951 47.6583 27.0881 44.5572 25.5518 43.2269L21.9939 40.8374L18.4361 38.6984C14.9591 36.8749 6.35872 33.2441 2.99183 28.671C-0.97032 23.2894 0.0808783 20.8714 1.69807 18.6436C3.31526 16.4158 9.01179 11.6894 18.4361 12.8213C27.4924 13.909 31.9128 18.0062 33.476 19.6505Z" fill="#F6F1EA"/>
<path d="M85.2669 53.5332H78.1512C79.6863 53.0775 79.9988 52.0148 79.9901 51.5134C79.9101 46.9386 79.9101 37.6853 79.8302 37.271C79.7504 36.8578 78.8441 36.5114 78.3111 36.3906C78.9773 36.2697 80.5497 36.1834 81.4292 36.028C82.2931 35.8754 83.2947 35.4066 83.6678 35.0958C83.7744 40.154 83.6678 50.5294 83.6678 51.5134C83.6678 52.5215 84.6273 53.2743 85.2669 53.5332Z" fill="#F6F1EA"/>
<ellipse cx="81.6686" cy="31.5377" rx="1.94064" ry="1.94078" fill="#F6F1EA"/>
<path d="M52.816 1C60.5253 1 66.7749 7.25 66.775 14.96C66.775 22.67 60.5254 28.9199 52.816 28.9199C45.1068 28.9199 38.8571 22.67 38.8571 14.96C38.8572 7.25004 45.1068 1.00006 52.816 1Z" stroke="#F6F1EA" stroke-width="2"/>
<defs>
<linearGradient id="paint0_linear_284_498" x1="35.8582" y1="44.5177" x2="70.1051" y2="44.5177" gradientUnits="userSpaceOnUse">
<stop stop-color="#D4AF37"/>
<stop offset="1" stop-color="#F9E498"/>
</linearGradient>
</defs>
</svg>
